<svg width="15" height="14" viewBox="0 0 15 14" fill="none" xmlns="http://www.w3.org/2000/svg">
<path d="M10.5918 3.11383L10.6053 3.21777L10.449 3.25002L10.4282 3.47143H10.6155L10.8646 3.44753L10.9932 3.29522L10.8565 3.24224L10.7816 3.15644L10.6692 2.97506L10.6155 2.71852L10.4042 2.76142L10.345 2.85183V2.95375L10.4467 3.02314L10.5918 3.11383Z" fill="white"/>
<path d="M10.4115 3.19906L10.4228 3.06028L10.2988 3.00702L10.1254 3.04704L9.99683 3.25261V3.38592H10.1468L10.4115 3.19906Z" fill="white"/>
<path d="M6.83939 3.78843L6.80124 3.88632H6.61658V3.98133H6.6605C6.6605 3.98133 6.6631 4.00149 6.66686 4.02797L6.78014 4.01847L6.85095 3.97471L6.86944 3.88632L6.96105 3.87855L6.99717 3.80426L6.91308 3.78699L6.83939 3.78843Z" fill="white"/>
<path d="M6.36315 3.96088L6.35596 4.05387L6.48926 4.04265L6.50308 3.94936L6.42304 3.88631L6.36315 3.96088Z" fill="white"/>
<path d="M14.4065 6.92759C14.4044 6.72288 14.394 6.51961 14.3746 6.31951C14.3096 5.6524 14.1493 5.01294 13.9092 4.41349C13.8913 4.36886 13.8748 4.32366 13.8557 4.27961C13.5358 3.52728 13.0866 2.84232 12.5367 2.25123C12.5006 2.21265 12.4638 2.17464 12.4271 2.13721C12.3233 2.02982 12.2165 1.92502 12.106 1.82453C10.8559 0.691578 9.19557 0 7.37558 0C5.54027 0 3.8681 0.703959 2.61448 1.85419C2.32233 2.12224 2.0539 2.41477 1.81035 2.72802C0.891686 3.91079 0.343262 5.39241 0.343262 6.99986C0.343262 10.86 3.49815 14 7.37587 14C10.1035 14 12.4716 12.4452 13.6373 10.1799C13.8867 9.69563 14.0808 9.17939 14.2115 8.6384C14.2448 8.50106 14.2734 8.36315 14.2983 8.22351C14.3691 7.82589 14.4079 7.41705 14.4079 6.99986C14.4082 6.97567 14.4068 6.95177 14.4065 6.92759ZM13.0828 4.12989L13.1236 4.0844C13.1771 4.18776 13.2272 4.29285 13.2749 4.39938L13.2084 4.39679L13.0828 4.41407V4.12989ZM12.0667 2.90855L12.0678 2.59587C12.1783 2.71247 12.2848 2.83253 12.3866 2.95692L12.2599 3.14464L11.8171 3.14061L11.7893 3.04876L12.0667 2.90855ZM3.58348 2.13145V2.11965H3.72434L3.73649 2.07157H3.96703V2.17176L3.90079 2.25987H3.58319L3.58348 2.13145ZM3.80851 2.44385C3.80851 2.44385 3.94938 2.41995 3.96153 2.41995C3.97368 2.41995 3.96153 2.55988 3.96153 2.55988L3.64393 2.57974L3.58348 2.50776L3.80851 2.44385ZM13.5309 5.22254H13.0163L12.7028 4.99019L12.3727 5.02215V5.22254H12.2683L12.1555 5.1425L11.5839 4.99825V4.62972L10.8596 4.68586L10.6352 4.80592H10.3477L10.2068 4.79181L9.85767 4.98472V5.34778L9.14408 5.86028L9.20338 6.07909H9.348L9.31011 6.28755L9.20829 6.32469L9.2028 6.86943L9.81948 7.56849H10.0879L10.1041 7.52588H10.5866L10.7257 7.39776H10.9993L11.1495 7.54748L11.5573 7.58951L11.5032 8.12936L11.9559 8.92487L11.7176 9.37834L11.7338 9.59198L11.9215 9.77826V10.2919L12.1679 10.6219V11.0486H12.3808C11.196 12.4965 9.39284 13.4239 7.3753 13.4239C3.8169 13.4242 0.921768 10.5421 0.921768 6.99986C0.921768 6.10817 1.10573 5.25824 1.43693 4.48576V4.28537L1.66775 4.00638C1.74788 3.85579 1.83378 3.70896 1.92548 3.56586L1.93589 3.68247L1.66804 4.00638C1.58503 4.16243 1.50751 4.32193 1.43722 4.48576V4.85141L1.70535 4.97983V5.488L1.9625 5.92477L2.17163 5.95673L2.19853 5.80701L1.9518 5.42811L1.90349 5.05987H2.04812L2.10915 5.43877L2.4658 5.95673L2.37382 6.12401L2.60059 6.46922L3.16377 6.608V6.51731L3.3891 6.54926L3.36769 6.70935L3.54472 6.74159L3.81806 6.81588L4.20421 7.2538L4.69739 7.29094L4.7457 7.69143L4.40814 7.92638L4.39223 8.28397L4.34392 8.50279L4.83218 9.11116L4.8695 9.31961C4.8695 9.31961 5.04652 9.3674 5.06821 9.3674C5.08962 9.3674 5.46507 9.65043 5.46507 9.65043V10.75L5.59899 10.7874L5.50788 11.2947L5.73321 11.5939L5.69155 12.0966L5.98919 12.6174L6.3713 12.9497L6.75543 12.9566L6.79303 12.8336L6.51072 12.597L6.52692 12.4795L6.57753 12.3355L6.58824 12.1887L6.39733 12.183L6.30101 12.0626L6.45952 11.9109L6.48092 11.7963L6.3039 11.7459L6.31431 11.6394L6.56654 11.6014L6.95009 11.418L7.07881 11.183L7.48116 10.6705L7.38976 10.2697L7.51327 10.0564L7.88322 10.0676L8.13227 9.87126L8.21268 9.09791L8.48892 8.74867L8.53723 8.52438L8.28529 8.44405L8.11897 8.17254L7.55058 8.16679L7.09993 7.99576L7.07852 7.67589L6.92811 7.41417L6.52055 7.40812L6.2851 7.04016L6.07597 6.93853L6.06527 7.05082L5.68461 7.07327L5.54519 6.88008L5.14805 6.79975L4.8209 7.17606L4.30603 7.08911L4.26872 6.51155L3.89298 6.44763L4.04368 6.16432L4.00058 6.00165L3.50682 6.33016L3.19617 6.29244L3.08538 6.05088L3.15307 5.80183L3.3243 5.48771L3.71856 5.28905L4.47987 5.28876L4.47785 5.51996L4.75148 5.64664L4.72979 5.25162L4.92706 5.05411L5.32507 4.79383L5.35226 4.61071L5.74911 4.19957L6.17113 3.96693L6.13382 3.93641L6.4196 3.66865L6.52431 3.69629L6.57233 3.75617L6.6808 3.6364L6.70741 3.6246L6.58853 3.6079L6.46791 3.56788V3.45271L6.53183 3.4006H6.6727L6.7372 3.42881L6.79303 3.5411L6.86129 3.53074V3.52095L6.88096 3.52757L7.07881 3.49734L7.10687 3.40117L7.21968 3.42939V3.53361L7.11497 3.60531H7.11526L7.13059 3.71961L7.48897 3.82959C7.48897 3.82959 7.48926 3.83103 7.48984 3.83391L7.57228 3.827L7.57777 3.67239L7.29373 3.54369L7.27753 3.46941L7.51327 3.38937L7.52368 3.16479L7.27724 3.01536L7.26104 2.63675L6.92319 2.80202H6.79997L6.83237 2.51381L6.37245 2.40584L6.18213 2.54894V2.98542L5.83994 3.09339L5.70283 3.37785L5.55416 3.40175V3.03782L5.23251 2.99348L5.07168 2.88925L5.00689 2.65345L5.58221 2.31831L5.86366 2.23309L5.89201 2.42139L6.04878 2.41333L6.06093 2.3186L6.22494 2.29528L6.22783 2.26217L6.15725 2.23309L6.14105 2.13289L6.34266 2.11591L6.46444 1.9898L6.47109 1.98059L6.47254 1.98116L6.50956 1.94316L6.93332 1.88989L7.12075 2.04825L6.62931 2.30881L7.25468 2.45565L7.33567 2.24749H7.60901L7.70562 2.0661L7.5124 2.01802V1.78854L6.90642 1.52136L6.48816 1.56944L6.25213 1.69238L6.26832 1.99124L6.02159 1.95381L5.9837 1.78854L6.22002 1.57491L5.79106 1.5536L5.66783 1.59075L5.61432 1.7347L5.77515 1.76177L5.74304 1.92185L5.4697 1.93797L5.42689 2.0445L5.03032 2.05544C5.03032 2.05544 5.01933 1.83144 5.00342 1.83144C4.98751 1.83144 5.31437 1.82597 5.31437 1.82597L5.55069 1.59622L5.42168 1.53201L5.25015 1.69785L4.96553 1.68173L4.794 1.44679H4.42925L4.04859 1.72981H4.39743L4.42925 1.83144L4.33872 1.91523L4.72487 1.92588L4.78388 2.06466L4.34913 2.04853L4.32801 1.94172L4.05467 1.88298L3.90975 1.80294L3.58434 1.80553C4.64966 1.03305 5.95969 0.575835 7.37558 0.575835C9.00755 0.575835 10.4987 1.18305 11.6363 2.18069L11.5596 2.31716L11.262 2.43319L11.1365 2.5688L11.1654 2.72687L11.319 2.74817L11.4115 2.97851L11.6765 2.87227L11.7202 3.18034H11.6403L11.4228 3.14838L11.1816 3.18869L10.9481 3.51692L10.6144 3.56903L10.566 3.85349L10.7069 3.8866L10.6661 4.06943L10.3346 4.00321L10.0306 4.06943L9.96614 4.23786L10.0188 4.59142L10.1972 4.67463L10.4966 4.6729L10.6988 4.65477L10.7604 4.49468L11.0763 4.08613L11.2843 4.12845L11.4891 3.94419L11.5272 4.08814L12.0311 4.42645L11.9695 4.50879L11.7424 4.4967L11.8298 4.61993L11.9695 4.65045L12.1332 4.5825L12.1297 4.38614L12.2024 4.34986L12.1439 4.28825L11.8078 4.10168L11.7193 3.85378H11.9987L12.0881 3.94188L12.3288 4.14832L12.3389 4.39794L12.5882 4.66225L12.6811 4.30005L12.8538 4.20619L12.8861 4.50246L13.0548 4.68672L13.3912 4.68097C13.4563 4.84767 13.5147 5.01725 13.5659 5.19029L13.5309 5.22254ZM4.17905 3.18034L4.34797 3.1003L4.5007 3.13658L4.44805 3.34071L4.28318 3.39282L4.17905 3.18034ZM5.07544 3.66087V3.79303H4.68958L4.54495 3.75301L4.58111 3.66087L4.76652 3.58458H5.01991V3.66087H5.07544ZM5.25305 3.84514V3.97326L5.15643 4.03517L5.03611 4.05734C5.03611 4.05734 5.03611 3.8653 5.03611 3.84514H5.25305ZM5.14429 3.79303V3.64072L5.27705 3.76107L5.14429 3.79303ZM5.20474 4.1011V4.22577L5.11247 4.3179H4.90739L4.93949 4.17797L5.03639 4.16962L5.05635 4.12154L5.20474 4.1011ZM4.69392 3.84514H4.9071L4.63375 4.22548L4.52094 4.16531L4.54524 4.00522L4.69392 3.84514ZM5.56688 4.05734V4.18172H5.3618L5.30569 4.1011V3.98536H5.32189L5.56688 4.05734ZM5.37742 3.88631L5.43585 3.82528L5.53449 3.88631L5.45552 3.95109L5.37742 3.88631ZM13.6356 5.54673L13.6558 5.52313C13.6642 5.5594 13.6732 5.59568 13.6813 5.63253L13.6356 5.54673Z" fill="white"/>
<path d="M1.43713 4.28537V4.48576C1.5071 4.32222 1.58426 4.16272 1.66689 4.00638L1.43713 4.28537Z" fill="white"/>
</svg>
