<svg width="224" height="148" viewBox="0 0 224 148" fill="none" xmlns="http://www.w3.org/2000/svg">
<g opacity="0.3">
<path d="M223.91 118.802V116.083L223.167 115.664C222.957 116.951 221.466 117.794 220.219 117.97L211.73 123.002L208.021 124.356L196.194 118.171L196.47 118.013C195.457 117.533 194.912 116.441 194.367 115.439L193.57 115.919L193.096 116.052V118.844C193.096 119.379 193.444 119.913 194.139 120.313L205.99 127.245C207.38 128.058 209.633 128.058 211.023 127.245L222.874 120.313C223.557 119.913 223.904 119.391 223.916 118.869C223.916 118.844 223.916 118.82 223.916 118.796L223.91 118.802Z" fill="url(#paint0_linear_34_18553)"/>
<path opacity="0.3" d="M220.219 117.97L211.729 123.002L208.506 124.18V127.858C209.417 127.858 210.327 127.658 211.022 127.251L222.873 120.319C223.556 119.919 223.904 119.397 223.916 118.875C223.916 118.85 223.916 118.826 223.916 118.802V116.083L223.239 115.7H223.167C222.933 116.963 221.459 117.794 220.225 117.97H220.219Z" fill="#0F054C"/>
<path d="M205.984 124.483L194.133 117.551C192.743 116.738 192.743 115.421 194.133 114.607L205.984 107.676C207.374 106.862 209.627 106.862 211.017 107.676L222.867 114.607C224.257 115.421 224.257 116.738 222.867 117.551L211.017 124.483C209.627 125.297 207.374 125.297 205.984 124.483Z" fill="url(#paint1_linear_34_18553)"/>
<g opacity="0.3">
<path d="M205.984 124.483L194.133 117.551C192.743 116.738 192.743 115.421 194.133 114.607L205.984 107.676C207.374 106.862 209.627 106.862 211.017 107.676L222.867 114.607C224.257 115.421 224.257 116.738 222.867 117.551L211.017 124.483C209.627 125.297 207.374 125.297 205.984 124.483Z" fill="#0F054C"/>
</g>
</g>
<path d="M208.5 115.725C207.691 115.725 206.882 115.542 206.265 115.184L194.414 108.253C193.797 107.894 193.462 107.409 193.462 106.887C193.462 106.365 193.803 105.879 194.414 105.521L206.265 98.5893C207.493 97.867 209.501 97.867 210.735 98.5893L222.586 105.521C223.203 105.879 223.538 106.365 223.538 106.887C223.538 107.409 223.197 107.894 222.586 108.253L210.735 115.184C210.118 115.542 209.309 115.725 208.5 115.725ZM208.5 98.2555C207.727 98.2555 206.96 98.4255 206.373 98.7714L194.522 105.703C193.971 106.025 193.671 106.444 193.671 106.887C193.671 107.33 193.971 107.749 194.522 108.07L206.373 115.002C207.547 115.688 209.459 115.688 210.633 115.002L222.484 108.07C223.035 107.749 223.335 107.33 223.335 106.887C223.335 106.444 223.035 106.025 222.484 105.703L210.633 98.7714C210.046 98.4255 209.273 98.2555 208.5 98.2555Z" fill="#42E8E0"/>
<path opacity="0.4" d="M223.91 104.222V100.113L223.167 99.6941C222.957 100.981 221.466 101.825 220.219 102.001L211.73 107.033L208.021 108.386L196.194 102.201L196.47 102.043C195.457 101.564 194.912 100.471 194.367 99.4695L193.57 99.949L193.096 100.083V104.265C193.096 104.799 193.444 105.333 194.139 105.734L205.99 112.665C207.38 113.479 209.633 113.479 211.023 112.665L222.874 105.734C223.557 105.333 223.904 104.811 223.916 104.289C223.916 104.265 223.916 104.24 223.916 104.216L223.91 104.222Z" fill="#42E8E0"/>
<path d="M223.91 100.568V97.8487L223.167 97.4299C222.957 98.7167 221.466 99.5604 220.219 99.7365L211.73 104.768L208.021 106.122L196.194 99.9368L196.47 99.779C195.457 99.2994 194.912 98.2069 194.367 97.2053L193.57 97.6848L193.096 97.8184V100.611C193.096 101.145 193.444 101.679 194.139 102.079L205.99 109.011C207.38 109.825 209.633 109.825 211.023 109.011L222.874 102.079C223.557 101.679 223.904 101.157 223.916 100.635C223.916 100.611 223.916 100.586 223.916 100.562L223.91 100.568Z" fill="url(#paint2_linear_34_18553)"/>
<path opacity="0.3" d="M220.219 99.7364L211.73 104.768L208.506 105.946V109.624C209.417 109.624 210.328 109.424 211.023 109.017L222.874 102.085C223.557 101.685 223.904 101.163 223.916 100.641C223.916 100.617 223.916 100.592 223.916 100.568V97.8487L223.239 97.4663H223.167C222.934 98.7288 221.46 99.5604 220.225 99.7364H220.219Z" fill="#0F054C"/>
<path d="M205.984 106.25L194.133 99.3177C192.743 98.5044 192.743 97.1872 194.133 96.3738L205.984 89.4421C207.374 88.6287 209.627 88.6287 211.017 89.4421L222.868 96.3738C224.258 97.1872 224.258 98.5044 222.868 99.3177L211.017 106.25C209.627 107.063 207.374 107.063 205.984 106.25Z" fill="url(#paint3_linear_34_18553)"/>
<path d="M222.867 99.3177L211.017 106.25C209.627 107.063 207.374 107.063 205.984 106.25L194.133 99.3177C193.51 98.9535 193.168 98.4922 193.102 98.0127C193.018 98.6015 193.366 99.2024 194.133 99.6516L205.984 106.583C207.374 107.397 209.627 107.397 211.017 106.583L222.867 99.6516C223.634 99.2024 223.976 98.5954 223.898 98.0127C223.832 98.4861 223.491 98.9535 222.867 99.3177Z" fill="white"/>
<g opacity="0.3">
<path d="M51.3466 134.669V131.949L50.6036 131.53C50.3939 132.817 48.9021 133.661 47.6559 133.837L39.1661 138.869L35.4575 140.223L23.6305 134.037L23.9061 133.88C22.8936 133.4 22.3483 132.307 21.8031 131.306L21.0063 131.785L20.533 131.919V134.711C20.533 135.245 20.8805 135.779 21.5755 136.18L33.4264 143.112C34.8164 143.925 37.0691 143.925 38.4591 143.112L50.3101 136.18C50.9931 135.779 51.3406 135.257 51.3526 134.735C51.3526 134.711 51.3526 134.687 51.3526 134.663L51.3466 134.669Z" fill="url(#paint4_linear_34_18553)"/>
<path opacity="0.3" d="M47.6559 133.837L39.1661 138.869L35.9427 140.047V143.725C36.8534 143.725 37.7641 143.525 38.4591 143.118L50.3101 136.186C50.9931 135.785 51.3406 135.263 51.3525 134.741C51.3525 134.717 51.3525 134.693 51.3525 134.669V131.949L50.6755 131.567H50.6036C50.37 132.829 48.8961 133.661 47.6619 133.837H47.6559Z" fill="#0F054C"/>
<path d="M33.4203 140.35L21.5694 133.418C20.1794 132.605 20.1794 131.288 21.5694 130.474L33.4203 123.543C34.8103 122.729 37.063 122.729 38.453 123.543L50.304 130.474C51.694 131.288 51.694 132.605 50.304 133.418L38.453 140.35C37.063 141.163 34.8103 141.163 33.4203 140.35Z" fill="url(#paint5_linear_34_18553)"/>
<g opacity="0.3">
<path d="M33.4203 140.35L21.5694 133.418C20.1794 132.605 20.1794 131.288 21.5694 130.474L33.4203 123.543C34.8103 122.729 37.063 122.729 38.453 123.543L50.304 130.474C51.694 131.288 51.694 132.605 50.304 133.418L38.453 140.35C37.063 141.163 34.8103 141.163 33.4203 140.35Z" fill="#0F054C"/>
</g>
</g>
<path opacity="0.4" d="M35.9367 142.565C28.7111 142.565 21.4795 140.957 15.9794 137.74C10.6292 134.608 7.6814 130.444 7.6814 126.007C7.6814 121.57 10.6292 117.406 15.9794 114.274C26.9856 107.84 44.8878 107.84 55.8939 114.274C61.2442 117.406 64.192 121.57 64.192 126.007C64.192 130.444 61.2442 134.608 55.8939 137.74L55.84 137.649L55.8939 137.74C50.3939 140.957 43.1623 142.565 35.9367 142.565ZM35.9367 109.649C28.7471 109.649 21.5574 111.251 16.0813 114.45C10.7969 117.539 7.89109 121.643 7.89109 126.001C7.89109 130.359 10.8029 134.462 16.0813 137.552C27.0275 143.955 44.8399 143.955 55.7861 137.552C61.0705 134.462 63.9763 130.359 63.9763 126.001C63.9763 121.643 61.0645 117.539 55.7861 114.45C50.31 111.251 43.1203 109.649 35.9307 109.649H35.9367Z" fill="#42E8E0"/>
<path opacity="0.2" d="M35.9367 147.003C26.7639 147.003 17.5911 144.963 10.6112 140.878C3.82895 136.909 0.090332 131.628 0.090332 126.007C0.090332 120.386 3.82895 115.099 10.6112 111.136C24.5771 102.966 47.2963 102.966 61.2622 111.136C68.0445 115.106 71.7831 120.386 71.7831 126.007C71.7831 131.628 68.0445 136.915 61.2622 140.878C54.2823 144.963 45.1095 147.003 35.9367 147.003ZM35.9367 105.212C26.7999 105.212 17.669 107.245 10.713 111.312C3.99671 115.245 0.30003 120.459 0.30003 126.007C0.30003 131.555 3.99671 136.769 10.719 140.696C24.625 148.83 47.2544 148.83 61.1604 140.696C67.8767 136.769 71.5794 131.549 71.5794 126.007C71.5794 120.465 67.8827 115.245 61.1604 111.318C54.2044 107.251 45.0735 105.218 35.9367 105.218V105.212Z" fill="#42E8E0"/>
<path d="M35.9368 139.069C30.239 139.069 24.5472 137.801 20.2094 135.264C15.9855 132.793 13.6669 129.503 13.6669 126.001C13.6669 122.499 15.9915 119.209 20.2094 116.738C28.879 111.664 42.9946 111.664 51.6641 116.738C55.8821 119.209 58.2067 122.499 58.2067 126.001C58.2067 129.503 55.8821 132.793 51.6641 135.264C47.3264 137.801 41.6346 139.069 35.9368 139.069ZM35.9368 113.145C30.2809 113.145 24.6191 114.408 20.3113 116.927C16.1593 119.355 13.8706 122.578 13.8706 126.007C13.8706 129.431 16.1593 132.654 20.3113 135.088C28.9269 140.126 42.9467 140.126 51.5623 135.088C55.7143 132.66 58.003 129.437 58.003 126.007C58.003 122.578 55.7143 119.361 51.5623 116.927C47.2545 114.408 41.5986 113.145 35.9368 113.145Z" fill="#42E8E0"/>
<path d="M35.9368 130.268C35.1279 130.268 34.3191 130.086 33.702 129.728L21.8511 122.796C21.234 122.438 20.8984 121.952 20.8984 121.43C20.8984 120.908 21.2399 120.423 21.8511 120.065L33.702 113.133C34.9362 112.41 36.9373 112.41 38.1716 113.133L50.0225 120.065C50.6396 120.423 50.9751 120.908 50.9751 121.43C50.9751 121.952 50.6336 122.438 50.0225 122.796L38.1716 129.728C37.5544 130.086 36.7456 130.268 35.9368 130.268ZM35.9368 112.799C35.1639 112.799 34.391 112.969 33.8038 113.315L21.9529 120.247C21.4077 120.568 21.1021 120.987 21.1021 121.43C21.1021 121.873 21.4017 122.292 21.9529 122.614L33.8038 129.546C34.9782 130.232 36.8894 130.232 38.0637 129.546L49.9146 122.614C50.4599 122.292 50.7654 121.873 50.7654 121.43C50.7654 120.987 50.4659 120.568 49.9146 120.247L38.0637 113.315C37.4766 112.969 36.7037 112.799 35.9308 112.799H35.9368Z" fill="#42E8E0"/>
<path opacity="0.4" d="M51.3466 118.766V114.656L50.6036 114.238C50.3939 115.524 48.9021 116.368 47.6559 116.544L39.1661 121.576L35.4575 122.93L23.6305 116.744L23.9061 116.587C22.8936 116.107 22.3483 115.014 21.8031 114.013L21.0063 114.492L20.533 114.626V118.808C20.533 119.342 20.8805 119.876 21.5755 120.277L33.4264 127.209C34.8164 128.022 37.0691 128.022 38.4591 127.209L50.3101 120.277C50.9931 119.876 51.3406 119.354 51.3526 118.832C51.3526 118.808 51.3526 118.784 51.3526 118.76L51.3466 118.766Z" fill="#42E8E0"/>
<path d="M51.3466 115.111V112.392L50.6036 111.973C50.3939 113.26 48.9021 114.104 47.6559 114.28L39.1661 119.312L35.4575 120.665L23.6305 114.48L23.9061 114.322C22.8936 113.843 22.3483 112.75 21.8031 111.749L21.0063 112.228L20.533 112.362V115.154C20.533 115.688 20.8805 116.222 21.5755 116.623L33.4264 123.555C34.8164 124.368 37.0691 124.368 38.4591 123.555L50.3101 116.623C50.9931 116.222 51.3406 115.7 51.3526 115.178C51.3526 115.154 51.3526 115.13 51.3526 115.105L51.3466 115.111Z" fill="url(#paint6_linear_34_18553)"/>
<path opacity="0.3" d="M47.6559 114.28L39.1661 119.312L35.9427 120.489V124.168C36.8534 124.168 37.7641 123.967 38.4591 123.561L50.3101 116.629C50.9931 116.228 51.3406 115.706 51.3525 115.184C51.3525 115.16 51.3525 115.136 51.3525 115.111V112.392L50.6755 112.01H50.6036C50.37 113.272 48.8961 114.104 47.6619 114.28H47.6559Z" fill="#0F054C"/>
<path d="M33.4205 120.799L21.5696 113.867C20.1796 113.054 20.1796 111.737 21.5696 110.923L33.4205 103.992C34.8105 103.178 37.0633 103.178 38.4533 103.992L50.3042 110.923C51.6942 111.737 51.6942 113.054 50.3042 113.867L38.4533 120.799C37.0633 121.612 34.8105 121.612 33.4205 120.799Z" fill="url(#paint7_linear_34_18553)"/>
<path d="M35.9367 119.537C35.2058 119.537 34.4748 119.373 33.9176 119.051L24.661 113.637C24.1038 113.309 23.7982 112.872 23.7982 112.392C23.7982 111.919 24.1038 111.476 24.661 111.154L33.9176 105.74C35.032 105.09 36.8414 105.09 37.9558 105.74L47.2125 111.154C47.7697 111.482 48.0753 111.919 48.0753 112.398C48.0753 112.878 47.7697 113.315 47.2125 113.637L37.9558 119.051C37.3986 119.379 36.6677 119.537 35.9367 119.537ZM34.0195 118.869C35.074 119.488 36.7935 119.488 37.848 118.869L47.1047 113.455C47.5959 113.169 47.8656 112.793 47.8656 112.398C47.8656 112.004 47.5959 111.628 47.1047 111.342L37.848 105.928C36.7935 105.309 35.074 105.309 34.0195 105.928L24.7628 111.342C24.2715 111.628 24.0019 112.004 24.0019 112.398C24.0019 112.793 24.2715 113.169 24.7628 113.461L34.0195 118.875V118.869Z" fill="#5351AF"/>
<path d="M50.304 113.861L38.453 120.793C37.0631 121.606 34.8103 121.606 33.4203 120.793L21.5694 113.861C20.9463 113.497 20.6048 113.036 20.5389 112.556C20.455 113.145 20.8025 113.746 21.5694 114.195L33.4203 121.127C34.8103 121.94 37.0631 121.94 38.453 121.127L50.304 114.195C51.0709 113.746 51.4124 113.139 51.3345 112.556C51.2686 113.03 50.9271 113.497 50.304 113.861Z" fill="white"/>
<g opacity="0.3">
<path d="M73.2571 66.2126V63.4933L72.5142 63.0744C72.3045 64.3613 70.8126 65.205 69.5664 65.381L61.0766 70.4129L57.368 71.7665L45.541 65.5813L45.8166 65.4235C44.8041 64.944 44.2589 63.8514 43.7136 62.8499L42.9168 63.3294L42.4435 63.4629V66.2551C42.4435 66.7892 42.791 67.3233 43.486 67.724L55.3369 74.6558C56.7269 75.4691 58.9797 75.4691 60.3697 74.6558L72.2206 67.724C72.9036 67.3233 73.2511 66.8013 73.2631 66.2793C73.2631 66.2551 73.2631 66.2308 73.2631 66.2065L73.2571 66.2126Z" fill="url(#paint8_linear_34_18553)"/>
<path opacity="0.3" d="M69.5664 65.3751L61.0766 70.407L57.8533 71.5846V75.2629C58.764 75.2629 59.6746 75.0626 60.3696 74.6559L72.2206 67.7242C72.9036 67.3235 73.2511 66.8015 73.2631 66.2795C73.2631 66.2552 73.2631 66.231 73.2631 66.2067V63.4874L72.586 63.105H72.5142C72.2805 64.3675 70.8066 65.1991 69.5724 65.3751H69.5664Z" fill="#0F054C"/>
<path d="M55.3308 71.8941L43.4799 64.9623C42.0899 64.1489 42.0899 62.8317 43.4799 62.0184L55.3308 55.0866C56.7208 54.2732 58.9736 54.2732 60.3636 55.0866L72.2145 62.0184C73.6045 62.8317 73.6045 64.1489 72.2145 64.9623L60.3636 71.8941C58.9736 72.7074 56.7208 72.7074 55.3308 71.8941Z" fill="url(#paint9_linear_34_18553)"/>
<g opacity="0.3">
<path d="M55.3308 71.8941L43.4799 64.9623C42.0899 64.1489 42.0899 62.8317 43.4799 62.0184L55.3308 55.0866C56.7208 54.2732 58.9736 54.2732 60.3636 55.0866L72.2145 62.0184C73.6045 62.8317 73.6045 64.1489 72.2145 64.9623L60.3636 71.8941C58.9736 72.7074 56.7208 72.7074 55.3308 71.8941Z" fill="#0F054C"/>
</g>
</g>
<path d="M57.8472 63.1536C57.0383 63.1536 56.2295 62.9715 55.6124 62.6133L43.7615 55.6815C43.1444 55.3234 42.8088 54.8378 42.8088 54.3158C42.8088 53.7938 43.1503 53.3082 43.7615 52.9501L55.6124 46.0183C56.8466 45.296 58.8477 45.296 60.082 46.0183L71.9329 52.9501C72.55 53.3082 72.8855 53.7938 72.8855 54.3158C72.8855 54.8378 72.544 55.3234 71.9329 55.6815L60.082 62.6133C59.4648 62.9715 58.656 63.1536 57.8472 63.1536ZM55.7142 62.4312C56.8886 63.1171 58.7998 63.1171 59.9741 62.4312L71.825 55.4994C72.3703 55.1777 72.6758 54.7589 72.6758 54.3158C72.6758 53.8727 72.3762 53.4539 71.825 53.1322L59.9741 46.2004C58.7998 45.5145 56.8886 45.5145 55.7142 46.2004L43.8633 53.1322C43.3121 53.4539 43.0125 53.8727 43.0125 54.3158C43.0125 54.7589 43.3121 55.1777 43.8633 55.4994L55.7142 62.4312Z" fill="#42E8E0"/>
<path opacity="0.4" d="M73.257 51.6573V47.548L72.514 47.1291C72.3043 48.4159 70.8125 49.2597 69.5663 49.4357L61.0765 54.4676L57.3679 55.8212L45.5409 49.636L45.8165 49.4782C44.804 48.9987 44.2587 47.9061 43.7135 46.9045L42.9167 47.3841L42.4434 47.5176V51.6997C42.4434 52.2339 42.7909 52.768 43.4859 53.1686L55.3368 60.1004C56.7268 60.9138 58.9795 60.9138 60.3695 60.1004L72.2205 53.1686C72.9035 52.768 73.251 52.246 73.263 51.724C73.263 51.6997 73.263 51.6755 73.263 51.6512L73.257 51.6573Z" fill="#42E8E0"/>
<path d="M73.257 48.0031V45.2838L72.514 44.865C72.3043 46.1518 70.8125 46.9955 69.5663 47.1715L61.0765 52.2034L57.3679 53.557L45.5409 47.3718L45.8165 47.214C44.804 46.7345 44.2587 45.6419 43.7135 44.6404L42.9167 45.1199L42.4434 45.2534V48.0456C42.4434 48.5797 42.7909 49.1139 43.4859 49.5145L55.3368 56.4463C56.7268 57.2596 58.9795 57.2596 60.3695 56.4463L72.2205 49.5145C72.9035 49.1139 73.251 48.5919 73.263 48.0699C73.263 48.0456 73.263 48.0213 73.263 47.997L73.257 48.0031Z" fill="url(#paint10_linear_34_18553)"/>
<path opacity="0.3" d="M69.5663 47.1656L61.0765 52.1976L57.8531 53.3751V57.0535C58.7638 57.0535 59.6745 56.8532 60.3695 56.4465L72.2205 49.5147C72.9035 49.1141 73.251 48.5921 73.2629 48.0701C73.2629 48.0458 73.2629 48.0215 73.2629 47.9972V45.2779L72.5859 44.8955H72.514C72.2804 46.158 70.8065 46.9896 69.5723 47.1656H69.5663Z" fill="#0F054C"/>
<path d="M55.3309 53.6846L43.48 46.7528C42.09 45.9394 42.09 44.6223 43.48 43.8089L55.3309 36.8771C56.7209 36.0637 58.9737 36.0637 60.3637 36.8771L72.2146 43.8089C73.6046 44.6223 73.6046 45.9394 72.2146 46.7528L60.3637 53.6846C58.9737 54.498 56.7209 54.498 55.3309 53.6846Z" fill="url(#paint11_linear_34_18553)"/>
<path d="M57.8471 52.428C57.1162 52.428 56.3852 52.2641 55.828 51.9424L46.5714 46.5281C46.0142 46.2003 45.7086 45.7632 45.7086 45.2837C45.7086 44.8103 46.0142 44.3672 46.5714 44.0455L55.828 38.6312C56.9424 37.9817 58.7518 37.9817 59.8662 38.6312L69.1229 44.0455C69.6801 44.3732 69.9857 44.8103 69.9857 45.2837C69.9857 45.7572 69.6801 46.2003 69.1229 46.522L59.8662 51.9363C59.309 52.2641 58.5781 52.4219 57.8471 52.4219V52.428ZM57.8471 38.3459C57.1521 38.3459 56.4631 38.4976 55.9359 38.8072L46.6792 44.2215C46.1879 44.5068 45.9183 44.8831 45.9183 45.2777C45.9183 45.6722 46.1879 46.0485 46.6792 46.3399L55.9359 51.7542C56.9904 52.3733 58.7099 52.3733 59.7644 51.7542L69.021 46.3399C69.5123 46.0546 69.7819 45.6783 69.7819 45.2837C69.7819 44.8892 69.5123 44.5129 69.021 44.2276L59.7644 38.8132C59.2371 38.5037 58.5421 38.3519 57.8471 38.3519V38.3459Z" fill="#5351AF"/>
<path d="M72.2144 46.7528L60.3635 53.6846C58.9735 54.4979 56.7207 54.4979 55.3307 53.6846L43.4798 46.7528C42.8567 46.3886 42.5152 45.9273 42.4493 45.4478C42.3654 46.0365 42.7129 46.6374 43.4798 47.0866L55.3307 54.0184C56.7207 54.8318 58.9735 54.8318 60.3635 54.0184L72.2144 47.0866C72.9813 46.6374 73.3228 46.0305 73.2449 45.4478C73.179 45.9212 72.8375 46.3886 72.2144 46.7528Z" fill="white"/>
<path d="M129.546 146.669C128.995 146.669 128.414 146.535 127.964 146.268L55.3128 103.773C54.8575 103.506 54.5939 103.142 54.5939 102.778C54.5939 102.468 54.7796 102.183 55.1211 101.988L98.4747 76.6285C99.1936 76.2097 100.458 76.2582 101.285 76.7438L173.936 119.239C174.391 119.506 174.655 119.87 174.655 120.234C174.655 120.544 174.469 120.829 174.128 121.024L130.774 146.383C130.445 146.578 130.007 146.669 129.546 146.669ZM55.4327 103.554L128.084 146.05C128.845 146.493 129.995 146.547 130.648 146.165L174.002 120.805C174.259 120.653 174.403 120.447 174.403 120.228C174.403 119.955 174.188 119.67 173.804 119.445L101.153 76.9502C100.392 76.5071 99.2416 76.4586 98.5885 76.8349L55.2349 102.195C54.9773 102.347 54.8335 102.553 54.8335 102.771C54.8335 103.045 55.0492 103.33 55.4327 103.554Z" fill="#42E8E0"/>
<path d="M174.529 112.884L170.527 112.301L101.219 71.7606C100.422 71.2932 99.2175 71.2446 98.5345 71.6452L57.254 95.7912L54.7136 95.4209V98.8383H54.7196C54.7196 99.1478 54.9413 99.4635 55.3727 99.7184L128.024 142.214C128.821 142.681 130.025 142.73 130.708 142.329L174.062 116.969C174.379 116.781 174.523 116.532 174.517 116.277H174.523V112.89L174.529 112.884Z" fill="url(#paint12_linear_34_18553)"/>
<path d="M55.3729 96.3253L128.024 138.82C128.821 139.288 130.025 139.336 130.708 138.936L174.062 113.576C174.751 113.175 174.667 112.471 173.87 112.004L101.219 69.5086C100.422 69.0412 99.2178 68.9927 98.5348 69.3933L55.1812 94.7532C54.4922 95.1538 54.5761 95.8579 55.3729 96.3253Z" fill="url(#paint13_linear_34_18553)"/>
<path opacity="0.3" d="M61.6636 97.1569L126.604 135.142C127.317 135.561 128.389 135.604 129.007 135.245L167.759 112.58C168.376 112.222 168.298 111.591 167.585 111.178L102.645 73.1931C101.932 72.7803 100.859 72.7318 100.242 73.0899L61.4899 95.7548C60.8727 96.1129 60.9506 96.7442 61.6636 97.1569Z" fill="#24126A"/>
<path d="M174.068 113.206L130.714 138.566C130.025 138.966 128.821 138.918 128.03 138.45L55.3788 95.9551C55.0313 95.7487 54.8275 95.4998 54.7556 95.251C54.6478 95.6091 54.8575 96.0158 55.3788 96.3253L128.03 138.821C128.827 139.288 130.031 139.336 130.714 138.936L174.068 113.576C174.457 113.351 174.589 113.03 174.499 112.708C174.439 112.896 174.301 113.066 174.068 113.206Z" fill="white"/>
<path d="M101.087 56.2581L110.272 1.0526L109.535 0.736968L110.643 0.0935617C110.859 -0.0460454 111.164 -0.0339056 111.5 0.16033L184.9 43.0925C185.505 43.4446 185.961 44.349 185.853 44.9803L176.596 100.623C176.548 100.914 176.404 101.102 176.207 101.187L175.122 101.825L174.937 100.799L174.996 100.817L102.04 58.1458C101.434 57.7938 100.979 56.8894 101.087 56.2581Z" fill="url(#paint14_linear_34_18553)"/>
<path d="M184.487 44.6039L185.691 44.0637C185.829 44.3794 185.895 44.7071 185.847 44.9863L176.59 100.629C176.542 100.92 176.398 101.108 176.201 101.193L175.116 101.831L174.931 100.805L174.99 100.823L171.3 98.6622L184.481 44.61L184.487 44.6039Z" fill="url(#paint15_linear_34_18553)"/>
<path d="M100.889 58.8136L174.289 101.746C174.859 102.08 175.344 101.885 175.44 101.291L184.696 45.648C184.804 45.0168 184.349 44.1124 183.744 43.7603L110.344 0.82809C109.774 0.494247 109.289 0.688483 109.193 1.28333L99.9365 56.9258C99.8287 57.5571 100.284 58.4615 100.889 58.8136Z" fill="#24126A"/>
<g opacity="0.51">
<path d="M110.098 1.86597L183.846 44.9803L174.529 100.762L100.835 57.6784L110.098 1.86597Z" fill="#453C9E"/>
</g>
<path d="M54.7495 85.1568L58.7577 87.2752L98.9239 63.7787C99.5949 63.3842 100.769 63.4328 101.548 63.888L170.82 104.41C171.485 104.034 174.505 102.565 174.505 102.565L173.037 104.981C172.977 105.151 172.845 105.315 172.63 105.442L130.325 130.183C129.654 130.578 128.479 130.529 127.7 130.074L56.8105 88.6106C56.493 88.4224 56.2953 88.1978 56.2174 87.9672L54.7615 85.1629L54.7495 85.1568Z" fill="url(#paint16_linear_34_18553)"/>
<path d="M55.3727 85.8246L128.024 128.32C128.821 128.787 130.025 128.836 130.708 128.435L174.062 103.075C174.751 102.675 174.667 101.97 173.87 101.503L101.219 59.0079C100.422 58.5405 99.2175 58.4919 98.5345 58.8926L55.181 84.2525C54.492 84.6531 54.5758 85.3572 55.3727 85.8246Z" fill="url(#paint17_linear_34_18553)"/>
<path d="M55.3727 85.8246L128.024 128.32C128.821 128.787 130.025 128.836 130.708 128.435L174.062 103.075C174.751 102.675 174.667 101.97 173.87 101.503L101.219 59.0079C100.422 58.5405 99.2175 58.4919 98.5345 58.8926L55.181 84.2525C54.492 84.6531 54.5758 85.3572 55.3727 85.8246Z" fill="#24126A"/>
<path opacity="0.51" d="M55.3727 85.8246L128.024 128.32C128.821 128.787 130.025 128.836 130.708 128.435L174.062 103.075C174.751 102.675 174.667 101.97 173.87 101.503L101.219 59.0079C100.422 58.5405 99.2175 58.4919 98.5345 58.8926L55.181 84.2525C54.492 84.6531 54.5758 85.3572 55.3727 85.8246Z" fill="#453C9E"/>
<g opacity="0.3">
<path style="mix-blend-mode:lighten" opacity="0.5" d="M55.3727 84.2584L128.024 126.754C128.821 127.221 130.025 127.27 130.708 126.869L174.062 101.509C174.751 101.108 174.667 100.404 173.87 99.9369L101.219 57.4417C100.422 56.9743 99.2175 56.9258 98.5345 57.3264L55.181 82.6863C54.492 83.0869 54.5758 83.791 55.3727 84.2584Z" fill="url(#paint18_radial_34_18553)"/>
<path d="M143.973 128.423V123.634L142.667 122.899C142.295 125.157 139.671 126.644 137.478 126.954L122.536 135.804L116.017 138.189L95.2032 127.306L95.6826 127.027C93.9031 126.183 92.9445 124.259 91.9859 122.505L90.5839 123.348L89.7511 123.585V128.496C89.7511 129.436 90.3622 130.371 91.5845 131.087L112.434 143.282C114.873 144.708 118.851 144.708 121.29 143.282L142.14 131.087C143.338 130.383 143.949 129.467 143.973 128.544C143.973 128.502 143.973 128.459 143.973 128.423Z" fill="url(#paint19_linear_34_18553)"/>
<path opacity="0.3" d="M137.478 126.954L122.536 135.804L116.862 137.88V144.35C118.468 144.35 120.067 143.992 121.29 143.282L142.14 131.088C143.338 130.383 143.949 129.467 143.973 128.544C143.973 128.502 143.973 128.459 143.973 128.423V123.64L142.781 122.966H142.655C142.247 125.188 139.653 126.65 137.478 126.96V126.954Z" fill="#0F054C"/>
<path d="M95.6825 127.033L115.442 115.476C116.221 115.021 117.497 115.021 118.276 115.476L137.688 126.833L137.472 126.96C139.665 126.651 142.289 125.163 142.661 122.905L120.87 110.626L114.531 108.927L109.367 111.998L91.9739 122.505C92.9385 124.259 93.8971 126.189 95.6706 127.027L95.6825 127.033Z" fill="url(#paint20_linear_34_18553)"/>
<path opacity="0.3" d="M116.862 109.546L114.537 108.92L109.373 111.992L91.98 122.499C92.9446 124.253 93.9032 126.183 95.6767 127.021L115.436 115.464C115.826 115.233 116.341 115.118 116.856 115.124V109.54L116.862 109.546Z" fill="#0F054C"/>
<path d="M112.434 138.42L91.5845 126.225C89.14 124.799 89.14 122.474 91.5845 121.048L112.434 108.854C114.873 107.427 118.851 107.427 121.29 108.854L142.14 121.048C144.578 122.474 144.584 124.799 142.14 126.225L121.29 138.42C118.845 139.846 114.873 139.846 112.434 138.42ZM118.282 110.608C117.503 110.152 116.227 110.152 115.448 110.608L94.5981 122.802C93.8192 123.257 93.8192 124.004 94.5981 124.459L115.448 136.654C116.227 137.109 117.503 137.109 118.282 136.654L139.132 124.459C139.911 124.004 139.911 123.257 139.132 122.802L118.282 110.608Z" fill="#5351AF"/>
<path d="M139.132 122.808L118.282 110.614C117.503 110.159 116.227 110.159 115.448 110.614L94.5981 122.808C94.0769 123.112 93.9031 123.543 94.0769 123.937C94.1667 123.743 94.3345 123.561 94.5981 123.403L115.448 111.209C116.227 110.754 117.503 110.754 118.282 111.209L139.132 123.403C139.39 123.555 139.563 123.737 139.653 123.931C139.827 123.543 139.653 123.112 139.132 122.802V122.808Z" fill="white"/>
<path d="M142.14 126.226L121.29 138.42C118.845 139.846 114.873 139.846 112.434 138.42L91.5845 126.226C90.4941 125.588 89.8889 124.769 89.7751 123.931C89.6313 124.963 90.2364 126.031 91.5845 126.82L112.434 139.015C114.873 140.441 118.851 140.441 121.29 139.015L142.14 126.82C143.488 126.031 144.093 124.969 143.949 123.931C143.835 124.769 143.23 125.582 142.14 126.226Z" fill="white"/>
<path d="M113.022 138.08L92.1717 125.886C90.0567 124.648 90.0567 122.632 92.1717 121.394L113.022 109.2C115.137 107.961 118.582 107.961 120.697 109.2L141.547 121.394C143.661 122.632 143.661 124.648 141.547 125.886L120.697 138.08C118.582 139.318 115.137 139.318 113.022 138.08ZM118.869 110.268C117.761 109.619 115.963 109.619 114.855 110.268L94.005 122.462C92.8966 123.112 92.8966 124.162 94.005 124.811L114.855 137.006C115.963 137.655 117.761 137.655 118.869 137.006L139.719 124.811C140.828 124.162 140.828 123.112 139.719 122.462L118.869 110.268Z" fill="url(#paint21_linear_34_18553)"/>
<path opacity="0.4" d="M118.282 110.608C117.503 110.153 116.227 110.153 115.448 110.608L94.5982 122.802C93.8193 123.257 93.8193 124.004 94.5982 124.459L115.448 136.654C116.227 137.109 117.503 137.109 118.282 136.654L139.132 124.459C139.911 124.004 139.911 123.257 139.132 122.802L118.282 110.608Z" fill="#42E8E0"/>
<path opacity="0.4" d="M143.973 124.156V116.92L142.667 116.186C142.295 118.444 139.671 119.931 137.478 120.24L122.536 129.09L116.017 131.476L95.2032 120.593L95.6826 120.313C93.9031 119.47 92.9445 117.545 91.9859 115.791L90.5839 116.635L89.7511 116.872V124.228C89.7511 125.169 90.3622 126.104 91.5845 126.82L112.434 139.015C114.873 140.441 118.851 140.441 121.29 139.015L142.14 126.82C143.338 126.116 143.949 125.2 143.973 124.277C143.973 124.234 143.973 124.192 143.973 124.156Z" fill="#42E8E0"/>
<path d="M143.973 117.727V112.938L142.667 112.204C142.295 114.462 139.671 115.949 137.478 116.259L122.536 125.108L116.017 127.494L95.2032 116.611L95.6826 116.331C93.9031 115.488 92.9445 113.564 91.9859 111.809L90.5839 112.653L89.7511 112.89V117.8C89.7511 118.741 90.3622 119.676 91.5845 120.392L112.434 132.586C114.873 134.013 118.851 134.013 121.29 132.586L142.14 120.392C143.338 119.688 143.949 118.771 143.973 117.849C143.973 117.806 143.973 117.764 143.973 117.727Z" fill="url(#paint22_linear_34_18553)"/>
<path opacity="0.3" d="M137.478 116.259L122.536 125.109L116.862 127.184V133.655C118.468 133.655 120.067 133.297 121.29 132.587L142.14 120.392C143.338 119.688 143.949 118.772 143.973 117.849C143.973 117.806 143.973 117.764 143.973 117.728V112.945L142.781 112.271H142.655C142.247 114.492 139.653 115.955 137.478 116.265V116.259Z" fill="#0F054C"/>
<path d="M95.6825 116.332L115.442 104.774C116.221 104.319 117.497 104.319 118.276 104.774L137.688 116.131L137.472 116.259C139.665 115.949 142.289 114.462 142.661 112.204L120.87 99.9247L114.531 98.2251L109.367 101.296L91.9739 111.803C92.9385 113.558 93.8971 115.488 95.6706 116.325L95.6825 116.332Z" fill="url(#paint23_linear_34_18553)"/>
<path opacity="0.3" d="M116.862 98.8503L114.537 98.2251L109.373 101.296L91.98 111.803C92.9446 113.558 93.9032 115.488 95.6767 116.325L115.436 104.768C115.826 104.538 116.341 104.422 116.856 104.428V98.8442L116.862 98.8503Z" fill="#0F054C"/>
<path d="M112.434 127.725L91.5845 115.53C89.14 114.104 89.14 111.779 91.5845 110.353L112.434 98.1582C114.873 96.7318 118.851 96.7318 121.29 98.1582L142.14 110.353C144.578 111.779 144.584 114.104 142.14 115.53L121.29 127.725C118.845 129.151 114.873 129.151 112.434 127.725ZM118.282 99.9124C117.503 99.4571 116.227 99.4571 115.448 99.9124L94.5981 112.107C93.8192 112.562 93.8192 113.309 94.5981 113.764L115.448 125.958C116.227 126.413 117.503 126.413 118.282 125.958L139.132 113.764C139.911 113.309 139.911 112.562 139.132 112.107L118.282 99.9124Z" fill="#5351AF"/>
<path d="M139.132 112.107L118.282 99.9125C117.503 99.4572 116.227 99.4572 115.448 99.9125L94.5981 112.107C94.0769 112.41 93.9031 112.847 94.0769 113.236C94.1667 113.042 94.3345 112.86 94.5981 112.702L115.448 100.507C116.227 100.052 117.503 100.052 118.282 100.507L139.132 112.702C139.39 112.853 139.563 113.036 139.653 113.23C139.827 112.841 139.653 112.41 139.132 112.101V112.107Z" fill="white"/>
<path d="M142.14 115.53L121.29 127.725C118.845 129.151 114.873 129.151 112.434 127.725L91.5845 115.53C90.4941 114.893 89.8889 114.073 89.7751 113.236C89.6313 114.268 90.2364 115.336 91.5845 116.125L112.434 128.319C114.873 129.746 118.851 129.746 121.29 128.319L142.14 116.125C143.488 115.336 144.093 114.274 143.949 113.236C143.835 114.073 143.23 114.887 142.14 115.53Z" fill="white"/>
<path d="M113.022 127.379L92.1717 115.184C90.0567 113.946 90.0567 111.931 92.1717 110.693L113.022 98.4983C115.137 97.26 118.582 97.26 120.697 98.4983L141.547 110.693C143.661 111.931 143.661 113.946 141.547 115.184L120.697 127.379C118.582 128.617 115.137 128.617 113.022 127.379ZM118.869 99.5666C117.761 98.9171 115.963 98.9171 114.855 99.5666L94.005 111.761C92.8966 112.41 92.8966 113.461 94.005 114.11L114.855 126.304C115.963 126.954 117.761 126.954 118.869 126.304L139.719 114.11C140.828 113.461 140.828 112.41 139.719 111.761L118.869 99.5666Z" fill="url(#paint24_linear_34_18553)"/>
<path opacity="0.4" d="M118.282 99.9125C117.503 99.4572 116.227 99.4572 115.448 99.9125L94.5982 112.107C93.8193 112.562 93.8193 113.309 94.5982 113.764L115.448 125.958C116.227 126.414 117.503 126.414 118.282 125.958L139.132 113.764C139.911 113.309 139.911 112.562 139.132 112.107L118.282 99.9125Z" fill="#42E8E0"/>
<path opacity="0.4" d="M143.973 113.46V106.225L142.667 105.491C142.295 107.749 139.671 109.236 137.478 109.545L122.536 118.395L116.017 120.781L95.2032 109.897L95.6826 109.618C93.9031 108.775 92.9445 106.85 91.9859 105.096L90.5839 105.94L89.7511 106.177V113.533C89.7511 114.474 90.3622 115.409 91.5845 116.125L112.434 128.32C114.873 129.746 118.851 129.746 121.29 128.32L142.14 116.125C143.338 115.421 143.949 114.504 143.973 113.582C143.973 113.539 143.973 113.497 143.973 113.46Z" fill="#42E8E0"/>
<path d="M143.973 107.026V102.237L142.667 101.503C142.295 103.761 139.671 105.248 137.478 105.557L122.536 114.407L116.017 116.793L95.2032 105.909L95.6826 105.63C93.9031 104.786 92.9445 102.862 91.9859 101.108L90.5839 101.952L89.7511 102.189V107.099C89.7511 108.04 90.3622 108.975 91.5845 109.691L112.434 121.885C114.873 123.312 118.851 123.312 121.29 121.885L142.14 109.691C143.338 108.987 143.949 108.07 143.973 107.148C143.973 107.105 143.973 107.063 143.973 107.026Z" fill="url(#paint25_linear_34_18553)"/>
<path opacity="0.3" d="M137.478 105.564L122.536 114.413L116.862 116.489V122.96C118.468 122.96 120.067 122.602 121.29 121.892L142.14 109.697C143.338 108.993 143.949 108.077 143.973 107.154C143.973 107.111 143.973 107.069 143.973 107.033V102.249L142.781 101.576H142.655C142.247 103.797 139.653 105.26 137.478 105.57V105.564Z" fill="#0F054C"/>
<path d="M95.6825 105.636L115.442 94.0794C116.221 93.6242 117.497 93.6242 118.276 94.0794L137.688 105.436L137.472 105.564C139.665 105.254 142.289 103.767 142.661 101.509L120.87 89.2296L114.531 87.53L109.367 90.6014L91.9739 101.108C92.9385 102.863 93.8971 104.793 95.6706 105.63L95.6825 105.636Z" fill="url(#paint26_linear_34_18553)"/>
<path opacity="0.3" d="M116.862 88.1552L114.537 87.53L109.373 90.6014L91.98 101.108C92.9446 102.863 93.9032 104.793 95.6767 105.63L115.436 94.0734C115.826 93.8427 116.341 93.7334 116.856 93.7334V88.1492L116.862 88.1552Z" fill="#0F054C"/>
<path d="M112.434 117.029L91.5845 104.835C89.14 103.409 89.14 101.084 91.5845 99.6575L112.434 87.4631C114.873 86.0367 118.851 86.0367 121.29 87.4631L142.14 99.6575C144.578 101.084 144.584 103.409 142.14 104.835L121.29 117.029C118.845 118.456 114.873 118.456 112.434 117.029ZM118.282 89.2173C117.503 88.7621 116.227 88.7621 115.448 89.2173L94.5981 101.412C93.8192 101.867 93.8192 102.614 94.5981 103.069L115.448 115.263C116.227 115.718 117.503 115.718 118.282 115.263L139.132 103.069C139.911 102.614 139.911 101.867 139.132 101.412L118.282 89.2173Z" fill="#5351AF"/>
<path d="M139.132 101.412L118.282 89.2174C117.503 88.7622 116.227 88.7622 115.448 89.2174L94.5981 101.412C94.0769 101.715 93.9031 102.152 94.0769 102.541C94.1667 102.347 94.3345 102.164 94.5981 102.007L115.448 89.8123C116.227 89.357 117.503 89.357 118.282 89.8123L139.132 102.007C139.39 102.158 139.563 102.34 139.653 102.535C139.827 102.146 139.653 101.715 139.132 101.406V101.412Z" fill="white"/>
<path d="M142.14 104.835L121.29 117.03C118.845 118.456 114.873 118.456 112.434 117.03L91.5845 104.835C90.4941 104.198 89.8889 103.378 89.7751 102.541C89.6313 103.573 90.2364 104.641 91.5845 105.43L112.434 117.624C114.873 119.051 118.851 119.051 121.29 117.624L142.14 105.43C143.488 104.641 144.093 103.579 143.949 102.541C143.835 103.378 143.23 104.192 142.14 104.835Z" fill="white"/>
<path d="M113.022 116.684L92.1717 104.489C90.0567 103.251 90.0567 101.236 92.1717 99.9976L113.022 87.8032C115.137 86.5649 118.582 86.5649 120.697 87.8032L141.547 99.9976C143.661 101.236 143.661 103.251 141.547 104.489L120.697 116.684C118.582 117.922 115.137 117.922 113.022 116.684ZM118.869 88.8715C117.761 88.222 115.963 88.222 114.855 88.8715L94.005 101.066C92.8966 101.715 92.8966 102.765 94.005 103.415L114.855 115.609C115.963 116.259 117.761 116.259 118.869 115.609L139.719 103.415C140.828 102.765 140.828 101.715 139.719 101.066L118.869 88.8715Z" fill="url(#paint27_linear_34_18553)"/>
<path opacity="0.4" d="M118.282 89.2174C117.503 88.7622 116.227 88.7622 115.448 89.2174L94.5982 101.412C93.8193 101.867 93.8193 102.614 94.5982 103.069L115.448 115.263C116.227 115.718 117.503 115.718 118.282 115.263L139.132 103.069C139.911 102.614 139.911 101.867 139.132 101.412L118.282 89.2174Z" fill="#42E8E0"/>
<path opacity="0.4" d="M143.973 102.759V95.524L142.667 94.7896C142.295 97.0476 139.671 98.5347 137.478 98.8442L122.536 107.694L116.017 110.08L95.2032 99.1963L95.6826 98.9171C93.9031 98.0734 92.9445 96.1492 91.9859 94.395L90.5839 95.2387L89.7511 95.4755V102.832C89.7511 103.773 90.3622 104.708 91.5845 105.424L112.434 117.618C114.873 119.045 118.851 119.045 121.29 117.618L142.14 105.424C143.338 104.72 143.949 103.803 143.973 102.881C143.973 102.838 143.973 102.796 143.973 102.759Z" fill="#42E8E0"/>
<path d="M143.973 96.3312V91.5421L142.667 90.8076C142.295 93.0656 139.671 94.5527 137.478 94.8623L122.536 103.712L116.017 106.098L95.2032 95.2144L95.6826 94.9351C93.9031 94.0914 92.9445 92.1673 91.9859 90.4131L90.5839 91.2568L89.7511 91.4935V96.4041C89.7511 97.3449 90.3622 98.2796 91.5845 98.9959L112.434 111.19C114.873 112.617 118.851 112.617 121.29 111.19L142.14 98.9959C143.338 98.2918 143.949 97.3752 143.973 96.4526C143.973 96.4101 143.973 96.3676 143.973 96.3312Z" fill="url(#paint28_linear_34_18553)"/>
<path opacity="0.3" d="M137.478 94.8685L122.536 103.718L116.862 105.794V112.265C118.468 112.265 120.067 111.907 121.29 111.196L142.14 99.0021C143.338 98.298 143.949 97.3815 143.973 96.4588C143.973 96.4163 143.973 96.3739 143.973 96.3374V91.5544L142.781 90.8806H142.655C142.247 93.1022 139.653 94.565 137.478 94.8746V94.8685Z" fill="#0F054C"/>
<path d="M95.6825 94.9414L115.442 83.3843C116.221 82.9291 117.497 82.9291 118.276 83.3843L137.688 94.7411L137.472 94.8685C139.665 94.559 142.289 93.0719 142.661 90.8139L120.87 78.5345L114.531 76.835L109.367 79.9063L91.9739 90.4133C92.9385 92.1675 93.8971 94.0977 95.6706 94.9353L95.6825 94.9414Z" fill="url(#paint29_linear_34_18553)"/>
<path opacity="0.3" d="M116.862 77.4602L114.537 76.835L109.373 79.9063L91.98 90.4133C92.9446 92.1675 93.9032 94.0977 95.6767 94.9353L115.436 83.3783C115.826 83.1476 116.341 83.0323 116.856 83.0384V77.4541L116.862 77.4602Z" fill="#0F054C"/>
<path d="M112.434 106.334L91.5845 94.14C89.14 92.7136 89.14 90.3888 91.5845 88.9624L112.434 76.7681C114.873 75.3416 118.851 75.3416 121.29 76.7681L142.14 88.9624C144.578 90.3888 144.584 92.7136 142.14 94.14L121.29 106.334C118.845 107.761 114.873 107.761 112.434 106.334ZM118.282 78.5222C117.503 78.067 116.227 78.067 115.448 78.5222L94.5981 90.7166C93.8192 91.1719 93.8192 91.9185 94.5981 92.3737L115.448 104.568C116.227 105.023 117.503 105.023 118.282 104.568L139.132 92.3737C139.911 91.9185 139.911 91.1719 139.132 90.7166L118.282 78.5222Z" fill="url(#paint30_linear_34_18553)"/>
<path d="M139.132 90.7167L118.282 78.5223C117.503 78.0671 116.227 78.0671 115.448 78.5223L94.5981 90.7167C94.0769 91.0202 93.9031 91.4572 94.0769 91.8457C94.1667 91.6515 94.3345 91.4694 94.5981 91.3116L115.448 79.1172C116.227 78.6619 117.503 78.6619 118.282 79.1172L139.132 91.3116C139.39 91.4633 139.563 91.6454 139.653 91.8396C139.827 91.4512 139.653 91.0202 139.132 90.7106V90.7167Z" fill="white"/>
<path d="M142.14 94.134L121.29 106.328C118.845 107.755 114.873 107.755 112.434 106.328L91.5845 94.134C90.4941 93.4967 89.8889 92.6772 89.7751 91.8396C89.6313 92.8715 90.2364 93.9398 91.5845 94.7289L112.434 106.923C114.873 108.35 118.851 108.35 121.29 106.923L142.14 94.7289C143.488 93.9398 144.093 92.8775 143.949 91.8396C143.835 92.6772 143.23 93.4906 142.14 94.134Z" fill="white"/>
<path d="M113.022 105.989L92.1717 93.7942C90.0567 92.556 90.0567 90.5408 92.1717 89.3025L113.022 77.1081C115.137 75.8699 118.582 75.8699 120.697 77.1081L141.547 89.3025C143.661 90.5408 143.661 92.556 141.547 93.7942L120.697 105.989C118.582 107.227 115.137 107.227 113.022 105.989ZM118.869 78.1764C117.761 77.527 115.963 77.527 114.855 78.1764L94.005 90.3708C92.8966 91.0203 92.8966 92.0704 94.005 92.7198L114.855 104.914C115.963 105.564 117.761 105.564 118.869 104.914L139.719 92.7198C140.828 92.0704 140.828 91.0203 139.719 90.3708L118.869 78.1764Z" fill="url(#paint31_linear_34_18553)"/>
<path opacity="0.4" d="M118.282 78.5223C117.503 78.0671 116.227 78.0671 115.448 78.5223L94.5982 90.7167C93.8193 91.172 93.8193 91.9185 94.5982 92.3738L115.448 104.568C116.227 105.023 117.503 105.023 118.282 104.568L139.132 92.3738C139.911 91.9185 139.911 91.172 139.132 90.7167L118.282 78.5223Z" fill="#42E8E0"/>
</g>
<path style="mix-blend-mode:lighten" opacity="0.8" d="M129.54 127.318C128.983 127.318 128.402 127.178 127.934 126.905L55.2829 84.4101C54.8095 84.1309 54.5399 83.7545 54.5399 83.3721C54.5399 83.0444 54.7376 82.7469 55.0911 82.5406L98.4447 57.1806C99.1936 56.7436 100.446 56.7922 101.303 57.296L173.954 99.7911C174.427 100.07 174.697 100.447 174.697 100.829C174.697 101.157 174.499 101.454 174.146 101.661L130.792 127.021C130.451 127.221 130.001 127.318 129.534 127.318H129.54ZM55.4566 84.1127L128.108 126.608C128.857 127.045 129.983 127.093 130.624 126.723L173.978 101.363C174.152 101.26 174.355 101.09 174.355 100.829C174.355 100.568 174.146 100.301 173.78 100.089L101.129 57.5934C100.38 57.1564 99.2535 57.1078 98.6124 57.4781L55.2589 82.838C55.0851 82.9412 54.8814 83.1111 54.8814 83.3721C54.8814 83.6331 55.0911 83.9002 55.4566 84.1127Z" fill="url(#paint32_linear_34_18553)"/>
<path d="M55.3727 85.4967L128.024 127.992C128.821 128.459 130.019 128.508 130.708 128.107L174.062 102.747C174.301 102.608 174.445 102.426 174.499 102.231C174.577 102.541 174.439 102.857 174.062 103.075L130.708 128.435C130.019 128.836 128.815 128.787 128.024 128.32L55.3727 85.8245C54.8575 85.521 54.6478 85.1204 54.7436 84.7683C54.8095 85.0232 55.0132 85.2843 55.3727 85.4967Z" fill="white"/>
<g opacity="0.15">
<path d="M100.799 58.4554L104.807 60.5738L144.973 37.0773C145.644 36.6828 146.819 36.7313 147.598 37.1866L216.87 77.7091C217.535 77.3327 220.555 75.8577 220.555 75.8577L219.087 78.2735C219.027 78.4435 218.895 78.6074 218.679 78.7349L176.374 103.476C175.703 103.87 174.529 103.822 173.75 103.366L102.86 61.9031C102.543 61.7149 102.345 61.4904 102.267 61.2597L100.811 58.4554H100.799Z" fill="url(#paint33_linear_34_18553)"/>
<path d="M101.422 59.1232L174.074 101.618C174.87 102.086 176.075 102.134 176.758 101.734L220.111 76.3737C220.8 75.9731 220.716 75.269 219.92 74.8016L147.268 32.3065C146.471 31.8391 145.267 31.7905 144.584 32.1911L101.231 57.5511C100.542 57.9517 100.625 58.6558 101.422 59.1232Z" fill="url(#paint34_linear_34_18553)"/>
<path d="M101.422 59.1232L174.074 101.618C174.87 102.086 176.075 102.134 176.758 101.734L220.111 76.3737C220.8 75.9731 220.716 75.269 219.92 74.8016L147.268 32.3065C146.471 31.8391 145.267 31.7905 144.584 32.1911L101.231 57.5511C100.542 57.9517 100.625 58.6558 101.422 59.1232Z" fill="#24126A"/>
<path opacity="0.51" d="M101.422 59.1232L174.074 101.618C174.87 102.086 176.075 102.134 176.758 101.734L220.111 76.3737C220.8 75.9731 220.716 75.269 219.92 74.8016L147.268 32.3065C146.471 31.8391 145.267 31.7905 144.584 32.1911L101.231 57.5511C100.542 57.9517 100.625 58.6558 101.422 59.1232Z" fill="#453C9E"/>
<path d="M219.92 74.8016L147.268 32.3064C146.759 32.009 146.076 31.8815 145.471 31.9362C145.92 31.9726 146.37 32.094 146.729 32.3064L219.38 74.8016C220.177 75.269 220.261 75.9731 219.572 76.3737L176.219 101.734C175.973 101.879 175.661 101.958 175.326 101.989C175.853 102.031 176.38 101.952 176.752 101.734L220.105 76.3737C220.794 75.9731 220.711 75.269 219.914 74.8016H219.92Z" fill="white"/>
<path opacity="0.4" d="M154.961 83.1839L134.111 70.9895C131.996 69.7513 131.996 67.7361 134.111 66.4978L154.961 54.3034C157.076 53.0652 160.521 53.0652 162.636 54.3034L183.486 66.4978C185.601 67.7361 185.601 69.7513 183.486 70.9895L162.636 83.1839C160.521 84.4221 157.076 84.4221 154.961 83.1839Z" fill="#24126A"/>
<path d="M185.865 65.3022V60.513L184.559 59.7786C184.187 62.0366 181.563 63.5237 179.37 63.8333L164.428 72.6831L157.909 75.0686L137.095 64.1853L137.574 63.9061C135.795 63.0624 134.836 61.1382 133.878 59.384L132.476 60.2277L131.643 60.4645V65.375C131.643 66.3158 132.254 67.2506 133.476 67.9668L154.326 80.1612C156.765 81.5876 160.743 81.5876 163.181 80.1612L184.031 67.9668C185.23 67.2627 185.841 66.3462 185.865 65.4236C185.865 65.3811 185.865 65.3386 185.865 65.3022Z" fill="url(#paint35_linear_34_18553)"/>
<path opacity="0.3" d="M179.37 63.8395L164.428 72.6893L158.754 74.7652V81.2357C160.36 81.2357 161.959 80.8776 163.182 80.1674L184.031 67.9731C185.23 67.2689 185.841 66.3524 185.865 65.4298C185.865 65.3873 185.865 65.3448 185.865 65.3084V60.5253L184.673 59.8516H184.547C184.139 62.0731 181.545 63.536 179.37 63.8455V63.8395Z" fill="#0F054C"/>
<path d="M137.574 63.9123L157.334 52.3553C158.113 51.9001 159.389 51.9001 160.168 52.3553L179.58 63.712L179.364 63.8395C181.557 63.5299 184.181 62.0428 184.553 59.7848L162.762 47.5055L156.423 45.8059L151.259 48.8773L133.866 59.3842C134.83 61.1384 135.789 63.0686 137.562 63.9063L137.574 63.9123Z" fill="url(#paint36_linear_34_18553)"/>
<path opacity="0.3" d="M158.754 46.4311L156.429 45.8059L151.265 48.8773L133.872 59.3842C134.836 61.1384 135.795 63.0686 137.568 63.9063L157.328 52.3492C157.717 52.1186 158.232 52.0093 158.748 52.0093V46.425L158.754 46.4311Z" fill="#0F054C"/>
<path d="M154.326 75.3053L133.476 63.111C131.032 61.6846 131.032 59.3598 133.476 57.9334L154.326 45.739C156.765 44.3126 160.743 44.3126 163.181 45.739L184.031 57.9334C186.47 59.3598 186.47 61.6846 184.031 63.111L163.181 75.3053C160.737 76.7318 156.765 76.7318 154.326 75.3053ZM160.174 47.4932C159.395 47.038 158.119 47.038 157.34 47.4932L136.49 59.6876C135.711 60.1428 135.711 60.8894 136.49 61.3446L157.34 73.539C158.119 73.9943 159.395 73.9943 160.174 73.539L181.024 61.3446C181.803 60.8894 181.803 60.1428 181.024 59.6876L160.174 47.4932Z" fill="#5351AF"/>
<path d="M181.024 59.6877L160.174 47.4933C159.395 47.038 158.119 47.038 157.34 47.4933L136.49 59.6877C135.968 59.9912 135.795 60.4282 135.968 60.8167C136.058 60.6224 136.226 60.4403 136.49 60.2886L157.34 48.0942C158.119 47.639 159.395 47.639 160.174 48.0942L181.024 60.2886C181.281 60.4403 181.455 60.6224 181.545 60.8167C181.719 60.4282 181.545 59.9972 181.024 59.6877Z" fill="white"/>
<path d="M184.037 63.1111L163.187 75.3054C160.743 76.7319 156.771 76.7319 154.332 75.3054L133.482 63.1111C132.392 62.4737 131.787 61.6543 131.673 60.8167C131.529 61.8485 132.134 62.9168 133.482 63.7059L154.332 75.9003C156.771 77.3267 160.749 77.3267 163.187 75.9003L184.037 63.7059C185.385 62.9168 185.991 61.8546 185.847 60.8167C185.733 61.6543 185.128 62.4677 184.037 63.1111Z" fill="white"/>
<path d="M154.919 74.9595L134.069 62.7652C131.954 61.5269 131.954 59.5117 134.069 58.2735L154.919 46.0791C157.034 44.8408 160.479 44.8408 162.594 46.0791L183.444 58.2735C185.559 59.5117 185.559 61.5269 183.444 62.7652L162.594 74.9595C160.479 76.1978 157.034 76.1978 154.919 74.9595ZM160.767 47.1474C159.659 46.4979 157.861 46.4979 156.753 47.1474L135.903 59.3418C134.794 59.9912 134.794 61.0413 135.903 61.6908L156.753 73.8852C157.861 74.5346 159.659 74.5346 160.767 73.8852L181.617 61.6908C182.725 61.0413 182.725 59.9912 181.617 59.3418L160.767 47.1474Z" fill="url(#paint37_linear_34_18553)"/>
<path opacity="0.4" d="M160.174 47.4933C159.395 47.038 158.119 47.038 157.34 47.4933L136.49 59.6877C135.711 60.1429 135.711 60.8895 136.49 61.3447L157.34 73.5391C158.119 73.9944 159.395 73.9944 160.174 73.5391L181.024 61.3447C181.803 60.8895 181.803 60.1429 181.024 59.6877L160.174 47.4933Z" fill="#42E8E0"/>
<path opacity="0.4" d="M185.865 61.0413V53.806L184.559 53.0715C184.187 55.3295 181.563 56.8167 179.37 57.1262L164.428 65.9761L157.909 68.3616L137.095 57.4783L137.574 57.1991C135.795 56.3553 134.836 54.4312 133.878 52.677L132.476 53.5207L131.643 53.7574V61.1141C131.643 62.055 132.254 62.9897 133.476 63.706L154.326 75.9003C156.765 77.3268 160.743 77.3268 163.181 75.9003L184.031 63.706C185.23 63.0019 185.841 62.0853 185.865 61.1627C185.865 61.1202 185.865 61.0777 185.865 61.0413Z" fill="#42E8E0"/>
<path d="M185.865 54.6071V49.818L184.559 49.0835C184.187 51.3415 181.563 52.8286 179.37 53.1382L164.428 61.9881L157.909 64.3735L137.095 53.4902L137.574 53.211C135.795 52.3673 134.836 50.4432 133.878 48.689L132.476 49.5327L131.643 49.7694V54.6799C131.643 55.6147 132.254 56.5555 133.476 57.2718L154.326 69.4661C156.765 70.8926 160.743 70.8926 163.181 69.4661L184.031 57.2718C185.23 56.5677 185.841 55.6511 185.865 54.7285C185.865 54.686 185.865 54.6435 185.865 54.6071Z" fill="url(#paint38_linear_34_18553)"/>
<path opacity="0.3" d="M179.37 53.1444L164.428 61.9943L158.754 64.0702V70.5407C160.36 70.5407 161.959 70.1825 163.182 69.4724L184.031 57.278C185.23 56.5739 185.841 55.6573 185.865 54.7347C185.865 54.6922 185.865 54.6497 185.865 54.6133V49.8302L184.673 49.1565H184.547C184.139 51.3781 181.545 52.8409 179.37 53.1505V53.1444Z" fill="#0F054C"/>
<path d="M137.574 53.2173L157.334 41.6602C158.113 41.205 159.389 41.205 160.168 41.6602L179.58 53.017L179.364 53.1444C181.557 52.8349 184.181 51.3477 184.553 49.0898L162.762 36.8104L156.423 35.1108L151.259 38.1822L133.866 48.6891C134.83 50.4433 135.789 52.3736 137.562 53.2112L137.574 53.2173Z" fill="url(#paint39_linear_34_18553)"/>
<path opacity="0.3" d="M158.754 35.736L156.429 35.1108L151.265 38.1822L133.872 48.6891C134.836 50.4433 135.795 52.3736 137.568 53.2112L157.328 41.6542C157.717 41.4235 158.232 41.3082 158.748 41.3142V35.73L158.754 35.736Z" fill="#0F054C"/>
<path d="M154.326 64.6103L133.476 52.4159C131.032 50.9895 131.032 48.6647 133.476 47.2383L154.326 35.0439C156.765 33.6175 160.743 33.6175 163.181 35.0439L184.031 47.2383C186.47 48.6647 186.47 50.9895 184.031 52.4159L163.181 64.6103C160.737 66.0367 156.765 66.0367 154.326 64.6103ZM160.174 36.7981C159.395 36.3429 158.119 36.3429 157.34 36.7981L136.49 48.9925C135.711 49.4477 135.711 50.1943 136.49 50.6496L157.34 62.844C158.119 63.2992 159.395 63.2992 160.174 62.844L181.024 50.6496C181.803 50.1943 181.803 49.4477 181.024 48.9925L160.174 36.7981Z" fill="#5351AF"/>
<path d="M181.024 48.9926L160.174 36.7982C159.395 36.343 158.119 36.343 157.34 36.7982L136.49 48.9926C135.968 49.2961 135.795 49.727 135.968 50.1216C136.058 49.9274 136.226 49.7453 136.49 49.5935L157.34 37.3991C158.119 36.9439 159.395 36.9439 160.174 37.3991L181.024 49.5935C181.281 49.7453 181.455 49.9274 181.545 50.1216C181.719 49.7331 181.545 49.3022 181.024 48.9926Z" fill="white"/>
<path d="M184.037 52.4099L163.187 64.6043C160.743 66.0307 156.771 66.0307 154.332 64.6043L133.482 52.4099C132.392 51.7726 131.787 50.9531 131.673 50.1155C131.529 51.1474 132.134 52.2157 133.482 53.0047L154.332 65.1991C156.771 66.6255 160.749 66.6255 163.187 65.1991L184.037 53.0047C185.385 52.2157 185.991 51.1534 185.847 50.1155C185.733 50.9531 185.128 51.7665 184.037 52.4099Z" fill="white"/>
<path d="M154.919 64.2645L134.069 52.0701C131.954 50.8318 131.954 48.8166 134.069 47.5784L154.919 35.384C157.034 34.1458 160.479 34.1458 162.594 35.384L183.444 47.5784C185.559 48.8166 185.559 50.8318 183.444 52.0701L162.594 64.2645C160.479 65.5027 157.034 65.5027 154.919 64.2645ZM160.767 36.4523C159.659 35.8028 157.861 35.8028 156.753 36.4523L135.903 48.6467C134.794 49.2962 134.794 50.3463 135.903 50.9957L156.753 63.1901C157.861 63.8396 159.659 63.8396 160.767 63.1901L181.617 50.9957C182.725 50.3463 182.725 49.2962 181.617 48.6467L160.767 36.4523Z" fill="url(#paint40_linear_34_18553)"/>
<path opacity="0.4" d="M160.174 36.7982C159.395 36.343 158.119 36.343 157.34 36.7982L136.49 48.9926C135.711 49.4478 135.711 50.1944 136.49 50.6497L157.34 62.844C158.119 63.2993 159.395 63.2993 160.174 62.844L181.024 50.6497C181.803 50.1944 181.803 49.4478 181.024 48.9926L160.174 36.7982Z" fill="#42E8E0"/>
<path opacity="0.4" d="M185.865 50.3399V43.1046L184.559 42.3701C184.187 44.6281 181.563 46.1152 179.37 46.4248L164.428 55.2747L157.909 57.6601L137.095 46.7769L137.574 46.4976C135.795 45.6539 134.836 43.7298 133.878 41.9756L132.476 42.8193L131.643 43.056V50.4127C131.643 51.3535 132.254 52.2883 133.476 53.0045L154.326 65.1989C156.765 66.6253 160.743 66.6253 163.181 65.1989L184.031 53.0045C185.23 52.3004 185.841 51.3839 185.865 50.4613C185.865 50.4188 185.865 50.3763 185.865 50.3399Z" fill="#42E8E0"/>
<path d="M185.865 43.9118V39.1226L184.559 38.3882C184.187 40.6462 181.563 42.1333 179.37 42.4429L164.428 51.2927L157.909 53.6782L137.095 42.7949L137.574 42.5157C135.795 41.672 134.836 39.7478 133.878 37.9937L132.476 38.8374L131.643 39.0741V43.9846C131.643 44.9254 132.254 45.8602 133.476 46.5765L154.326 58.7708C156.765 60.1972 160.743 60.1972 163.181 58.7708L184.031 46.5765C185.23 45.8723 185.841 44.9558 185.865 44.0332C185.865 43.9907 185.865 43.9482 185.865 43.9118Z" fill="url(#paint41_linear_34_18553)"/>
<path opacity="0.3" d="M179.37 42.443L164.428 51.2929L158.754 53.3688V59.8392C160.36 59.8392 161.959 59.4811 163.182 58.7709L184.031 46.5766C185.23 45.8725 185.841 44.9559 185.865 44.0333C185.865 43.9908 185.865 43.9483 185.865 43.9119V39.1288L184.673 38.4551H184.547C184.139 40.6767 181.545 42.1395 179.37 42.4491V42.443Z" fill="#0F054C"/>
<path d="M137.574 42.522L157.334 30.9649C158.113 30.5097 159.389 30.5097 160.168 30.9649L179.58 42.3217L179.364 42.4491C181.557 42.1396 184.181 40.6524 184.553 38.3944L162.762 26.1151L156.423 24.4155L151.259 27.4869L133.866 37.9938C134.83 39.748 135.789 41.6782 137.562 42.5159L137.574 42.522Z" fill="url(#paint42_linear_34_18553)"/>
<path opacity="0.3" d="M158.754 25.0346L156.429 24.4094L151.265 27.4808L133.872 37.9877C134.836 39.7419 135.795 41.6721 137.568 42.5098L157.328 30.9527C157.717 30.7221 158.232 30.6128 158.748 30.6128V25.0286L158.754 25.0346Z" fill="#0F054C"/>
<path d="M154.326 53.9089L133.476 41.7145C131.032 40.2881 131.032 37.9633 133.476 36.5369L154.326 24.3425C156.765 22.9161 160.743 22.9161 163.181 24.3425L184.031 36.5369C186.47 37.9633 186.47 40.2881 184.031 41.7145L163.181 53.9089C160.737 55.3353 156.765 55.3353 154.326 53.9089ZM160.174 26.0967C159.395 25.6415 158.119 25.6415 157.34 26.0967L136.49 38.2911C135.711 38.7463 135.711 39.4929 136.49 39.9482L157.34 52.1425C158.119 52.5978 159.395 52.5978 160.174 52.1425L181.024 39.9482C181.803 39.4929 181.803 38.7463 181.024 38.2911L160.174 26.0967Z" fill="#5351AF"/>
<path d="M181.024 38.2973L160.174 26.1029C159.395 25.6477 158.119 25.6477 157.34 26.1029L136.49 38.2973C135.968 38.6008 135.795 39.0317 135.968 39.4263C136.058 39.232 136.226 39.0499 136.49 38.8982L157.34 26.7038C158.119 26.2486 159.395 26.2486 160.174 26.7038L181.024 38.8982C181.281 39.0499 181.455 39.232 181.545 39.4263C181.719 39.0378 181.545 38.6068 181.024 38.2973Z" fill="white"/>
<path d="M184.037 41.7146L163.187 53.9089C160.743 55.3354 156.771 55.3354 154.332 53.9089L133.482 41.7146C132.392 41.0772 131.787 40.2578 131.673 39.4202C131.529 40.452 132.134 41.5203 133.482 42.3094L154.332 54.5038C156.771 55.9302 160.749 55.9302 163.187 54.5038L184.037 42.3094C185.385 41.5203 185.991 40.4581 185.847 39.4202C185.733 40.2578 185.128 41.0712 184.037 41.7146Z" fill="white"/>
<path d="M154.919 53.5692L134.069 41.3748C131.954 40.1365 131.954 38.1213 134.069 36.8831L154.919 24.6887C157.034 23.4504 160.479 23.4504 162.594 24.6887L183.444 36.8831C185.559 38.1213 185.559 40.1365 183.444 41.3748L162.594 53.5692C160.479 54.8074 157.034 54.8074 154.919 53.5692ZM160.767 25.757C159.659 25.1075 157.861 25.1075 156.753 25.757L135.903 37.9514C134.794 38.6009 134.794 39.6509 135.903 40.3004L156.753 52.4948C157.861 53.1443 159.659 53.1443 160.767 52.4948L181.617 40.3004C182.725 39.6509 182.725 38.6009 181.617 37.9514L160.767 25.757Z" fill="url(#paint43_linear_34_18553)"/>
<path opacity="0.4" d="M160.174 26.0968C159.395 25.6416 158.119 25.6416 157.34 26.0968L136.49 38.2912C135.711 38.7464 135.711 39.493 136.49 39.9482L157.34 52.1426C158.119 52.5979 159.395 52.5979 160.174 52.1426L181.024 39.9482C181.803 39.493 181.803 38.7464 181.024 38.2912L160.174 26.0968Z" fill="#42E8E0"/>
<path opacity="0.4" d="M185.865 39.6448V32.4095L184.559 31.6751C184.187 33.9331 181.563 35.4202 179.37 35.7297L164.428 44.5796L157.909 46.9651L137.095 36.0818L137.574 35.8026C135.795 34.9589 134.836 33.0347 133.878 31.2805L132.476 32.1242L131.643 32.361V39.7176C131.643 40.6585 132.254 41.5932 133.476 42.3095L154.326 54.5039C156.765 55.9303 160.743 55.9303 163.181 54.5039L184.031 42.3095C185.23 41.6054 185.841 40.6888 185.865 39.7662C185.865 39.7237 185.865 39.6812 185.865 39.6448Z" fill="#42E8E0"/>
<path d="M185.865 33.2167V28.4276L184.559 27.6931C184.187 29.9511 181.563 31.4382 179.37 31.7478L164.428 40.5977L157.909 42.9831L137.095 32.0999L137.574 31.8206C135.795 30.9769 134.836 29.0528 133.878 27.2986L132.476 28.1423L131.643 28.379V33.2895C131.643 34.2243 132.254 35.1651 133.476 35.8814L154.326 48.0758C156.765 49.5022 160.743 49.5022 163.181 48.0758L184.031 35.8814C185.23 35.1773 185.841 34.2607 185.865 33.3381C185.865 33.2956 185.865 33.2531 185.865 33.2167Z" fill="url(#paint44_linear_34_18553)"/>
<path opacity="0.3" d="M179.37 31.7479L164.428 40.5978L158.754 42.6737V49.1442C160.36 49.1442 161.959 48.786 163.182 48.0759L184.031 35.8815C185.23 35.1774 185.841 34.2608 185.865 33.3382C185.865 33.2957 185.865 33.2532 185.865 33.2168V28.4338L184.673 27.76H184.547C184.139 29.9816 181.545 31.4444 179.37 31.754V31.7479Z" fill="#0F054C"/>
<path d="M137.574 31.8208L157.334 20.2637C158.113 19.8085 159.389 19.8085 160.168 20.2637L179.58 31.6205L179.364 31.7479C181.557 31.4384 184.181 29.9513 184.553 27.6933L162.762 15.4139L156.423 13.7144L151.259 16.7857L133.866 27.2927C134.83 29.0469 135.789 30.9771 137.562 31.8147L137.574 31.8208Z" fill="url(#paint45_linear_34_18553)"/>
<path opacity="0.3" d="M158.754 14.3396L156.429 13.7144L151.265 16.7857L133.872 27.2927C134.836 29.0469 135.795 30.9771 137.568 31.8147L157.328 20.2577C157.717 20.027 158.232 19.9117 158.748 19.9178V14.3335L158.754 14.3396Z" fill="#0F054C"/>
<path d="M154.326 43.2138L133.476 31.0194C131.032 29.593 131.032 27.2682 133.476 25.8418L154.326 13.6475C156.765 12.221 160.743 12.221 163.181 13.6475L184.031 25.8418C186.47 27.2682 186.47 29.593 184.031 31.0194L163.181 43.2138C160.737 44.6402 156.765 44.6402 154.326 43.2138ZM160.174 15.4016C159.395 14.9464 158.119 14.9464 157.34 15.4016L136.49 27.596C135.711 28.0513 135.711 28.7979 136.49 29.2531L157.34 41.4475C158.119 41.9027 159.395 41.9027 160.174 41.4475L181.024 29.2531C181.803 28.7979 181.803 28.0513 181.024 27.596L160.174 15.4016Z" fill="url(#paint46_linear_34_18553)"/>
<path d="M181.024 27.6022L160.174 15.4078C159.395 14.9526 158.119 14.9526 157.34 15.4078L136.49 27.6022C135.968 27.9057 135.795 28.3367 135.968 28.7312C136.058 28.537 136.226 28.3549 136.49 28.1971L157.34 16.0027C158.119 15.5474 159.395 15.5474 160.174 16.0027L181.024 28.1971C181.281 28.3488 181.455 28.5309 181.545 28.7312C181.719 28.3427 181.545 27.9118 181.024 27.6022Z" fill="white"/>
<path d="M184.037 31.0195L163.187 43.2139C160.743 44.6403 156.771 44.6403 154.332 43.2139L133.482 31.0195C132.392 30.3822 131.787 29.5627 131.673 28.7251C131.529 29.757 132.134 30.8253 133.482 31.6144L154.332 43.8087C156.771 45.2351 160.749 45.2351 163.187 43.8087L184.037 31.6144C185.385 30.8253 185.991 29.763 185.847 28.7251C185.733 29.5627 185.128 30.3761 184.037 31.0195Z" fill="white"/>
<path d="M154.919 42.868L134.069 30.6736C131.954 29.4354 131.954 27.4202 134.069 26.1819L154.919 13.9875C157.034 12.7493 160.479 12.7493 162.594 13.9875L183.444 26.1819C185.559 27.4202 185.559 29.4354 183.444 30.6736L162.594 42.868C160.479 44.1062 157.034 44.1062 154.919 42.868ZM160.767 15.0558C159.659 14.4063 157.861 14.4063 156.753 15.0558L135.903 27.2502C134.794 27.8997 134.794 28.9498 135.903 29.5992L156.753 41.7936C157.861 42.4431 159.659 42.4431 160.767 41.7936L181.617 29.5992C182.725 28.9498 182.725 27.8997 181.617 27.2502L160.767 15.0558Z" fill="url(#paint47_linear_34_18553)"/>
<path opacity="0.4" d="M160.174 15.4017C159.395 14.9465 158.119 14.9465 157.34 15.4017L136.49 27.5961C135.711 28.0513 135.711 28.7979 136.49 29.2532L157.34 41.4476C158.119 41.9028 159.395 41.9028 160.174 41.4476L181.024 29.2532C181.803 28.7979 181.803 28.0513 181.024 27.5961L160.174 15.4017Z" fill="#42E8E0"/>
</g>
<path d="M171.39 47.6873C171.216 47.6873 171.03 47.6327 170.85 47.5295C170.305 47.2139 169.97 46.4916 170.096 45.921C170.155 45.6479 170.317 45.4415 170.545 45.3383C170.796 45.229 171.108 45.2594 171.402 45.4293C171.947 45.745 172.282 46.4673 172.157 47.0379C172.097 47.311 171.935 47.5174 171.707 47.6206C171.611 47.6631 171.503 47.6873 171.39 47.6873ZM170.868 45.5265C170.791 45.5265 170.719 45.5386 170.647 45.569C170.491 45.6357 170.383 45.7814 170.335 45.9756C170.227 46.443 170.515 47.0439 170.97 47.311C171.192 47.4385 171.42 47.4688 171.605 47.3899C171.761 47.3231 171.869 47.1775 171.917 46.9832C172.025 46.5159 171.737 45.9149 171.282 45.6479C171.144 45.569 171 45.5265 170.868 45.5265Z" fill="#42E8E0"/>
<path d="M174.325 49.4051C174.151 49.4051 173.966 49.3505 173.786 49.2473C173.241 48.9317 172.905 48.2094 173.031 47.6388C173.091 47.3656 173.253 47.1593 173.48 47.0561C173.732 46.9468 174.044 46.9772 174.337 47.1471C174.882 47.4628 175.218 48.1851 175.092 48.7556C175.032 49.0288 174.87 49.2352 174.643 49.3383C174.547 49.3808 174.439 49.4051 174.325 49.4051ZM173.804 47.2442C173.726 47.2442 173.654 47.2564 173.582 47.2867C173.426 47.3535 173.319 47.4992 173.271 47.6934C173.163 48.1608 173.45 48.7617 173.906 49.0288C174.127 49.1562 174.355 49.1866 174.541 49.1077C174.697 49.0409 174.805 48.8952 174.852 48.701C174.96 48.2336 174.673 47.6327 174.217 47.3656C174.08 47.2867 173.936 47.2442 173.804 47.2442Z" fill="#42E8E0"/>
<path d="M177.914 50.4491C177.794 50.9711 177.291 51.1532 176.788 50.8558C176.285 50.5644 175.973 49.9028 176.093 49.3808C176.213 48.8588 176.716 48.6767 177.219 48.9741C177.722 49.2655 178.034 49.9271 177.914 50.4491Z" fill="#42E8E0"/>
<path d="M121.601 17.6234L120.031 16.7008L120.151 15.9663L121.727 16.8829L121.601 17.6234Z" fill="#42E8E0"/>
<path d="M123.884 18.9586L122.314 18.036L122.44 17.3015L124.01 18.2181L123.884 18.9586Z" fill="#42E8E0"/>
<path d="M119.342 16.3002L115.897 14.285L116.023 13.5505L119.462 15.5657L119.342 16.3002Z" fill="#42E8E0"/>
<path opacity="0.8" d="M112.896 106.766L91.3329 94.1525C89.146 92.8718 89.146 90.7898 91.3329 89.5091L112.896 76.8959C115.083 75.6151 118.648 75.6151 120.834 76.8959L142.397 89.5091C144.584 90.7898 144.584 92.8718 142.397 94.1525L120.834 106.766C118.648 108.046 115.083 108.046 112.896 106.766Z" fill="#24126A"/>
<path d="M143.973 88.8959V84.1068L142.667 83.3723C142.296 85.6303 139.671 87.1174 137.478 87.427L122.536 96.2769L116.017 98.6623L95.2034 87.7791L95.6827 87.4998C93.9032 86.6561 92.9446 84.732 91.986 82.9778L90.584 83.8215L89.7512 84.0582V88.9688C89.7512 89.9096 90.3623 90.8443 91.5846 91.5606L112.435 103.755C114.873 105.181 118.851 105.181 121.29 103.755L142.14 91.5606C143.338 90.8565 143.949 89.9399 143.973 89.0173C143.973 88.9748 143.973 88.9323 143.973 88.8959Z" fill="url(#paint48_linear_34_18553)"/>
<path opacity="0.3" d="M137.479 87.4332L122.536 96.2831L116.862 98.359V104.829C118.468 104.829 120.068 104.471 121.29 103.761L142.14 91.5668C143.338 90.8627 143.949 89.9461 143.973 89.0235C143.973 88.981 143.973 88.9386 143.973 88.9021V84.1191L142.781 83.4453H142.655C142.248 85.6669 139.653 87.1297 137.479 87.4393V87.4332Z" fill="#0F054C"/>
<path d="M95.6827 87.5058L115.442 75.9488C116.221 75.4936 117.497 75.4936 118.276 75.9488L137.688 87.3055L137.472 87.433C139.665 87.1234 142.29 85.6363 142.661 83.3783L120.87 71.099L114.532 69.3994L109.367 72.4708L91.974 82.9777C92.9386 84.7319 93.8972 86.6621 95.6707 87.4998L95.6827 87.5058Z" fill="url(#paint49_linear_34_18553)"/>
<path opacity="0.3" d="M116.862 70.0188L114.538 69.3936L109.373 72.4649L91.9801 82.9719C92.9447 84.7261 93.9033 86.6563 95.6768 87.4939L115.436 75.9369C115.826 75.7062 116.341 75.5909 116.856 75.597V70.0127L116.862 70.0188Z" fill="#0F054C"/>
<path d="M112.435 98.8991L91.5846 86.7047C89.1401 85.2783 89.1401 82.9535 91.5846 81.5271L112.435 69.3328C114.873 67.9063 118.851 67.9063 121.29 69.3328L142.14 81.5271C144.578 82.9535 144.584 85.2783 142.14 86.7047L121.29 98.8991C118.845 100.326 114.873 100.326 112.435 98.8991ZM118.282 71.0869C117.503 70.6317 116.227 70.6317 115.448 71.0869L94.5982 83.2813C93.8194 83.7366 93.8194 84.4832 94.5982 84.9384L115.448 97.1328C116.227 97.588 117.503 97.588 118.282 97.1328L139.132 84.9384C139.911 84.4832 139.911 83.7366 139.132 83.2813L118.282 71.0869Z" fill="#5351AF"/>
<path d="M139.132 83.2812L118.282 71.0868C117.503 70.6316 116.227 70.6316 115.448 71.0868L94.5983 83.2812C94.077 83.5847 93.9032 84.0156 94.077 84.4102C94.1669 84.2159 94.3346 84.0338 94.5983 83.876L115.448 71.6816C116.227 71.2264 117.503 71.2264 118.282 71.6816L139.132 83.876C139.39 84.0278 139.563 84.2099 139.653 84.4041C139.827 84.0156 139.653 83.5847 139.132 83.2751V83.2812Z" fill="white"/>
<path d="M142.14 86.6987L121.29 98.8931C118.845 100.319 114.873 100.319 112.435 98.8931L91.5846 86.6987C90.4942 86.0614 89.8891 85.2419 89.7752 84.4043C89.6314 85.4362 90.2366 86.5045 91.5846 87.2936L112.435 99.4879C114.873 100.914 118.851 100.914 121.29 99.4879L142.14 87.2936C143.488 86.5045 144.093 85.4422 143.949 84.4043C143.835 85.2419 143.23 86.0553 142.14 86.6987Z" fill="white"/>
<path d="M113.022 98.5533L92.1718 86.3589C90.0568 85.1207 90.0568 83.1055 92.1718 81.8672L113.022 69.6728C115.137 68.4346 118.582 68.4346 120.697 69.6728L141.547 81.8672C143.662 83.1055 143.662 85.1207 141.547 86.3589L120.697 98.5533C118.582 99.7915 115.137 99.7915 113.022 98.5533ZM118.869 70.7411C117.761 70.0917 115.964 70.0917 114.855 70.7411L94.0051 82.9355C92.8967 83.585 92.8967 84.6351 94.0051 85.2845L114.855 97.4789C115.964 98.1284 117.761 98.1284 118.869 97.4789L139.719 85.2845C140.828 84.6351 140.828 83.585 139.719 82.9355L118.869 70.7411Z" fill="url(#paint50_linear_34_18553)"/>
<path opacity="0.4" d="M118.282 71.0868C117.503 70.6316 116.227 70.6316 115.448 71.0868L94.5983 83.2812C93.8194 83.7364 93.8194 84.483 94.5983 84.9382L115.448 97.1326C116.227 97.5879 117.503 97.5879 118.282 97.1326L139.132 84.9382C139.911 84.483 139.911 83.7364 139.132 83.2812L118.282 71.0868Z" fill="#42E8E0"/>
<path opacity="0.4" d="M143.973 84.6287V77.3934L142.667 76.6589C142.296 78.9169 139.671 80.4041 137.478 80.7136L122.536 89.5635L116.017 91.949L95.2034 81.0657L95.6827 80.7865C93.9032 79.9427 92.9446 78.0186 91.986 76.2644L90.584 77.1081L89.7512 77.3448V84.7015C89.7512 85.6424 90.3623 86.5771 91.5846 87.2934L112.435 99.4877C114.873 100.914 118.851 100.914 121.29 99.4877L142.14 87.2934C143.338 86.5893 143.949 85.6727 143.973 84.7501C143.973 84.7076 143.973 84.6651 143.973 84.6287Z" fill="#42E8E0"/>
<path d="M143.973 78.2006V73.4115L142.667 72.677C142.296 74.935 139.671 76.4221 137.478 76.7317L122.536 85.5816L116.017 87.967L95.2034 77.0837L95.6827 76.8045C93.9032 75.9608 92.9446 74.0367 91.986 72.2825L90.584 73.1262L89.7512 73.3629V78.2734C89.7512 79.2143 90.3623 80.149 91.5846 80.8653L112.435 93.0596C114.873 94.4861 118.851 94.4861 121.29 93.0596L142.14 80.8653C143.338 80.1612 143.949 79.2446 143.973 78.322C143.973 78.2795 143.973 78.237 143.973 78.2006Z" fill="url(#paint51_linear_34_18553)"/>
<path opacity="0.3" d="M137.479 76.7318L122.536 85.5817L116.862 87.6576V94.1281C118.468 94.1281 120.068 93.7699 121.29 93.0598L142.14 80.8654C143.338 80.1613 143.949 79.2447 143.973 78.3221C143.973 78.2796 143.973 78.2371 143.973 78.2007V73.4177L142.781 72.7439H142.655C142.248 74.9655 139.653 76.4283 137.479 76.7379V76.7318Z" fill="#0F054C"/>
<path d="M95.6827 76.8105L115.442 65.2535C116.221 64.7983 117.497 64.7983 118.276 65.2535L137.688 76.6102L137.472 76.7377C139.665 76.4281 142.29 74.941 142.661 72.683L120.87 60.4037L114.532 58.7041L109.367 61.7755L91.974 72.2824C92.9386 74.0366 93.8972 75.9668 95.6707 76.8045L95.6827 76.8105Z" fill="url(#paint52_linear_34_18553)"/>
<path opacity="0.3" d="M116.862 59.3234L114.538 58.6982L109.373 61.7696L91.9801 72.2765C92.9447 74.0307 93.9033 75.961 95.6768 76.7986L115.436 65.2416C115.826 65.0109 116.341 64.9017 116.856 64.9017V59.3174L116.862 59.3234Z" fill="#0F054C"/>
<path d="M112.435 88.1977L91.5846 76.0033C89.1401 74.5769 89.1401 72.2521 91.5846 70.8257L112.435 58.6313C114.873 57.2049 118.851 57.2049 121.29 58.6313L142.14 70.8257C144.578 72.2521 144.584 74.5769 142.14 76.0033L121.29 88.1977C118.845 89.6241 114.873 89.6241 112.435 88.1977ZM118.282 60.3855C117.503 59.9303 116.227 59.9303 115.448 60.3855L94.5982 72.5799C93.8194 73.0351 93.8194 73.7817 94.5982 74.237L115.448 86.4314C116.227 86.8866 117.503 86.8866 118.282 86.4314L139.132 74.237C139.911 73.7817 139.911 73.0351 139.132 72.5799L118.282 60.3855Z" fill="#5351AF"/>
<path d="M139.132 72.5859L118.282 60.3915C117.503 59.9362 116.227 59.9362 115.448 60.3915L94.5983 72.5859C94.077 72.8893 93.9032 73.3264 94.077 73.7149C94.1669 73.5206 94.3346 73.3385 94.5983 73.1807L115.448 60.9863C116.227 60.5311 117.503 60.5311 118.282 60.9863L139.132 73.1807C139.39 73.3324 139.563 73.5145 139.653 73.7088C139.827 73.3203 139.653 72.8893 139.132 72.5798V72.5859Z" fill="white"/>
<path d="M142.14 76.0034L121.29 88.1978C118.845 89.6242 114.873 89.6242 112.435 88.1978L91.5846 76.0034C90.4942 75.3661 89.8891 74.5466 89.7752 73.709C89.6314 74.7409 90.2366 75.8092 91.5846 76.5982L112.435 88.7926C114.873 90.219 118.851 90.219 121.29 88.7926L142.14 76.5982C143.488 75.8092 144.093 74.7469 143.949 73.709C143.835 74.5466 143.23 75.36 142.14 76.0034Z" fill="white"/>
<path d="M113.022 87.858L92.1718 75.6636C90.0568 74.4253 90.0568 72.4101 92.1718 71.1719L113.022 58.9775C115.137 57.7393 118.582 57.7393 120.697 58.9775L141.547 71.1719C143.662 72.4101 143.662 74.4253 141.547 75.6636L120.697 87.858C118.582 89.0962 115.137 89.0962 113.022 87.858ZM118.869 60.0458C117.761 59.3963 115.964 59.3963 114.855 60.0458L94.0051 72.2402C92.8967 72.8897 92.8967 73.9398 94.0051 74.5892L114.855 86.7836C115.964 87.4331 117.761 87.4331 118.869 86.7836L139.719 74.5892C140.828 73.9398 140.828 72.8897 139.719 72.2402L118.869 60.0458Z" fill="url(#paint53_linear_34_18553)"/>
<path opacity="0.4" d="M118.282 60.3856C117.503 59.9304 116.227 59.9304 115.448 60.3856L94.5983 72.58C93.8194 73.0352 93.8194 73.7818 94.5983 74.2371L115.448 86.4314C116.227 86.8867 117.503 86.8867 118.282 86.4314L139.132 74.2371C139.911 73.7818 139.911 73.0352 139.132 72.58L118.282 60.3856Z" fill="#42E8E0"/>
<path opacity="0.4" d="M143.973 73.9336V66.6983L142.667 65.9639C142.296 68.2219 139.671 69.709 137.478 70.0186L122.536 78.8684L116.017 81.2539L95.2034 70.3706L95.6827 70.0914C93.9032 69.2477 92.9446 67.3235 91.986 65.5693L90.584 66.4131L89.7512 66.6498V74.0065C89.7512 74.9473 90.3623 75.8821 91.5846 76.5983L112.435 88.7927C114.873 90.2191 118.851 90.2191 121.29 88.7927L142.14 76.5983C143.338 75.8942 143.949 74.9776 143.973 74.055C143.973 74.0125 143.973 73.97 143.973 73.9336Z" fill="#42E8E0"/>
<path d="M143.973 67.5055V62.7164L142.667 61.9819C142.296 64.2399 139.671 65.7271 137.478 66.0366L122.536 74.8865L116.017 77.272L95.2034 66.3887L95.6827 66.1095C93.9032 65.2657 92.9446 63.3416 91.986 61.5874L90.584 62.4311L89.7512 62.6678V67.5784C89.7512 68.5192 90.3623 69.454 91.5846 70.1702L112.435 82.3646C114.873 83.791 118.851 83.791 121.29 82.3646L142.14 70.1702C143.338 69.4661 143.949 68.5495 143.973 67.6269C143.973 67.5844 143.973 67.5419 143.973 67.5055Z" fill="url(#paint54_linear_34_18553)"/>
<path opacity="0.3" d="M137.479 66.0367L122.536 74.8866L116.862 76.9625V83.433C118.468 83.433 120.068 83.0749 121.29 82.3647L142.14 70.1703C143.338 69.4662 143.949 68.5497 143.973 67.627C143.973 67.5846 143.973 67.5421 143.973 67.5056V62.7226L142.781 62.0488H142.655C142.248 64.2704 139.653 65.7332 137.479 66.0428V66.0367Z" fill="#0F054C"/>
<path d="M95.6827 66.1096L115.442 54.5526C116.221 54.0973 117.497 54.0973 118.276 54.5526L137.688 65.9093L137.472 66.0368C139.665 65.7272 142.29 64.2401 142.661 61.9821L120.87 49.7027L114.532 48.0032L109.367 51.0745L91.974 61.5815C92.9386 63.3357 93.8972 65.2659 95.6707 66.1035L95.6827 66.1096Z" fill="url(#paint55_linear_34_18553)"/>
<path opacity="0.3" d="M116.862 48.6284L114.538 48.0032L109.373 51.0745L91.9801 61.5815C92.9447 63.3357 93.9033 65.2659 95.6768 66.1035L115.436 54.5465C115.826 54.3158 116.341 54.2005 116.856 54.2066V48.6223L116.862 48.6284Z" fill="#0F054C"/>
<path d="M112.435 77.5026L91.5846 65.3082C89.1401 63.8818 89.1401 61.5571 91.5846 60.1306L112.435 47.9363C114.873 46.5099 118.851 46.5099 121.29 47.9363L142.14 60.1306C144.578 61.5571 144.584 63.8818 142.14 65.3082L121.29 77.5026C118.845 78.929 114.873 78.929 112.435 77.5026ZM118.282 49.6905C117.503 49.2352 116.227 49.2352 115.448 49.6905L94.5982 61.8848C93.8194 62.3401 93.8194 63.0867 94.5982 63.5419L115.448 75.7363C116.227 76.1915 117.503 76.1915 118.282 75.7363L139.132 63.5419C139.911 63.0867 139.911 62.3401 139.132 61.8848L118.282 49.6905Z" fill="#5351AF"/>
<path d="M139.132 61.8849L118.282 49.6906C117.503 49.2353 116.227 49.2353 115.448 49.6906L94.5983 61.8849C94.077 62.1884 93.9032 62.6254 94.077 63.0139C94.1669 62.8197 94.3346 62.6376 94.5983 62.4798L115.448 50.2854C116.227 49.8302 117.503 49.8302 118.282 50.2854L139.132 62.4798C139.39 62.6315 139.563 62.8136 139.653 63.0079C139.827 62.6194 139.653 62.1884 139.132 61.8789V61.8849Z" fill="white"/>
<path d="M142.14 65.3083L121.29 77.5027C118.845 78.9291 114.873 78.9291 112.435 77.5027L91.5846 65.3083C90.4942 64.671 89.8891 63.8516 89.7752 63.0139C89.6314 64.0458 90.2366 65.1141 91.5846 65.9032L112.435 78.0976C114.873 79.524 118.851 79.524 121.29 78.0976L142.14 65.9032C143.488 65.1141 144.093 64.0519 143.949 63.0139C143.835 63.8516 143.23 64.6649 142.14 65.3083Z" fill="white"/>
<path d="M113.022 77.1568L92.1718 64.9624C90.0568 63.7242 90.0568 61.709 92.1718 60.4707L113.022 48.2763C115.137 47.0381 118.582 47.0381 120.697 48.2763L141.547 60.4707C143.662 61.709 143.662 63.7242 141.547 64.9624L120.697 77.1568C118.582 78.3951 115.137 78.3951 113.022 77.1568ZM118.869 49.3446C117.761 48.6952 115.964 48.6952 114.855 49.3446L94.0051 61.539C92.8967 62.1885 92.8967 63.2386 94.0051 63.8881L114.855 76.0824C115.964 76.7319 117.761 76.7319 118.869 76.0824L139.719 63.8881C140.828 63.2386 140.828 62.1885 139.719 61.539L118.869 49.3446Z" fill="url(#paint56_linear_34_18553)"/>
<path opacity="0.4" d="M118.282 49.6906C117.503 49.2353 116.227 49.2353 115.448 49.6906L94.5983 61.8849C93.8194 62.3402 93.8194 63.0868 94.5983 63.542L115.448 75.7364C116.227 76.1916 117.503 76.1916 118.282 75.7364L139.132 63.542C139.911 63.0868 139.911 62.3402 139.132 61.8849L118.282 49.6906Z" fill="#42E8E0"/>
<path opacity="0.4" d="M143.973 63.2386V56.0033L142.667 55.2688C142.296 57.5268 139.671 59.0139 137.478 59.3235L122.536 68.1734L116.017 70.5588L95.2034 59.6755L95.6827 59.3963C93.9032 58.5526 92.9446 56.6285 91.986 54.8743L90.584 55.718L89.7512 55.9547V63.3114C89.7512 64.2522 90.3623 65.187 91.5846 65.9032L112.435 78.0976C114.873 79.524 118.851 79.524 121.29 78.0976L142.14 65.9032C143.338 65.1991 143.949 64.2826 143.973 63.3599C143.973 63.3175 143.973 63.275 143.973 63.2386Z" fill="#42E8E0"/>
<path d="M143.973 56.8044V52.0152L142.667 51.2808C142.296 53.5388 139.671 55.0259 137.478 55.3354L122.536 64.1853L116.017 66.5708L95.2034 55.6875L95.6827 55.4083C93.9032 54.5646 92.9446 52.6404 91.986 50.8862L90.584 51.7299L89.7512 51.9667V56.8772C89.7512 57.818 90.3623 58.7528 91.5846 59.469L112.435 71.6634C114.873 73.0898 118.851 73.0898 121.29 71.6634L142.14 59.469C143.338 58.7649 143.949 57.8484 143.973 56.9258C143.973 56.8833 143.973 56.8408 143.973 56.8044Z" fill="url(#paint57_linear_34_18553)"/>
<path opacity="0.3" d="M137.479 55.3417L122.536 64.1915L116.862 66.2674V72.7379C118.468 72.7379 120.068 72.3798 121.29 71.6696L142.14 59.4753C143.338 58.7711 143.949 57.8546 143.973 56.932C143.973 56.8895 143.973 56.847 143.973 56.8106V52.0275L142.781 51.3538H142.655C142.248 53.5753 139.653 55.0382 137.479 55.3477V55.3417Z" fill="#0F054C"/>
<path d="M95.6827 55.4145L115.442 43.8575C116.221 43.4023 117.497 43.4023 118.276 43.8575L137.688 55.2142L137.472 55.3417C139.665 55.0321 142.29 53.545 142.661 51.287L120.87 39.0077L114.532 37.3081L109.367 40.3795L91.974 50.8864C92.9386 52.6406 93.8972 54.5708 95.6707 55.4085L95.6827 55.4145Z" fill="url(#paint58_linear_34_18553)"/>
<path opacity="0.3" d="M116.862 37.9333L114.538 37.3081L109.373 40.3795L91.9801 50.8864C92.9447 52.6406 93.9033 54.5708 95.6768 55.4085L115.436 43.8514C115.826 43.6208 116.341 43.5115 116.856 43.5115V37.9272L116.862 37.9333Z" fill="#0F054C"/>
<path d="M112.435 66.8075L91.5846 54.6132C89.1401 53.1868 89.1401 50.862 91.5846 49.4356L112.435 37.2412C114.873 35.8148 118.851 35.8148 121.29 37.2412L142.14 49.4356C144.578 50.862 144.584 53.1868 142.14 54.6132L121.29 66.8075C118.845 68.234 114.873 68.234 112.435 66.8075ZM118.282 38.9954C117.503 38.5402 116.227 38.5402 115.448 38.9954L94.5982 51.1898C93.8194 51.645 93.8194 52.3916 94.5982 52.8468L115.448 65.0412C116.227 65.4965 117.503 65.4965 118.282 65.0412L139.132 52.8468C139.911 52.3916 139.911 51.645 139.132 51.1898L118.282 38.9954Z" fill="url(#paint59_linear_34_18553)"/>
<path d="M139.132 51.1899L118.282 38.9955C117.503 38.5402 116.227 38.5402 115.448 38.9955L94.5983 51.1899C94.077 51.4934 93.9032 51.9304 94.077 52.3189C94.1669 52.1246 94.3346 51.9425 94.5983 51.7847L115.448 39.5903C116.227 39.1351 117.503 39.1351 118.282 39.5903L139.132 51.7847C139.39 51.9365 139.563 52.1185 139.653 52.3128C139.827 51.9243 139.653 51.4934 139.132 51.1838V51.1899Z" fill="white"/>
<path d="M142.14 54.6133L121.29 66.8076C118.845 68.234 114.873 68.234 112.435 66.8076L91.5846 54.6133C90.4942 53.9759 89.8891 53.1565 89.7752 52.3188C89.6314 53.3507 90.2366 54.419 91.5846 55.2081L112.435 67.4025C114.873 68.8289 118.851 68.8289 121.29 67.4025L142.14 55.2081C143.488 54.419 144.093 53.3568 143.949 52.3188C143.835 53.1565 143.23 53.9699 142.14 54.6133Z" fill="white"/>
<path d="M113.022 66.4617L92.1718 54.2674C90.0568 53.0291 90.0568 51.0139 92.1718 49.7757L113.022 37.5813C115.137 36.343 118.582 36.343 120.697 37.5813L141.547 49.7757C143.662 51.0139 143.662 53.0291 141.547 54.2674L120.697 66.4617C118.582 67.7 115.137 67.7 113.022 66.4617ZM118.869 38.6496C117.761 38.0001 115.964 38.0001 114.855 38.6496L94.0051 50.844C92.8967 51.4934 92.8967 52.5435 94.0051 53.193L114.855 65.3874C115.964 66.0368 117.761 66.0368 118.869 65.3874L139.719 53.193C140.828 52.5435 140.828 51.4934 139.719 50.844L118.869 38.6496Z" fill="url(#paint60_linear_34_18553)"/>
<path opacity="0.4" d="M118.282 38.9955C117.503 38.5402 116.227 38.5402 115.448 38.9955L94.5983 51.1899C93.8194 51.6451 93.8194 52.3917 94.5983 52.8469L115.448 65.0413C116.227 65.4966 117.503 65.4966 118.282 65.0413L139.132 52.8469C139.911 52.3917 139.911 51.6451 139.132 51.1899L118.282 38.9955Z" fill="#42E8E0"/>
<path style="mix-blend-mode:lighten" opacity="0.5" d="M139.719 12.4155H94.011V51.9972C93.999 52.3067 94.1968 52.6163 94.5982 52.8469L115.448 65.0413C116.227 65.4966 117.503 65.4966 118.282 65.0413L139.132 52.8469C139.521 52.6163 139.719 52.3189 139.719 52.0154V12.4155Z" fill="url(#paint61_linear_34_18553)"/>
<defs>
<linearGradient id="paint0_linear_34_18553" x1="196.158" y1="110.674" x2="220.767" y2="124.698" gradientUnits="userSpaceOnUse">
<stop stop-color="#BCBEFF"/>
<stop offset="0.23" stop-color="#AAADF7"/>
<stop offset="0.68" stop-color="#7B82E5"/>
<stop offset="1" stop-color="#5761D7"/>
</linearGradient>
<linearGradient id="paint1_linear_34_18553" x1="193.09" y1="116.082" x2="223.91" y2="116.082" gradientUnits="userSpaceOnUse">
<stop stop-color="#E9E9FD"/>
<stop offset="0.36" stop-color="#D2D2F9"/>
<stop offset="0.71" stop-color="#C4C3F6"/>
<stop offset="1" stop-color="#C0BFF6"/>
</linearGradient>
<linearGradient id="paint2_linear_34_18553" x1="196.158" y1="92.4405" x2="220.767" y2="106.464" gradientUnits="userSpaceOnUse">
<stop stop-color="#BCBEFF"/>
<stop offset="0.23" stop-color="#AAADF7"/>
<stop offset="0.68" stop-color="#7B82E5"/>
<stop offset="1" stop-color="#5761D7"/>
</linearGradient>
<linearGradient id="paint3_linear_34_18553" x1="193.091" y1="97.8488" x2="223.91" y2="97.8488" gradientUnits="userSpaceOnUse">
<stop stop-color="#E9E9FD"/>
<stop offset="0.36" stop-color="#D2D2F9"/>
<stop offset="0.71" stop-color="#C4C3F6"/>
<stop offset="1" stop-color="#C0BFF6"/>
</linearGradient>
<linearGradient id="paint4_linear_34_18553" x1="23.5945" y1="126.541" x2="48.2034" y2="140.564" gradientUnits="userSpaceOnUse">
<stop stop-color="#BCBEFF"/>
<stop offset="0.23" stop-color="#AAADF7"/>
<stop offset="0.68" stop-color="#7B82E5"/>
<stop offset="1" stop-color="#5761D7"/>
</linearGradient>
<linearGradient id="paint5_linear_34_18553" x1="20.5269" y1="131.949" x2="51.3465" y2="131.949" gradientUnits="userSpaceOnUse">
<stop stop-color="#E9E9FD"/>
<stop offset="0.36" stop-color="#D2D2F9"/>
<stop offset="0.71" stop-color="#C4C3F6"/>
<stop offset="1" stop-color="#C0BFF6"/>
</linearGradient>
<linearGradient id="paint6_linear_34_18553" x1="23.5945" y1="106.984" x2="48.2035" y2="121.013" gradientUnits="userSpaceOnUse">
<stop stop-color="#BCBEFF"/>
<stop offset="0.23" stop-color="#AAADF7"/>
<stop offset="0.68" stop-color="#7B82E5"/>
<stop offset="1" stop-color="#5761D7"/>
</linearGradient>
<linearGradient id="paint7_linear_34_18553" x1="20.5271" y1="112.392" x2="51.3467" y2="112.392" gradientUnits="userSpaceOnUse">
<stop stop-color="#E9E9FD"/>
<stop offset="0.36" stop-color="#D2D2F9"/>
<stop offset="0.71" stop-color="#C4C3F6"/>
<stop offset="1" stop-color="#C0BFF6"/>
</linearGradient>
<linearGradient id="paint8_linear_34_18553" x1="45.5051" y1="58.085" x2="70.1139" y2="72.1082" gradientUnits="userSpaceOnUse">
<stop stop-color="#BCBEFF"/>
<stop offset="0.23" stop-color="#AAADF7"/>
<stop offset="0.68" stop-color="#7B82E5"/>
<stop offset="1" stop-color="#5761D7"/>
</linearGradient>
<linearGradient id="paint9_linear_34_18553" x1="42.4374" y1="63.4934" x2="73.257" y2="63.4934" gradientUnits="userSpaceOnUse">
<stop stop-color="#E9E9FD"/>
<stop offset="0.36" stop-color="#D2D2F9"/>
<stop offset="0.71" stop-color="#C4C3F6"/>
<stop offset="1" stop-color="#C0BFF6"/>
</linearGradient>
<linearGradient id="paint10_linear_34_18553" x1="45.5049" y1="39.8755" x2="70.1138" y2="53.8987" gradientUnits="userSpaceOnUse">
<stop stop-color="#BCBEFF"/>
<stop offset="0.23" stop-color="#AAADF7"/>
<stop offset="0.68" stop-color="#7B82E5"/>
<stop offset="1" stop-color="#5761D7"/>
</linearGradient>
<linearGradient id="paint11_linear_34_18553" x1="42.4375" y1="45.2839" x2="73.2571" y2="45.2839" gradientUnits="userSpaceOnUse">
<stop stop-color="#E9E9FD"/>
<stop offset="0.36" stop-color="#D2D2F9"/>
<stop offset="0.71" stop-color="#C4C3F6"/>
<stop offset="1" stop-color="#C0BFF6"/>
</linearGradient>
<linearGradient id="paint12_linear_34_18553" x1="172.282" y1="106.99" x2="52.4609" y2="106.99" gradientUnits="userSpaceOnUse">
<stop stop-color="#5761D7"/>
<stop offset="0.18" stop-color="#5B65D8"/>
<stop offset="0.39" stop-color="#6A72DE"/>
<stop offset="0.61" stop-color="#8188E8"/>
<stop offset="0.85" stop-color="#A2A6F5"/>
<stop offset="1" stop-color="#BCBEFF"/>
</linearGradient>
<linearGradient id="paint13_linear_34_18553" x1="134.267" y1="104.162" x2="14.4519" y2="104.162" gradientUnits="userSpaceOnUse">
<stop stop-color="#C0BFF6"/>
<stop offset="0.29" stop-color="#C4C3F6"/>
<stop offset="0.64" stop-color="#D2D2F9"/>
<stop offset="1" stop-color="#E9E9FD"/>
</linearGradient>
<linearGradient id="paint14_linear_34_18553" x1="185.865" y1="50.9166" x2="101.075" y2="50.9166" gradientUnits="userSpaceOnUse">
<stop stop-color="#C0BFF6"/>
<stop offset="0.29" stop-color="#C4C3F6"/>
<stop offset="0.64" stop-color="#D2D2F9"/>
<stop offset="1" stop-color="#E9E9FD"/>
</linearGradient>
<linearGradient id="paint15_linear_34_18553" x1="185.865" y1="72.9442" x2="171.306" y2="72.9442" gradientUnits="userSpaceOnUse">
<stop stop-color="#5761D7"/>
<stop offset="0.18" stop-color="#5B65D8"/>
<stop offset="0.39" stop-color="#6A72DE"/>
<stop offset="0.61" stop-color="#8188E8"/>
<stop offset="0.85" stop-color="#A2A6F5"/>
<stop offset="1" stop-color="#BCBEFF"/>
</linearGradient>
<linearGradient id="paint16_linear_34_18553" x1="174.505" y1="96.981" x2="54.7495" y2="96.981" gradientUnits="userSpaceOnUse">
<stop stop-color="#5761D7"/>
<stop offset="0.18" stop-color="#5B65D8"/>
<stop offset="0.39" stop-color="#6A72DE"/>
<stop offset="0.61" stop-color="#8188E8"/>
<stop offset="0.85" stop-color="#A2A6F5"/>
<stop offset="1" stop-color="#BCBEFF"/>
</linearGradient>
<linearGradient id="paint17_linear_34_18553" x1="201.742" y1="93.6608" x2="201.143" y2="93.6608" gradientUnits="userSpaceOnUse">
<stop stop-color="#C0BFF6"/>
<stop offset="0.29" stop-color="#C4C3F6"/>
<stop offset="0.64" stop-color="#D2D2F9"/>
<stop offset="1" stop-color="#E9E9FD"/>
</linearGradient>
<radialGradient id="paint18_radial_34_18553" cx="0" cy="0" r="1" gradientUnits="userSpaceOnUse" gradientTransform="translate(116.119 88.7623) scale(75.8507 76.8446)">
<stop stop-color="#42E8E0"/>
<stop offset="0.11" stop-color="#36B5BF"/>
<stop offset="0.22" stop-color="#2C87A0"/>
<stop offset="0.34" stop-color="#235F86"/>
<stop offset="0.46" stop-color="#1B3E71"/>
<stop offset="0.58" stop-color="#162560"/>
<stop offset="0.71" stop-color="#121355"/>
<stop offset="0.85" stop-color="#0F084E"/>
<stop offset="1" stop-color="#0F054C"/>
</radialGradient>
<linearGradient id="paint19_linear_34_18553" x1="95.1433" y1="114.122" x2="138.446" y2="138.8" gradientUnits="userSpaceOnUse">
<stop stop-color="#BCBEFF"/>
<stop offset="0.23" stop-color="#AAADF7"/>
<stop offset="0.68" stop-color="#7B82E5"/>
<stop offset="1" stop-color="#5761D7"/>
</linearGradient>
<linearGradient id="paint20_linear_34_18553" x1="97.7256" y1="112.429" x2="136.342" y2="134.434" gradientUnits="userSpaceOnUse">
<stop offset="0.24" stop-color="#5761D7"/>
<stop offset="0.39" stop-color="#7A81E5"/>
<stop offset="0.55" stop-color="#979BF0"/>
<stop offset="0.7" stop-color="#ABAEF8"/>
<stop offset="0.85" stop-color="#B7BAFD"/>
<stop offset="1" stop-color="#BCBEFF"/>
</linearGradient>
<linearGradient id="paint21_linear_34_18553" x1="90.584" y1="123.634" x2="143.14" y2="123.634" gradientUnits="userSpaceOnUse">
<stop stop-color="#E9E9FD"/>
<stop offset="0.36" stop-color="#D2D2F9"/>
<stop offset="0.71" stop-color="#C4C3F6"/>
<stop offset="1" stop-color="#C0BFF6"/>
</linearGradient>
<linearGradient id="paint22_linear_34_18553" x1="95.1433" y1="103.427" x2="138.446" y2="128.104" gradientUnits="userSpaceOnUse">
<stop stop-color="#BCBEFF"/>
<stop offset="0.23" stop-color="#AAADF7"/>
<stop offset="0.68" stop-color="#7B82E5"/>
<stop offset="1" stop-color="#5761D7"/>
</linearGradient>
<linearGradient id="paint23_linear_34_18553" x1="0.0902205" y1="101.733" x2="0.705148" y2="124.173" gradientUnits="userSpaceOnUse">
<stop offset="0.24" stop-color="#5761D7"/>
<stop offset="0.39" stop-color="#7A81E5"/>
<stop offset="0.55" stop-color="#979BF0"/>
<stop offset="0.7" stop-color="#ABAEF8"/>
<stop offset="0.85" stop-color="#B7BAFD"/>
<stop offset="1" stop-color="#BCBEFF"/>
</linearGradient>
<linearGradient id="paint24_linear_34_18553" x1="90.584" y1="112.938" x2="143.14" y2="112.938" gradientUnits="userSpaceOnUse">
<stop stop-color="#E9E9FD"/>
<stop offset="0.36" stop-color="#D2D2F9"/>
<stop offset="0.71" stop-color="#C4C3F6"/>
<stop offset="1" stop-color="#C0BFF6"/>
</linearGradient>
<linearGradient id="paint25_linear_34_18553" x1="95.1433" y1="92.7317" x2="138.445" y2="117.403" gradientUnits="userSpaceOnUse">
<stop stop-color="#BCBEFF"/>
<stop offset="0.23" stop-color="#AAADF7"/>
<stop offset="0.68" stop-color="#7B82E5"/>
<stop offset="1" stop-color="#5761D7"/>
</linearGradient>
<linearGradient id="paint26_linear_34_18553" x1="97.7256" y1="91.0384" x2="136.342" y2="113.043" gradientUnits="userSpaceOnUse">
<stop offset="0.24" stop-color="#5761D7"/>
<stop offset="0.39" stop-color="#7A81E5"/>
<stop offset="0.55" stop-color="#979BF0"/>
<stop offset="0.7" stop-color="#ABAEF8"/>
<stop offset="0.85" stop-color="#B7BAFD"/>
<stop offset="1" stop-color="#BCBEFF"/>
</linearGradient>
<linearGradient id="paint27_linear_34_18553" x1="90.584" y1="102.243" x2="143.14" y2="102.243" gradientUnits="userSpaceOnUse">
<stop stop-color="#E9E9FD"/>
<stop offset="0.36" stop-color="#D2D2F9"/>
<stop offset="0.71" stop-color="#C4C3F6"/>
<stop offset="1" stop-color="#C0BFF6"/>
</linearGradient>
<linearGradient id="paint28_linear_34_18553" x1="95.1433" y1="82.0367" x2="138.445" y2="106.708" gradientUnits="userSpaceOnUse">
<stop stop-color="#BCBEFF"/>
<stop offset="0.23" stop-color="#AAADF7"/>
<stop offset="0.68" stop-color="#7B82E5"/>
<stop offset="1" stop-color="#5761D7"/>
</linearGradient>
<linearGradient id="paint29_linear_34_18553" x1="97.7256" y1="80.3373" x2="136.342" y2="102.342" gradientUnits="userSpaceOnUse">
<stop offset="0.24" stop-color="#5761D7"/>
<stop offset="0.39" stop-color="#7A81E5"/>
<stop offset="0.55" stop-color="#979BF0"/>
<stop offset="0.7" stop-color="#ABAEF8"/>
<stop offset="0.85" stop-color="#B7BAFD"/>
<stop offset="1" stop-color="#BCBEFF"/>
</linearGradient>
<linearGradient id="paint30_linear_34_18553" x1="89.7511" y1="91.5482" x2="143.973" y2="91.5482" gradientUnits="userSpaceOnUse">
<stop stop-color="#E9E9FD"/>
<stop offset="0.36" stop-color="#D2D2F9"/>
<stop offset="0.71" stop-color="#C4C3F6"/>
<stop offset="1" stop-color="#C0BFF6"/>
</linearGradient>
<linearGradient id="paint31_linear_34_18553" x1="90.584" y1="91.5484" x2="143.14" y2="91.5484" gradientUnits="userSpaceOnUse">
<stop stop-color="#E9E9FD"/>
<stop offset="0.36" stop-color="#D2D2F9"/>
<stop offset="0.71" stop-color="#C4C3F6"/>
<stop offset="1" stop-color="#C0BFF6"/>
</linearGradient>
<linearGradient id="paint32_linear_34_18553" x1="54.5399" y1="92.1006" x2="174.703" y2="92.1006" gradientUnits="userSpaceOnUse">
<stop stop-color="#42E8E0"/>
<stop offset="0.11" stop-color="#36B5BF"/>
<stop offset="0.22" stop-color="#2C87A0"/>
<stop offset="0.34" stop-color="#235F86"/>
<stop offset="0.46" stop-color="#1B3E71"/>
<stop offset="0.58" stop-color="#162560"/>
<stop offset="0.71" stop-color="#121355"/>
<stop offset="0.85" stop-color="#0F084E"/>
<stop offset="1" stop-color="#0F054C"/>
</linearGradient>
<linearGradient id="paint33_linear_34_18553" x1="220.555" y1="70.2795" x2="100.799" y2="70.2795" gradientUnits="userSpaceOnUse">
<stop stop-color="#5761D7"/>
<stop offset="0.18" stop-color="#5B65D8"/>
<stop offset="0.39" stop-color="#6A72DE"/>
<stop offset="0.61" stop-color="#8188E8"/>
<stop offset="0.85" stop-color="#A2A6F5"/>
<stop offset="1" stop-color="#BCBEFF"/>
</linearGradient>
<linearGradient id="paint34_linear_34_18553" x1="180.317" y1="66.9654" x2="60.5012" y2="66.9654" gradientUnits="userSpaceOnUse">
<stop stop-color="#C0BFF6"/>
<stop offset="0.29" stop-color="#C4C3F6"/>
<stop offset="0.64" stop-color="#D2D2F9"/>
<stop offset="1" stop-color="#E9E9FD"/>
</linearGradient>
<linearGradient id="paint35_linear_34_18553" x1="137.041" y1="51.0076" x2="180.337" y2="75.6791" gradientUnits="userSpaceOnUse">
<stop stop-color="#BCBEFF"/>
<stop offset="0.23" stop-color="#AAADF7"/>
<stop offset="0.68" stop-color="#7B82E5"/>
<stop offset="1" stop-color="#5761D7"/>
</linearGradient>
<linearGradient id="paint36_linear_34_18553" x1="139.623" y1="49.3143" x2="178.234" y2="71.3193" gradientUnits="userSpaceOnUse">
<stop offset="0.24" stop-color="#5761D7"/>
<stop offset="0.39" stop-color="#7A81E5"/>
<stop offset="0.55" stop-color="#979BF0"/>
<stop offset="0.7" stop-color="#ABAEF8"/>
<stop offset="0.85" stop-color="#B7BAFD"/>
<stop offset="1" stop-color="#BCBEFF"/>
</linearGradient>
<linearGradient id="paint37_linear_34_18553" x1="132.476" y1="60.5193" x2="185.032" y2="60.5193" gradientUnits="userSpaceOnUse">
<stop stop-color="#E9E9FD"/>
<stop offset="0.36" stop-color="#D2D2F9"/>
<stop offset="0.71" stop-color="#C4C3F6"/>
<stop offset="1" stop-color="#C0BFF6"/>
</linearGradient>
<linearGradient id="paint38_linear_34_18553" x1="137.041" y1="40.3125" x2="180.337" y2="64.9841" gradientUnits="userSpaceOnUse">
<stop stop-color="#BCBEFF"/>
<stop offset="0.23" stop-color="#AAADF7"/>
<stop offset="0.68" stop-color="#7B82E5"/>
<stop offset="1" stop-color="#5761D7"/>
</linearGradient>
<linearGradient id="paint39_linear_34_18553" x1="139.623" y1="38.6192" x2="178.234" y2="60.6182" gradientUnits="userSpaceOnUse">
<stop offset="0.24" stop-color="#5761D7"/>
<stop offset="0.39" stop-color="#7A81E5"/>
<stop offset="0.55" stop-color="#979BF0"/>
<stop offset="0.7" stop-color="#ABAEF8"/>
<stop offset="0.85" stop-color="#B7BAFD"/>
<stop offset="1" stop-color="#BCBEFF"/>
</linearGradient>
<linearGradient id="paint40_linear_34_18553" x1="132.476" y1="49.8242" x2="185.032" y2="49.8242" gradientUnits="userSpaceOnUse">
<stop stop-color="#E9E9FD"/>
<stop offset="0.36" stop-color="#D2D2F9"/>
<stop offset="0.71" stop-color="#C4C3F6"/>
<stop offset="1" stop-color="#C0BFF6"/>
</linearGradient>
<linearGradient id="paint41_linear_34_18553" x1="137.041" y1="29.6112" x2="180.337" y2="54.2887" gradientUnits="userSpaceOnUse">
<stop stop-color="#BCBEFF"/>
<stop offset="0.23" stop-color="#AAADF7"/>
<stop offset="0.68" stop-color="#7B82E5"/>
<stop offset="1" stop-color="#5761D7"/>
</linearGradient>
<linearGradient id="paint42_linear_34_18553" x1="139.623" y1="27.9178" x2="178.234" y2="49.9229" gradientUnits="userSpaceOnUse">
<stop offset="0.24" stop-color="#5761D7"/>
<stop offset="0.39" stop-color="#7A81E5"/>
<stop offset="0.55" stop-color="#979BF0"/>
<stop offset="0.7" stop-color="#ABAEF8"/>
<stop offset="0.85" stop-color="#B7BAFD"/>
<stop offset="1" stop-color="#BCBEFF"/>
</linearGradient>
<linearGradient id="paint43_linear_34_18553" x1="132.476" y1="39.1229" x2="185.032" y2="39.1229" gradientUnits="userSpaceOnUse">
<stop stop-color="#E9E9FD"/>
<stop offset="0.36" stop-color="#D2D2F9"/>
<stop offset="0.71" stop-color="#C4C3F6"/>
<stop offset="1" stop-color="#C0BFF6"/>
</linearGradient>
<linearGradient id="paint44_linear_34_18553" x1="137.041" y1="18.9161" x2="180.337" y2="43.5936" gradientUnits="userSpaceOnUse">
<stop stop-color="#BCBEFF"/>
<stop offset="0.23" stop-color="#AAADF7"/>
<stop offset="0.68" stop-color="#7B82E5"/>
<stop offset="1" stop-color="#5761D7"/>
</linearGradient>
<linearGradient id="paint45_linear_34_18553" x1="139.623" y1="17.2227" x2="178.234" y2="39.2278" gradientUnits="userSpaceOnUse">
<stop offset="0.24" stop-color="#5761D7"/>
<stop offset="0.39" stop-color="#7A81E5"/>
<stop offset="0.55" stop-color="#979BF0"/>
<stop offset="0.7" stop-color="#ABAEF8"/>
<stop offset="0.85" stop-color="#B7BAFD"/>
<stop offset="1" stop-color="#BCBEFF"/>
</linearGradient>
<linearGradient id="paint46_linear_34_18553" x1="131.643" y1="28.4276" x2="185.865" y2="28.4276" gradientUnits="userSpaceOnUse">
<stop stop-color="#E9E9FD"/>
<stop offset="0.36" stop-color="#D2D2F9"/>
<stop offset="0.71" stop-color="#C4C3F6"/>
<stop offset="1" stop-color="#C0BFF6"/>
</linearGradient>
<linearGradient id="paint47_linear_34_18553" x1="132.476" y1="28.4278" x2="185.032" y2="28.4278" gradientUnits="userSpaceOnUse">
<stop stop-color="#E9E9FD"/>
<stop offset="0.36" stop-color="#D2D2F9"/>
<stop offset="0.71" stop-color="#C4C3F6"/>
<stop offset="1" stop-color="#C0BFF6"/>
</linearGradient>
<linearGradient id="paint48_linear_34_18553" x1="95.1435" y1="74.6014" x2="138.446" y2="99.2729" gradientUnits="userSpaceOnUse">
<stop stop-color="#BCBEFF"/>
<stop offset="0.23" stop-color="#AAADF7"/>
<stop offset="0.68" stop-color="#7B82E5"/>
<stop offset="1" stop-color="#5761D7"/>
</linearGradient>
<linearGradient id="paint49_linear_34_18553" x1="97.7257" y1="72.9017" x2="136.343" y2="94.9067" gradientUnits="userSpaceOnUse">
<stop offset="0.24" stop-color="#5761D7"/>
<stop offset="0.39" stop-color="#7A81E5"/>
<stop offset="0.55" stop-color="#979BF0"/>
<stop offset="0.7" stop-color="#ABAEF8"/>
<stop offset="0.85" stop-color="#B7BAFD"/>
<stop offset="1" stop-color="#BCBEFF"/>
</linearGradient>
<linearGradient id="paint50_linear_34_18553" x1="90.5841" y1="84.1131" x2="143.14" y2="84.1131" gradientUnits="userSpaceOnUse">
<stop stop-color="#E9E9FD"/>
<stop offset="0.36" stop-color="#D2D2F9"/>
<stop offset="0.71" stop-color="#C4C3F6"/>
<stop offset="1" stop-color="#C0BFF6"/>
</linearGradient>
<linearGradient id="paint51_linear_34_18553" x1="95.1435" y1="63.9" x2="138.446" y2="88.5775" gradientUnits="userSpaceOnUse">
<stop stop-color="#BCBEFF"/>
<stop offset="0.23" stop-color="#AAADF7"/>
<stop offset="0.68" stop-color="#7B82E5"/>
<stop offset="1" stop-color="#5761D7"/>
</linearGradient>
<linearGradient id="paint52_linear_34_18553" x1="0.0903412" y1="62.2064" x2="136.185" y2="84.0846" gradientUnits="userSpaceOnUse">
<stop offset="0.24" stop-color="#5761D7"/>
<stop offset="0.39" stop-color="#7A81E5"/>
<stop offset="0.55" stop-color="#979BF0"/>
<stop offset="0.7" stop-color="#ABAEF8"/>
<stop offset="0.85" stop-color="#B7BAFD"/>
<stop offset="1" stop-color="#BCBEFF"/>
</linearGradient>
<linearGradient id="paint53_linear_34_18553" x1="90.5841" y1="73.4117" x2="143.14" y2="73.4117" gradientUnits="userSpaceOnUse">
<stop stop-color="#E9E9FD"/>
<stop offset="0.36" stop-color="#D2D2F9"/>
<stop offset="0.71" stop-color="#C4C3F6"/>
<stop offset="1" stop-color="#C0BFF6"/>
</linearGradient>
<linearGradient id="paint54_linear_34_18553" x1="95.1435" y1="53.2049" x2="138.446" y2="77.8824" gradientUnits="userSpaceOnUse">
<stop stop-color="#BCBEFF"/>
<stop offset="0.23" stop-color="#AAADF7"/>
<stop offset="0.68" stop-color="#7B82E5"/>
<stop offset="1" stop-color="#5761D7"/>
</linearGradient>
<linearGradient id="paint55_linear_34_18553" x1="0.0903426" y1="51.5116" x2="0.705271" y2="73.9514" gradientUnits="userSpaceOnUse">
<stop offset="0.24" stop-color="#5761D7"/>
<stop offset="0.39" stop-color="#7A81E5"/>
<stop offset="0.55" stop-color="#979BF0"/>
<stop offset="0.7" stop-color="#ABAEF8"/>
<stop offset="0.85" stop-color="#B7BAFD"/>
<stop offset="1" stop-color="#BCBEFF"/>
</linearGradient>
<linearGradient id="paint56_linear_34_18553" x1="90.5841" y1="62.7166" x2="143.14" y2="62.7166" gradientUnits="userSpaceOnUse">
<stop stop-color="#E9E9FD"/>
<stop offset="0.36" stop-color="#D2D2F9"/>
<stop offset="0.71" stop-color="#C4C3F6"/>
<stop offset="1" stop-color="#C0BFF6"/>
</linearGradient>
<linearGradient id="paint57_linear_34_18553" x1="95.1435" y1="42.5098" x2="138.446" y2="67.1813" gradientUnits="userSpaceOnUse">
<stop stop-color="#BCBEFF"/>
<stop offset="0.23" stop-color="#AAADF7"/>
<stop offset="0.68" stop-color="#7B82E5"/>
<stop offset="1" stop-color="#5761D7"/>
</linearGradient>
<linearGradient id="paint58_linear_34_18553" x1="97.7257" y1="40.8165" x2="136.343" y2="62.8215" gradientUnits="userSpaceOnUse">
<stop offset="0.24" stop-color="#5761D7"/>
<stop offset="0.39" stop-color="#7A81E5"/>
<stop offset="0.55" stop-color="#979BF0"/>
<stop offset="0.7" stop-color="#ABAEF8"/>
<stop offset="0.85" stop-color="#B7BAFD"/>
<stop offset="1" stop-color="#BCBEFF"/>
</linearGradient>
<linearGradient id="paint59_linear_34_18553" x1="89.7512" y1="52.0213" x2="143.973" y2="52.0213" gradientUnits="userSpaceOnUse">
<stop stop-color="#E9E9FD"/>
<stop offset="0.36" stop-color="#D2D2F9"/>
<stop offset="0.71" stop-color="#C4C3F6"/>
<stop offset="1" stop-color="#C0BFF6"/>
</linearGradient>
<linearGradient id="paint60_linear_34_18553" x1="90.5841" y1="52.0215" x2="143.14" y2="52.0215" gradientUnits="userSpaceOnUse">
<stop stop-color="#E9E9FD"/>
<stop offset="0.36" stop-color="#D2D2F9"/>
<stop offset="0.71" stop-color="#C4C3F6"/>
<stop offset="1" stop-color="#C0BFF6"/>
</linearGradient>
<linearGradient id="paint61_linear_34_18553" x1="116.862" y1="65.3873" x2="116.862" y2="12.4155" gradientUnits="userSpaceOnUse">
<stop stop-color="#42E8E0"/>
<stop offset="0.11" stop-color="#36B5BF"/>
<stop offset="0.22" stop-color="#2C87A0"/>
<stop offset="0.34" stop-color="#235F86"/>
<stop offset="0.46" stop-color="#1B3E71"/>
<stop offset="0.58" stop-color="#162560"/>
<stop offset="0.71" stop-color="#121355"/>
<stop offset="0.85" stop-color="#0F084E"/>
<stop offset="1" stop-color="#0F054C"/>
</linearGradient>
</defs>
</svg>
