<svg width="187" height="158" viewBox="0 0 187 158" fill="none" xmlns="http://www.w3.org/2000/svg">
<path d="M59.6239 142.089C58.08 142.089 56.6064 141.788 55.5129 141.17L1.67246 111.006C0.590625 110.399 0 109.559 0 108.634C0 107.527 0.853774 106.409 2.34496 105.575L105.02 48.0516C107.809 46.4853 112.055 46.3207 114.476 47.6771L168.311 77.8406C169.392 78.4478 169.983 79.2878 169.983 80.2128C169.983 81.3195 169.129 82.4375 167.638 83.2717L64.9629 140.795C63.4366 141.652 61.4776 142.089 59.618 142.089H59.6239ZM55.624 140.977C57.9806 142.299 62.1209 142.129 64.8459 140.602L167.521 83.0731C168.936 82.2786 169.749 81.2344 169.749 80.2128C169.749 79.3729 169.194 78.6011 168.194 78.0392L114.359 47.8757C112.002 46.5534 107.862 46.7237 105.137 48.2503L2.46191 105.774C1.04675 106.568 0.233911 107.613 0.233911 108.634C0.233911 109.474 0.789449 110.246 1.78942 110.808L55.624 140.971V140.977Z" fill="#42E8E0"/>
<path d="M169.872 66.2749L162.141 67.5688L114.423 40.8331C112.032 39.4938 107.85 39.6584 105.084 41.2077L13.7891 92.358L0.116992 94.6451V99.3498C0.111144 100.207 0.637443 101.03 1.72513 101.637L55.5597 131.8C57.9514 133.14 62.1326 132.975 64.8986 131.426L167.574 73.8967C169.059 73.0624 169.831 72.0011 169.854 70.9853H169.86V66.2806L169.872 66.2749Z" fill="url(#paint0_linear_34_18418)"/>
<path d="M55.5655 127.061L1.73098 96.8979C-0.660763 95.5586 -0.362527 93.2148 2.40347 91.6654L105.079 34.1363C107.845 32.5869 112.026 32.4167 114.418 33.7617L168.252 63.9252C170.644 65.2646 170.346 67.6084 167.58 69.1577L64.9103 126.687C62.1443 128.236 57.9631 128.406 55.5714 127.061H55.5655Z" fill="#24126A"/>
<path d="M167.585 69.1578L64.9101 126.687C62.1441 128.236 57.9629 128.407 55.5712 127.061L1.73076 96.898C0.771721 96.3588 0.251269 95.6608 0.140162 94.9173C-0.00603252 95.8821 0.508571 96.8242 1.73076 97.5109L55.5653 127.674C57.9571 129.014 62.1382 128.849 64.9042 127.3L167.579 69.7707C169.234 68.8456 170 67.6311 169.837 66.5188C169.696 67.4495 168.936 68.3973 167.579 69.1578H167.585Z" fill="white"/>
<path opacity="0.51" d="M55.6766 125.892L3.75429 96.7957C1.43857 95.4961 1.73096 93.2317 4.40339 91.7335L105.178 35.2826C107.85 33.7844 111.897 33.6198 114.213 34.9194L166.129 64.016C168.445 65.3156 168.153 67.58 165.48 69.0782L64.7114 125.529C62.039 127.027 57.9924 127.192 55.6766 125.892Z" fill="#453C9E"/>
<path style="mix-blend-mode:lighten" opacity="0.8" d="M59.6006 125.631C58.0977 125.631 56.665 125.336 55.5949 124.74L3.67251 95.6381C2.60821 95.0422 2.02344 94.2136 2.02344 93.2999C2.02344 92.2103 2.85967 91.115 4.32161 90.2921L105.096 33.8468C107.81 32.3259 111.944 32.1613 114.301 33.4836L166.217 62.5802C167.281 63.1761 167.866 64.0047 167.866 64.9184C167.866 66.008 167.03 67.1033 165.568 67.9262L64.7934 124.371C63.3081 125.2 61.4017 125.626 59.5947 125.626L59.6006 125.631ZM55.7586 124.457C58.0275 125.728 62.004 125.563 64.6297 124.093L165.398 67.6481C166.749 66.8877 167.527 65.8945 167.527 64.9241C167.527 64.1295 167.001 63.4031 166.048 62.864L114.131 33.7674C111.862 32.4962 107.886 32.6607 105.26 34.1306L4.4912 90.5758C3.14036 91.3363 2.36261 92.3294 2.36261 93.2999C2.36261 94.0944 2.88891 94.8209 3.84209 95.36L55.7586 124.457Z" fill="url(#paint1_linear_34_18418)"/>
<path d="M61.1382 8.51839L62.068 4.23364H62.5066L63.4422 8.51839H63.0329L62.8165 7.37201H61.7639L61.5417 8.51839H61.1382ZM61.8224 7.0769H62.7639L62.2902 4.76711L61.8224 7.0769Z" fill="white"/>
<path d="M64.8633 8.56972C64.6587 8.56972 64.4657 8.47324 64.3019 8.28028V8.52431H63.9043V4.23389H64.3019V5.70943C64.4715 5.5108 64.6704 5.40865 64.9043 5.40865C65.0212 5.40865 65.1265 5.43135 65.2142 5.47675C65.3019 5.52215 65.3721 5.58458 65.4247 5.65835C65.4773 5.73213 65.5183 5.82293 65.5475 5.93644C65.5768 6.04427 65.6002 6.15777 65.606 6.2656C65.6177 6.37343 65.6177 6.49828 65.6177 6.62881V7.27578C65.6177 7.44036 65.6118 7.58224 65.5943 7.70709C65.5826 7.83194 65.5534 7.95112 65.5183 8.06463C65.4832 8.17245 65.4364 8.26326 65.3779 8.33703C65.3195 8.41081 65.2493 8.46189 65.1616 8.50729C65.0739 8.54701 64.9744 8.56972 64.8575 8.56972H64.8633ZM64.799 8.26326C64.9686 8.26326 65.0797 8.18948 65.1382 8.03625C65.1967 7.88302 65.22 7.63331 65.22 7.28713V6.63448C65.22 6.30532 65.1908 6.07264 65.1382 5.93076C65.0855 5.78888 64.9686 5.72078 64.7932 5.72078C64.6294 5.72078 64.4657 5.80023 64.3019 5.95346V8.03625C64.4481 8.1838 64.6119 8.25758 64.799 8.25758V8.26326Z" fill="white"/>
<path d="M67.3544 8.49586C67.2433 8.54694 67.1088 8.56964 66.9451 8.56964C66.7814 8.56964 66.6469 8.54694 66.5358 8.49586C66.4247 8.44479 66.3369 8.37101 66.2785 8.26886C66.2141 8.1667 66.1732 8.04752 66.144 7.91132C66.1147 7.77512 66.103 7.61054 66.103 7.41758V6.57198C66.103 6.18039 66.1674 5.89096 66.2902 5.70368C66.413 5.5164 66.6352 5.41992 66.9451 5.41992C67.255 5.41992 67.4773 5.5164 67.6001 5.70368C67.7229 5.89096 67.7872 6.18039 67.7872 6.57198V7.41758C67.7872 7.61054 67.7755 7.77512 67.7462 7.91132C67.717 8.04752 67.6761 8.1667 67.6118 8.26886C67.5474 8.37101 67.4597 8.44479 67.3544 8.49586ZM66.9451 8.28021C67.027 8.28021 67.0913 8.26318 67.1498 8.2348C67.2024 8.20643 67.2492 8.17238 67.2784 8.12698C67.3077 8.08158 67.3311 8.02482 67.3486 7.94537C67.3661 7.86592 67.372 7.79214 67.3778 7.71836C67.3778 7.64459 67.3837 7.55378 67.3837 7.43461V6.5436C67.3837 6.4301 67.3837 6.33362 67.3778 6.25985C67.3778 6.18607 67.3661 6.11229 67.3486 6.03284C67.3311 5.95339 67.3077 5.89096 67.2784 5.85123C67.2492 5.80583 67.2024 5.77178 67.1498 5.74341C67.0971 5.71503 67.027 5.698 66.9451 5.698C66.8749 5.698 66.8165 5.70368 66.7697 5.72071C66.7229 5.73773 66.682 5.76611 66.6469 5.80583C66.6176 5.84556 66.5884 5.88529 66.5708 5.93069C66.5533 5.97609 66.5358 6.03284 66.5299 6.10094C66.5182 6.16904 66.5124 6.23715 66.5124 6.29957C66.5124 6.362 66.5124 6.44145 66.5124 6.53793V7.42893C66.5124 7.52541 66.5124 7.60486 66.5124 7.66729C66.5124 7.72972 66.5241 7.79782 66.5299 7.86592C66.5416 7.93402 66.5533 7.99645 66.5708 8.03617C66.5884 8.08158 66.6176 8.1213 66.6469 8.16103C66.6761 8.20075 66.717 8.22913 66.7697 8.24616C66.8165 8.26318 66.8808 8.27453 66.9451 8.27453V8.28021Z" fill="white"/>
<path d="M68.7991 8.56385C68.6412 8.56385 68.5184 8.5071 68.4365 8.39359C68.3547 8.28009 68.3137 8.12119 68.3137 7.91121V5.45953H68.7172V7.83175C68.7172 7.98498 68.7406 8.09849 68.7874 8.16091C68.8342 8.22901 68.9102 8.25739 69.0155 8.25739C69.1967 8.25739 69.3839 8.15524 69.5768 7.95661V5.45386H69.9745V8.51277H69.5768V8.17226C69.3429 8.42765 69.0856 8.55817 68.8049 8.55817L68.7991 8.56385Z" fill="white"/>
<path d="M71.3253 8.5583C71.1089 8.5583 70.9627 8.50155 70.8808 8.38804C70.799 8.27454 70.758 8.10428 70.758 7.88295V5.72071H70.3779V5.46533H70.758V4.51758H71.1557V5.46533H71.682V5.72071H71.1557V7.8489C71.1557 8.00213 71.1732 8.10996 71.2142 8.16671C71.2492 8.22346 71.3253 8.25184 71.4422 8.25184C71.5124 8.25184 71.5884 8.24616 71.6644 8.22914V8.51857C71.5475 8.54127 71.4364 8.55262 71.3311 8.55262L71.3253 8.5583Z" fill="white"/>
<path d="M89.5351 8.57557C89.3597 8.57557 89.2077 8.55287 89.0732 8.50746C88.9387 8.46206 88.8334 8.39964 88.7515 8.32018C88.6697 8.24073 88.5995 8.14425 88.5527 8.03075C88.5001 7.91157 88.465 7.79239 88.4475 7.66186C88.4299 7.53701 88.4182 7.38946 88.4182 7.23055V5.528C88.4182 5.36342 88.4299 5.21587 88.4475 5.08534C88.4708 4.95481 88.5059 4.83563 88.5586 4.71645C88.6112 4.60295 88.6814 4.50647 88.7632 4.43269C88.8451 4.35892 88.9562 4.29649 89.0849 4.25676C89.2135 4.21136 89.3656 4.19434 89.541 4.19434C89.734 4.19434 89.8977 4.22271 90.038 4.27946C90.1725 4.33622 90.2837 4.41567 90.3655 4.52917C90.4474 4.637 90.5 4.76185 90.541 4.90941C90.576 5.05129 90.5936 5.22154 90.5936 5.4145V5.67555H90.2018V5.42585C90.2018 5.27262 90.1959 5.14776 90.1784 5.04561C90.1609 4.94346 90.1316 4.85266 90.0848 4.76753C90.038 4.6824 89.9737 4.61997 89.886 4.58025C89.7983 4.54052 89.6872 4.51782 89.5527 4.51782C89.4065 4.51782 89.2895 4.54052 89.1901 4.58592C89.0966 4.63132 89.0264 4.69943 88.9737 4.79023C88.927 4.88103 88.8919 4.98318 88.8743 5.09101C88.8568 5.19884 88.8451 5.32937 88.8451 5.48827V7.31C88.8451 7.64484 88.8977 7.8832 88.9971 8.03642C89.0966 8.18965 89.2837 8.26343 89.5468 8.26343C89.6579 8.26343 89.7457 8.24641 89.8275 8.21803C89.9035 8.18965 89.9679 8.14993 90.0147 8.09885C90.0614 8.04778 90.0965 7.98535 90.1258 7.90022C90.155 7.82077 90.1725 7.73564 90.1842 7.64484C90.1959 7.55971 90.1959 7.45188 90.1959 7.3327V7.05462H90.5877V7.30433C90.5877 7.46323 90.576 7.59944 90.5585 7.72429C90.541 7.84914 90.5059 7.96832 90.4532 8.07615C90.4065 8.18398 90.3421 8.28046 90.2603 8.34856C90.1842 8.42234 90.0848 8.47909 89.962 8.51881C89.8392 8.55854 89.6989 8.58124 89.5351 8.58124V8.57557Z" fill="white"/>
<path d="M92.3361 8.49586C92.225 8.54694 92.0905 8.56964 91.9268 8.56964C91.7631 8.56964 91.6286 8.54694 91.5175 8.49586C91.4063 8.44479 91.3186 8.37101 91.2602 8.26886C91.1958 8.1667 91.1549 8.04752 91.1257 7.91132C91.0964 7.77512 91.0847 7.61054 91.0847 7.41758V6.57198C91.0847 6.18039 91.149 5.89096 91.2718 5.70368C91.3947 5.5164 91.6169 5.41992 91.9268 5.41992C92.2367 5.41992 92.459 5.5164 92.5818 5.70368C92.7046 5.89096 92.7689 6.18039 92.7689 6.57198V7.41758C92.7689 7.61054 92.7572 7.77512 92.7279 7.91132C92.6987 8.04752 92.6578 8.1667 92.5934 8.26886C92.5291 8.37101 92.4414 8.44479 92.3361 8.49586ZM91.9268 8.28021C92.0087 8.28021 92.073 8.26318 92.1315 8.2348C92.1841 8.20643 92.2309 8.17238 92.2601 8.12698C92.2894 8.08158 92.3128 8.02482 92.3303 7.94537C92.3478 7.86592 92.3537 7.79214 92.3595 7.71836C92.3595 7.64459 92.3654 7.55378 92.3654 7.43461V6.5436C92.3654 6.4301 92.3654 6.33362 92.3595 6.25985C92.3595 6.18607 92.3478 6.11229 92.3303 6.03284C92.3128 5.95339 92.2894 5.89096 92.2601 5.85123C92.2309 5.80583 92.1841 5.77178 92.1315 5.74341C92.0788 5.71503 92.0087 5.698 91.9268 5.698C91.8566 5.698 91.7981 5.70368 91.7514 5.72071C91.7046 5.73773 91.6637 5.76611 91.6286 5.80583C91.5993 5.84556 91.5701 5.88529 91.5525 5.93069C91.535 5.97609 91.5175 6.03284 91.5116 6.10094C91.4999 6.16904 91.4941 6.23715 91.4941 6.29957C91.4941 6.362 91.4941 6.44145 91.4941 6.53793V7.42893C91.4941 7.52541 91.4941 7.60486 91.4941 7.66729C91.4941 7.72972 91.5058 7.79782 91.5116 7.86592C91.5233 7.93402 91.535 7.99645 91.5525 8.03617C91.5701 8.08158 91.5993 8.1213 91.6286 8.16103C91.6578 8.20075 91.6987 8.22913 91.7514 8.24616C91.7981 8.26318 91.8625 8.27453 91.9268 8.27453V8.28021Z" fill="white"/>
<path d="M93.3188 8.51862V5.45971H93.7165V5.77752C93.9504 5.53349 94.2019 5.41431 94.4767 5.41431C94.6346 5.41431 94.7515 5.47106 94.8334 5.58456C94.9153 5.69807 94.9562 5.85697 94.9562 6.06695V8.5243H94.5586V6.15208C94.5586 5.99885 94.5352 5.88535 94.4884 5.82292C94.4416 5.76049 94.3656 5.72644 94.2603 5.72644C94.0908 5.72644 93.9095 5.82292 93.7165 6.0102V8.52997H93.3188V8.51862Z" fill="white"/>
<path d="M96.2952 8.5583C96.0789 8.5583 95.9327 8.50155 95.8508 8.38804C95.7689 8.27454 95.728 8.10428 95.728 7.88295V5.72071H95.3479V5.46533H95.728V4.51758H96.1257V5.46533H96.652V5.72071H96.1257V7.8489C96.1257 8.00213 96.1432 8.10996 96.1841 8.16671C96.2192 8.22346 96.2952 8.25184 96.4122 8.25184C96.4824 8.25184 96.5584 8.24616 96.6344 8.22914V8.51857C96.5175 8.54127 96.4063 8.55262 96.3011 8.55262L96.2952 8.5583Z" fill="white"/>
<path d="M97.6167 8.56934C97.4295 8.56934 97.2775 8.50123 97.1605 8.37071C97.0436 8.24018 96.9792 8.0756 96.9792 7.88264C96.9792 7.78049 96.9909 7.68968 97.0085 7.61023C97.026 7.53078 97.0611 7.457 97.1079 7.38323C97.1547 7.30945 97.2073 7.2527 97.2658 7.19595C97.3243 7.13919 97.4061 7.08244 97.5114 7.02569C97.6167 6.96326 97.7219 6.90651 97.833 6.85544C97.9383 6.80436 98.0786 6.74193 98.2482 6.66815V6.44682C98.2482 6.16306 98.219 5.97011 98.1663 5.86796C98.1137 5.76013 98.0085 5.70905 97.8564 5.70905C97.564 5.70905 97.4178 5.88498 97.4178 6.23117V6.34467L97.026 6.33332C97.026 6.28224 97.026 6.25387 97.026 6.24252C97.0377 5.95308 97.1138 5.7431 97.2599 5.61825C97.4003 5.48772 97.605 5.42529 97.8798 5.42529C98.1547 5.42529 98.3593 5.50474 98.4763 5.66365C98.5932 5.82255 98.6517 6.07794 98.6517 6.43547V7.92237C98.6517 8.1664 98.6634 8.37071 98.681 8.52961H98.3242L98.2658 8.10397C98.219 8.24018 98.1371 8.348 98.0202 8.43881C97.9032 8.52961 97.7687 8.57501 97.6108 8.57501L97.6167 8.56934ZM97.7453 8.2345C97.8506 8.2345 97.95 8.20045 98.0377 8.12667C98.1254 8.0529 98.1956 7.96777 98.2482 7.87129V6.91786C98.2482 6.91786 98.219 6.92921 98.1956 6.94624C98.1079 6.99164 98.0435 7.02569 97.9968 7.04839C97.95 7.07109 97.8974 7.10514 97.833 7.13919C97.7687 7.17324 97.7219 7.2073 97.6868 7.23C97.6576 7.2527 97.6167 7.28107 97.5757 7.31512C97.5348 7.34918 97.5056 7.38323 97.488 7.4116C97.4705 7.43998 97.4529 7.4797 97.4295 7.51375C97.412 7.55348 97.3944 7.59321 97.3886 7.63861C97.3827 7.68401 97.3769 7.72941 97.3769 7.78616C97.3769 7.93372 97.412 8.04722 97.4822 8.121C97.5523 8.19478 97.64 8.22883 97.7453 8.22883V8.2345Z" fill="white"/>
<path d="M100.02 8.56964C99.8741 8.56964 99.7513 8.54694 99.6519 8.50721C99.5466 8.46749 99.4648 8.41074 99.4063 8.34831C99.3478 8.28021 99.301 8.19508 99.2659 8.08725C99.2308 7.97942 99.2075 7.87159 99.1958 7.75809C99.1841 7.64459 99.1782 7.51406 99.1782 7.3665V6.65143C99.1782 6.4301 99.1899 6.24282 99.2133 6.09527C99.2367 5.94771 99.2835 5.82286 99.3478 5.71503C99.4121 5.61288 99.494 5.53343 99.6051 5.48802C99.7162 5.44262 99.8507 5.41992 100.02 5.41992C100.149 5.41992 100.266 5.43695 100.359 5.46532C100.453 5.4937 100.535 5.5391 100.593 5.59018C100.652 5.64693 100.699 5.71503 100.734 5.80016C100.769 5.88529 100.792 5.97609 100.804 6.06689C100.816 6.16337 100.821 6.2712 100.821 6.39605V6.5436H100.453V6.39605C100.453 6.13499 100.424 5.95339 100.359 5.85691C100.295 5.76043 100.184 5.70936 100.026 5.70936C99.8449 5.70936 99.7279 5.77178 99.6694 5.89664C99.611 6.02149 99.5817 6.25417 99.5817 6.58901V7.44596C99.5817 7.75809 99.611 7.97942 99.6753 8.0986C99.7396 8.22345 99.8566 8.28021 100.032 8.28021C100.108 8.28021 100.172 8.26886 100.219 8.25183C100.266 8.2348 100.313 8.20075 100.342 8.1667C100.371 8.13265 100.395 8.08158 100.412 8.01915C100.43 7.95672 100.441 7.88862 100.447 7.81484C100.447 7.74107 100.453 7.65594 100.453 7.54243V7.37218H100.821V7.51973C100.821 7.65594 100.821 7.76944 100.804 7.86592C100.792 7.9624 100.769 8.05887 100.734 8.14968C100.699 8.24048 100.652 8.31426 100.593 8.37668C100.535 8.43344 100.459 8.47884 100.359 8.51289C100.26 8.54694 100.149 8.56396 100.014 8.56396L100.02 8.56964Z" fill="white"/>
<path d="M102.102 8.5583C101.886 8.5583 101.74 8.50155 101.658 8.38804C101.576 8.27454 101.535 8.10428 101.535 7.88295V5.72071H101.155V5.46533H101.535V4.51758H101.933V5.46533H102.459V5.72071H101.933V7.8489C101.933 8.00213 101.95 8.10996 101.991 8.16671C102.026 8.22346 102.102 8.25184 102.219 8.25184C102.289 8.25184 102.365 8.24616 102.441 8.22914V8.51857C102.324 8.54127 102.213 8.55262 102.108 8.55262L102.102 8.5583Z" fill="white"/>
<path d="M103.605 8.56934C103.354 8.56934 103.155 8.48988 103.003 8.33665C102.851 8.17775 102.769 7.96777 102.745 7.70104L103.079 7.60456C103.102 7.83724 103.155 8.00749 103.242 8.11532C103.33 8.22315 103.453 8.2799 103.617 8.2799C103.757 8.2799 103.862 8.24018 103.944 8.16072C104.02 8.08695 104.061 7.98479 104.061 7.85426V7.83724C104.061 7.63293 103.927 7.42863 103.675 7.23L103.248 6.87814C103.096 6.75328 102.985 6.6341 102.915 6.5206C102.845 6.4071 102.816 6.27657 102.816 6.12334C102.816 5.90201 102.886 5.72608 103.02 5.6069C103.155 5.48772 103.336 5.42529 103.564 5.42529C103.792 5.42529 103.973 5.49907 104.102 5.64095C104.225 5.78283 104.295 5.98146 104.313 6.22549L104.032 6.31629C104.02 6.11199 103.979 5.95876 103.903 5.86228C103.827 5.7658 103.722 5.71473 103.587 5.71473C103.465 5.71473 103.365 5.74878 103.289 5.81688C103.219 5.88498 103.178 5.97011 103.178 6.07794C103.178 6.18009 103.196 6.26522 103.237 6.33332C103.272 6.4071 103.342 6.48087 103.441 6.566L103.886 6.95191C103.968 7.02002 104.032 7.07677 104.079 7.12784C104.131 7.17892 104.184 7.24135 104.242 7.31512C104.301 7.3889 104.342 7.46835 104.371 7.55916C104.4 7.64428 104.412 7.74076 104.418 7.83724C104.418 8.06992 104.348 8.25153 104.201 8.38206C104.055 8.51258 103.856 8.57501 103.611 8.57501L103.605 8.56934Z" fill="white"/>
<path d="M120.072 8.51864V4.23389H121.13C121.323 4.23389 121.487 4.26226 121.628 4.31334C121.768 4.36442 121.873 4.44387 121.955 4.54602C122.037 4.64817 122.095 4.76735 122.13 4.90356C122.166 5.03976 122.183 5.19299 122.183 5.36892C122.183 5.52783 122.166 5.67538 122.125 5.80591C122.084 5.93644 122.025 6.05562 121.943 6.15777C121.861 6.25992 121.756 6.34505 121.616 6.4018C121.481 6.45855 121.318 6.4926 121.13 6.4926H120.481V8.51864H120.066H120.072ZM120.487 6.19182H121.019C121.288 6.19182 121.487 6.12939 121.598 6.01021C121.715 5.89104 121.774 5.67538 121.774 5.3746C121.774 5.04544 121.721 4.8241 121.622 4.7106C121.516 4.5971 121.318 4.54035 121.025 4.54035H120.487V6.1975V6.19182Z" fill="white"/>
<path d="M122.663 8.51856V5.45965H123.06V5.87961C123.154 5.72638 123.271 5.61288 123.399 5.53343C123.528 5.45965 123.657 5.41992 123.791 5.41992C123.82 5.41992 123.844 5.41992 123.861 5.41992V5.83988C123.803 5.81718 123.739 5.80583 123.668 5.80583C123.411 5.80583 123.212 5.92501 123.066 6.16337V8.51289H122.668L122.663 8.51856Z" fill="white"/>
<path d="M124.3 5.03951V4.51172H124.704V5.03951H124.3ZM124.3 8.51839V5.45947H124.698V8.51839H124.3Z" fill="white"/>
<path d="M126.148 8.56964C126.002 8.56964 125.879 8.54694 125.78 8.50721C125.674 8.46749 125.592 8.41074 125.534 8.34831C125.475 8.28021 125.429 8.19508 125.394 8.08725C125.359 7.97942 125.335 7.87159 125.323 7.75809C125.312 7.64459 125.306 7.51406 125.306 7.3665V6.65143C125.306 6.4301 125.318 6.24282 125.341 6.09527C125.364 5.94771 125.411 5.82286 125.475 5.71503C125.54 5.61288 125.622 5.53343 125.733 5.48802C125.844 5.44262 125.978 5.41992 126.148 5.41992C126.277 5.41992 126.394 5.43695 126.487 5.46532C126.581 5.4937 126.663 5.5391 126.721 5.59018C126.78 5.64693 126.826 5.71503 126.861 5.80016C126.897 5.88529 126.92 5.97609 126.932 6.06689C126.943 6.16337 126.949 6.2712 126.949 6.39605V6.5436H126.581V6.39605C126.581 6.13499 126.551 5.95339 126.487 5.85691C126.423 5.76043 126.312 5.70936 126.154 5.70936C125.973 5.70936 125.856 5.77178 125.797 5.89664C125.739 6.02149 125.709 6.25417 125.709 6.58901V7.44596C125.709 7.75809 125.739 7.97942 125.803 8.0986C125.867 8.22345 125.984 8.28021 126.16 8.28021C126.236 8.28021 126.3 8.26886 126.347 8.25183C126.394 8.2348 126.44 8.20075 126.47 8.1667C126.499 8.13265 126.522 8.08158 126.54 8.01915C126.557 7.95672 126.569 7.88862 126.575 7.81484C126.575 7.74107 126.581 7.65594 126.581 7.54243V7.37218H126.949V7.51973C126.949 7.65594 126.949 7.76944 126.932 7.86592C126.92 7.9624 126.897 8.05887 126.861 8.14968C126.826 8.24048 126.78 8.31426 126.721 8.37668C126.663 8.43344 126.587 8.47884 126.487 8.51289C126.388 8.54694 126.277 8.56396 126.142 8.56396L126.148 8.56964Z" fill="white"/>
<path d="M127.528 5.03951V4.51172H127.932V5.03951H127.528ZM127.528 8.51839V5.45947H127.926V8.51839H127.528Z" fill="white"/>
<path d="M128.598 8.51862V5.45971H128.996V5.77752C129.229 5.53349 129.481 5.41431 129.756 5.41431C129.914 5.41431 130.031 5.47106 130.112 5.58456C130.194 5.69807 130.235 5.85697 130.235 6.06695V8.5243H129.838V6.15208C129.838 5.99885 129.814 5.88535 129.767 5.82292C129.721 5.76049 129.645 5.72644 129.539 5.72644C129.37 5.72644 129.189 5.82292 128.996 6.0102V8.52997H128.598V8.51862Z" fill="white"/>
<path d="M131.692 9.523C131.522 9.523 131.376 9.51165 131.253 9.49463C131.131 9.4776 131.014 9.44923 130.914 9.4095C130.815 9.36977 130.745 9.3187 130.692 9.2506C130.639 9.18249 130.616 9.10304 130.616 9.00656C130.616 8.85901 130.669 8.7228 130.768 8.59795C130.867 8.4731 130.99 8.37662 131.136 8.30284C131.043 8.28014 130.961 8.24042 130.891 8.18934C130.821 8.13826 130.786 8.08719 130.786 8.03043C130.786 7.86585 130.908 7.66155 131.16 7.41184C130.897 7.22456 130.768 6.91243 130.768 6.47544C130.768 6.32788 130.786 6.19168 130.821 6.06115C130.856 5.9363 130.908 5.82279 130.979 5.72064C131.049 5.62416 131.142 5.54471 131.253 5.48796C131.364 5.43121 131.499 5.40283 131.645 5.40283C131.961 5.40283 132.189 5.52769 132.324 5.78307C132.359 5.72632 132.411 5.66389 132.493 5.59579C132.575 5.52769 132.657 5.47661 132.75 5.43688L132.832 5.40283L132.938 5.67524C132.85 5.69794 132.75 5.73199 132.645 5.78874C132.54 5.83982 132.464 5.8909 132.417 5.94197C132.446 6.0044 132.47 6.08953 132.487 6.20303C132.505 6.31086 132.516 6.40734 132.516 6.48111C132.516 6.81027 132.446 7.07133 132.306 7.26429C132.166 7.45724 131.943 7.55372 131.645 7.55372C131.598 7.55372 131.54 7.55372 131.47 7.53669C131.4 7.52534 131.353 7.51399 131.324 7.50264C131.324 7.51399 131.3 7.54237 131.265 7.59345C131.23 7.64452 131.207 7.68425 131.189 7.70695C131.172 7.73533 131.154 7.7637 131.136 7.80343C131.119 7.84315 131.107 7.87153 131.107 7.89991C131.107 7.95098 131.195 7.99071 131.37 8.01908C131.405 8.03043 131.499 8.04179 131.639 8.06449C131.78 8.08719 131.862 8.09854 131.879 8.10421C132.136 8.14961 132.335 8.22907 132.47 8.33689C132.604 8.4504 132.669 8.60363 132.669 8.80793C132.669 9.05196 132.581 9.22789 132.405 9.34707C132.23 9.46058 131.99 9.523 131.692 9.523ZM131.692 9.21087C131.897 9.21087 132.06 9.17682 132.183 9.11439C132.306 9.05196 132.364 8.94981 132.364 8.81928C132.364 8.70578 132.324 8.62065 132.242 8.55823C132.16 8.4958 132.002 8.44472 131.768 8.405L131.364 8.35392C131.095 8.51282 130.967 8.68875 130.967 8.87603C130.967 8.99521 131.025 9.08034 131.136 9.13142C131.248 9.18249 131.435 9.21087 131.698 9.21087H131.692ZM131.657 7.27564C131.745 7.27564 131.821 7.25861 131.891 7.22456C131.961 7.19051 132.008 7.15078 132.043 7.09971C132.078 7.04863 132.107 6.9862 132.131 6.91243C132.154 6.83865 132.166 6.76487 132.171 6.70245C132.177 6.63434 132.183 6.56057 132.183 6.47544C132.183 5.94765 132.014 5.68659 131.669 5.68659C131.587 5.68659 131.511 5.70362 131.446 5.73767C131.382 5.77172 131.329 5.81144 131.294 5.8682C131.259 5.92495 131.224 5.9817 131.201 6.05548C131.177 6.12925 131.16 6.19736 131.154 6.26546C131.148 6.33356 131.142 6.40734 131.142 6.48111C131.142 7.01458 131.318 7.28131 131.669 7.28131L131.657 7.27564Z" fill="white"/>
<path d="M148.638 8.51864V4.23389H149.697C149.89 4.23389 150.054 4.26226 150.194 4.31334C150.334 4.36442 150.44 4.44387 150.521 4.54602C150.603 4.64817 150.662 4.76735 150.697 4.90356C150.732 5.03976 150.749 5.19299 150.749 5.36892C150.749 5.52783 150.732 5.67538 150.691 5.80591C150.65 5.93644 150.592 6.05562 150.51 6.15777C150.428 6.25992 150.323 6.34505 150.182 6.4018C150.048 6.45855 149.884 6.4926 149.697 6.4926H149.048V8.51864H148.633H148.638ZM149.054 6.19182H149.586C149.855 6.19182 150.054 6.12939 150.165 6.01021C150.282 5.89104 150.34 5.67538 150.34 5.3746C150.34 5.04544 150.287 4.8241 150.188 4.7106C150.083 4.5971 149.884 4.54035 149.592 4.54035H149.054V6.1975V6.19182Z" fill="white"/>
<path d="M151.744 8.56934C151.557 8.56934 151.405 8.50123 151.288 8.37071C151.171 8.24018 151.106 8.0756 151.106 7.88264C151.106 7.78049 151.118 7.68968 151.136 7.61023C151.153 7.53078 151.188 7.457 151.235 7.38323C151.282 7.30945 151.335 7.2527 151.393 7.19595C151.451 7.13919 151.533 7.08244 151.639 7.02569C151.744 6.96326 151.849 6.90651 151.96 6.85544C152.065 6.80436 152.206 6.74193 152.375 6.66815V6.44682C152.375 6.16306 152.346 5.97011 152.294 5.86796C152.241 5.76013 152.136 5.70905 151.984 5.70905C151.691 5.70905 151.545 5.88498 151.545 6.23117V6.34467L151.153 6.33332C151.153 6.28224 151.153 6.25387 151.153 6.24252C151.165 5.95308 151.241 5.7431 151.387 5.61825C151.527 5.48772 151.732 5.42529 152.007 5.42529C152.282 5.42529 152.487 5.50474 152.603 5.66365C152.72 5.82255 152.779 6.07794 152.779 6.43547V7.92237C152.779 8.1664 152.791 8.37071 152.808 8.52961H152.451L152.393 8.10397C152.346 8.24018 152.264 8.348 152.147 8.43881C152.03 8.52961 151.896 8.57501 151.738 8.57501L151.744 8.56934ZM151.873 8.2345C151.978 8.2345 152.077 8.20045 152.165 8.12667C152.253 8.0529 152.323 7.96777 152.375 7.87129V6.91786C152.375 6.91786 152.346 6.92921 152.323 6.94624C152.235 6.99164 152.171 7.02569 152.124 7.04839C152.077 7.07109 152.025 7.10514 151.96 7.13919C151.896 7.17324 151.849 7.2073 151.814 7.23C151.785 7.2527 151.744 7.28107 151.703 7.31512C151.662 7.34918 151.633 7.38323 151.615 7.4116C151.598 7.43998 151.58 7.4797 151.557 7.51375C151.539 7.55348 151.522 7.59321 151.516 7.63861C151.51 7.68401 151.504 7.72941 151.504 7.78616C151.504 7.93372 151.539 8.04722 151.609 8.121C151.68 8.19478 151.767 8.22883 151.873 8.22883V8.2345Z" fill="white"/>
<path d="M153.393 8.51856V5.45965H153.79V5.87961C153.884 5.72638 154.001 5.61288 154.13 5.53343C154.258 5.45965 154.387 5.41992 154.521 5.41992C154.551 5.41992 154.574 5.41992 154.592 5.41992V5.83988C154.533 5.81718 154.469 5.80583 154.399 5.80583C154.141 5.80583 153.943 5.92501 153.796 6.16337V8.51289H153.399L153.393 8.51856Z" fill="white"/>
<path d="M155.732 8.5583C155.516 8.5583 155.369 8.50155 155.288 8.38804C155.206 8.27454 155.165 8.10428 155.165 7.88295V5.72071H154.785V5.46533H155.165V4.51758H155.562V5.46533H156.089V5.72071H155.562V7.8489C155.562 8.00213 155.58 8.10996 155.621 8.16671C155.656 8.22346 155.732 8.25184 155.849 8.25184C155.919 8.25184 155.995 8.24616 156.071 8.22914V8.51857C155.954 8.54127 155.843 8.55262 155.738 8.55262L155.732 8.5583Z" fill="white"/>
<path d="M156.51 8.51862V5.45971H156.908V5.77752C157.142 5.53349 157.393 5.41431 157.668 5.41431C157.826 5.41431 157.943 5.47106 158.025 5.58456C158.106 5.69807 158.147 5.85697 158.147 6.06695V8.5243H157.75V6.15208C157.75 5.99885 157.726 5.88535 157.68 5.82292C157.633 5.76049 157.557 5.72644 157.451 5.72644C157.282 5.72644 157.101 5.82292 156.908 6.0102V8.52997H156.51V8.51862Z" fill="white"/>
<path d="M159.533 8.5697C159.229 8.5697 159.013 8.4789 158.878 8.29729C158.744 8.11569 158.679 7.80923 158.679 7.37224V6.60042C158.679 6.29963 158.709 6.06695 158.773 5.89102C158.837 5.71509 158.931 5.59591 159.048 5.52213C159.171 5.45403 159.329 5.41431 159.533 5.41431C159.668 5.41431 159.779 5.43133 159.872 5.46538C159.966 5.49943 160.042 5.54484 160.106 5.60726C160.171 5.66969 160.217 5.75482 160.252 5.85697C160.288 5.9648 160.317 6.0783 160.329 6.20883C160.34 6.33936 160.352 6.49259 160.352 6.67419V6.95228H159.077V7.41197C159.077 7.72978 159.106 7.95111 159.171 8.08164C159.235 8.21216 159.352 8.28027 159.527 8.28027C159.668 8.28027 159.773 8.23487 159.849 8.14974C159.925 8.06461 159.96 7.91138 159.96 7.68437V7.47439H160.352V7.64465C160.352 7.93976 160.288 8.16676 160.159 8.33134C160.03 8.49025 159.82 8.5697 159.533 8.5697ZM159.083 6.73095H159.966V6.47556C159.966 6.36773 159.966 6.28261 159.96 6.20883C159.96 6.14073 159.943 6.06695 159.925 5.99885C159.907 5.93075 159.884 5.874 159.855 5.83427C159.826 5.79454 159.785 5.76617 159.732 5.73779C159.679 5.71509 159.615 5.70374 159.539 5.70374C159.369 5.70374 159.253 5.76049 159.188 5.874C159.124 5.9875 159.089 6.20315 159.089 6.52096V6.72527L159.083 6.73095Z" fill="white"/>
<path d="M160.925 8.51856V5.45965H161.323V5.87961C161.416 5.72638 161.533 5.61288 161.662 5.53343C161.791 5.45965 161.919 5.41992 162.054 5.41992C162.083 5.41992 162.106 5.41992 162.124 5.41992V5.83988C162.065 5.81718 162.001 5.80583 161.931 5.80583C161.674 5.80583 161.475 5.92501 161.329 6.16337V8.51289H160.931L160.925 8.51856Z" fill="white"/>
<path d="M163.241 8.56934C162.989 8.56934 162.79 8.48988 162.638 8.33665C162.486 8.17775 162.404 7.96777 162.381 7.70104L162.714 7.60456C162.738 7.83724 162.79 8.00749 162.878 8.11532C162.966 8.22315 163.089 8.2799 163.252 8.2799C163.393 8.2799 163.498 8.24018 163.58 8.16072C163.656 8.08695 163.697 7.98479 163.697 7.85426V7.83724C163.697 7.63293 163.562 7.42863 163.311 7.23L162.884 6.87814C162.732 6.75328 162.621 6.6341 162.551 6.5206C162.481 6.4071 162.451 6.27657 162.451 6.12334C162.451 5.90201 162.521 5.72608 162.656 5.6069C162.79 5.48772 162.972 5.42529 163.2 5.42529C163.428 5.42529 163.609 5.49907 163.738 5.64095C163.861 5.78283 163.931 5.98146 163.948 6.22549L163.668 6.31629C163.656 6.11199 163.615 5.95876 163.539 5.86228C163.463 5.7658 163.358 5.71473 163.223 5.71473C163.1 5.71473 163.001 5.74878 162.925 5.81688C162.855 5.88498 162.814 5.97011 162.814 6.07794C162.814 6.18009 162.831 6.26522 162.872 6.33332C162.907 6.4071 162.978 6.48087 163.077 6.566L163.521 6.95191C163.603 7.02002 163.668 7.07677 163.714 7.12784C163.767 7.17892 163.82 7.24135 163.878 7.31512C163.937 7.3889 163.978 7.46835 164.007 7.55916C164.036 7.64428 164.048 7.74076 164.054 7.83724C164.054 8.06992 163.983 8.25153 163.837 8.38206C163.691 8.51258 163.492 8.57501 163.247 8.57501L163.241 8.56934Z" fill="white"/>
<g opacity="0.1">
<path style="mix-blend-mode:lighten" opacity="0.5" d="M55.6766 124.593L3.75429 95.496C1.43857 94.1963 1.73096 91.9319 4.40339 90.4337L105.178 33.9828C107.85 32.4846 111.897 32.32 114.213 33.6196L166.129 62.7162C168.445 64.0158 168.153 66.2802 165.48 67.7784L64.7114 124.229C62.039 125.728 57.9924 125.892 55.6766 124.593Z" fill="url(#paint2_radial_34_18418)"/>
<path d="M113.02 113.668C113.02 107.34 108.441 99.6449 102.792 96.4782C99.9616 94.8948 97.4003 94.7472 95.5524 95.7915L93.6168 96.8868L94.1782 96.9379C93.1607 98.1467 92.5642 99.9343 92.5642 102.21C92.5642 108.538 97.143 116.233 102.792 119.4C104.733 120.49 106.546 120.898 108.09 120.711L108.049 121.216L110.014 120.104C110.014 120.104 110.031 120.093 110.037 120.093L110.119 120.047C111.914 118.986 113.026 116.79 113.026 113.674L113.02 113.668Z" fill="#9FFFF8"/>
<path d="M108.065 121.207C112.059 118.969 112.06 111.713 108.066 105.001C104.073 98.288 97.5977 94.6605 93.6037 96.8984C89.6096 99.1363 89.6092 106.392 93.6026 113.105C97.596 119.818 104.071 123.445 108.065 121.207Z" fill="#42E8E0"/>
</g>
<path opacity="0.4" d="M155.042 67.5514C154.247 67.994 152.966 67.994 152.171 67.5514C151.375 67.1087 151.375 66.3879 152.171 65.9453C152.966 65.5026 154.247 65.5026 155.042 65.9453C155.837 66.3879 155.837 67.1087 155.042 67.5514Z" fill="#24126A"/>
<path opacity="0.4" d="M144.089 59.8048L149.709 62.9545C150.393 63.3405 150.311 64.0101 149.516 64.4528C148.72 64.8954 147.522 64.9465 146.837 64.5606L141.218 61.4109C140.534 61.025 140.615 60.3553 141.411 59.9126C142.206 59.47 143.405 59.4189 144.089 59.8048Z" fill="#24126A"/>
<path opacity="0.4" d="M112.043 40.9237L117.663 44.0734C118.347 44.4593 118.265 45.129 117.47 45.5717C116.675 46.0143 115.476 46.0654 114.792 45.6795L109.172 42.5298C108.488 42.1439 108.57 41.4742 109.365 41.0315C110.16 40.5889 111.359 40.5378 112.043 40.9237Z" fill="#24126A"/>
<path d="M155.042 65.5936C154.247 66.0363 152.966 66.0363 152.171 65.5936C151.375 65.1509 151.375 64.4302 152.171 63.9875C152.966 63.5449 154.247 63.5449 155.042 63.9875C155.837 64.4302 155.837 65.1509 155.042 65.5936Z" fill="#42E8E0"/>
<path d="M144.089 57.8471L149.709 60.9968C150.393 61.3827 150.311 62.0524 149.516 62.495C148.72 62.9377 147.522 62.9888 146.837 62.6028L141.218 59.4531C140.534 59.0672 140.615 58.3975 141.411 57.9549C142.206 57.5122 143.405 57.4611 144.089 57.8471Z" fill="#42E8E0"/>
<path d="M112.043 38.9713L117.663 42.121C118.347 42.507 118.265 43.1766 117.47 43.6193C116.675 44.0619 115.476 44.113 114.792 43.7271L109.172 40.5774C108.488 40.1915 108.57 39.5218 109.365 39.0792C110.16 38.6365 111.359 38.5854 112.043 38.9713Z" fill="#42E8E0"/>
<g opacity="0.3">
<path d="M186.526 134.314V131.771L185.801 131.38C185.596 132.583 184.14 133.372 182.924 133.536L174.638 138.241L171.018 139.507L159.474 133.724L159.743 133.576C158.755 133.128 158.223 132.106 157.691 131.17L156.913 131.618L156.451 131.743V134.354C156.451 134.853 156.79 135.353 157.469 135.727L169.036 142.208C170.392 142.969 172.591 142.969 173.948 142.208L185.515 135.727C186.181 135.353 186.52 134.864 186.532 134.376C186.532 134.354 186.532 134.331 186.532 134.308L186.526 134.314Z" fill="url(#paint3_linear_34_18418)"/>
<path opacity="0.3" d="M182.924 133.531L174.638 138.236L171.491 139.337V142.776C172.38 142.776 173.269 142.589 173.948 142.209L185.514 135.727C186.181 135.353 186.52 134.865 186.532 134.377C186.532 134.354 186.532 134.331 186.532 134.309V131.766L185.871 131.409H185.801C185.573 132.589 184.134 133.367 182.93 133.531H182.924Z" fill="#0F054C"/>
<path d="M169.03 139.626L157.463 133.145C156.106 132.385 156.106 131.153 157.463 130.393L169.03 123.912C170.386 123.151 172.585 123.151 173.942 123.912L185.509 130.393C186.865 131.153 186.865 132.385 185.509 133.145L173.942 139.626C172.585 140.387 170.386 140.387 169.03 139.626Z" fill="url(#paint4_linear_34_18418)"/>
<g opacity="0.3">
<path d="M169.03 139.626L157.463 133.145C156.106 132.385 156.106 131.153 157.463 130.393L169.03 123.912C170.386 123.151 172.585 123.151 173.942 123.912L185.509 130.393C186.865 131.153 186.865 132.385 185.509 133.145L173.942 139.626C172.585 140.387 170.386 140.387 169.03 139.626Z" fill="#0F054C"/>
</g>
</g>
<path d="M171.486 131.431C170.696 131.431 169.907 131.261 169.305 130.926L157.738 124.445C157.135 124.11 156.808 123.656 156.808 123.168C156.808 122.68 157.141 122.226 157.738 121.891L169.305 115.41C170.509 114.74 172.462 114.735 173.667 115.41L185.234 121.891C185.836 122.226 186.164 122.68 186.164 123.168C186.164 123.656 185.83 124.11 185.234 124.445L173.667 130.926C173.065 131.261 172.275 131.431 171.486 131.431ZM171.486 115.098C170.731 115.098 169.977 115.257 169.404 115.58L157.837 122.061C157.299 122.362 157.007 122.754 157.007 123.168C157.007 123.582 157.299 123.974 157.837 124.275L169.404 130.756C170.55 131.397 172.416 131.397 173.562 130.756L185.129 124.275C185.667 123.974 185.959 123.582 185.959 123.168C185.959 122.754 185.667 122.362 185.129 122.061L173.562 115.58C172.989 115.257 172.234 115.098 171.48 115.098H171.486Z" fill="#42E8E0"/>
<path opacity="0.4" d="M186.526 120.682V116.84L185.801 116.449C185.596 117.652 184.14 118.44 182.924 118.605L174.638 123.31L171.018 124.575L159.474 118.792L159.743 118.645C158.755 118.196 158.223 117.175 157.691 116.239L156.913 116.687L156.451 116.812V120.722C156.451 121.221 156.79 121.721 157.469 122.095L169.036 128.576C170.392 129.337 172.591 129.337 173.948 128.576L185.515 122.095C186.181 121.721 186.52 121.233 186.532 120.745C186.532 120.722 186.532 120.699 186.532 120.677L186.526 120.682Z" fill="#42E8E0"/>
<path d="M186.526 117.266V114.724L185.801 114.332C185.596 115.535 184.14 116.324 182.924 116.489L174.638 121.193L171.018 122.459L159.474 116.676L159.743 116.528C158.755 116.08 158.223 115.058 157.691 114.122L156.913 114.57L156.451 114.695V117.306C156.451 117.805 156.79 118.305 157.469 118.679L169.036 125.16C170.392 125.921 172.591 125.921 173.948 125.16L185.515 118.679C186.181 118.305 186.52 117.817 186.532 117.329C186.532 117.306 186.532 117.283 186.532 117.26L186.526 117.266Z" fill="url(#paint5_linear_34_18418)"/>
<path opacity="0.3" d="M182.924 116.488L174.638 121.193L171.491 122.294V125.733C172.38 125.733 173.269 125.546 173.948 125.166L185.514 118.685C186.181 118.31 186.52 117.822 186.532 117.334C186.532 117.311 186.532 117.288 186.532 117.266V114.723L185.871 114.366H185.801C185.573 115.546 184.134 116.324 182.93 116.488H182.924Z" fill="#0F054C"/>
<path d="M169.03 122.578L157.463 116.097C156.106 115.336 156.106 114.105 157.463 113.344L169.03 106.863C170.387 106.103 172.585 106.103 173.942 106.863L185.509 113.344C186.866 114.105 186.866 115.336 185.509 116.097L173.942 122.578C172.585 123.338 170.387 123.338 169.03 122.578Z" fill="url(#paint6_linear_34_18418)"/>
<path d="M185.509 116.097L173.942 122.578C172.585 123.338 170.386 123.338 169.03 122.578L157.463 116.097C156.855 115.756 156.521 115.325 156.457 114.877C156.375 115.427 156.714 115.989 157.463 116.409L169.03 122.89C170.386 123.651 172.585 123.651 173.942 122.89L185.509 116.409C186.257 115.989 186.591 115.422 186.515 114.877C186.45 115.319 186.117 115.756 185.509 116.097Z" fill="white"/>
<g opacity="0.3">
<path d="M135.025 149.438V146.896L134.3 146.504C134.095 147.708 132.639 148.496 131.423 148.661L123.137 153.366L119.517 154.631L107.973 148.848L108.242 148.701C107.254 148.252 106.722 147.231 106.19 146.294L105.412 146.743L104.95 146.868V149.478C104.95 149.978 105.289 150.477 105.968 150.852L117.535 157.333C118.891 158.093 121.09 158.093 122.447 157.333L134.014 150.852C134.68 150.477 135.019 149.989 135.031 149.501C135.031 149.478 135.031 149.456 135.031 149.433L135.025 149.438Z" fill="url(#paint7_linear_34_18418)"/>
<path opacity="0.3" d="M131.423 148.661L123.137 153.366L119.99 154.467V157.906C120.879 157.906 121.768 157.718 122.447 157.338L134.013 150.857C134.68 150.483 135.019 149.995 135.031 149.506C135.031 149.484 135.031 149.461 135.031 149.438V146.896L134.37 146.538H134.3C134.072 147.719 132.633 148.496 131.429 148.661H131.423Z" fill="#0F054C"/>
<path d="M117.528 154.75L105.962 148.269C104.605 147.509 104.605 146.277 105.962 145.517L117.528 139.036C118.885 138.275 121.084 138.275 122.441 139.036L134.008 145.517C135.364 146.277 135.364 147.509 134.008 148.269L122.441 154.75C121.084 155.511 118.885 155.511 117.528 154.75Z" fill="url(#paint8_linear_34_18418)"/>
<g opacity="0.3">
<path d="M117.528 154.75L105.962 148.269C104.605 147.509 104.605 146.277 105.962 145.517L117.528 139.036C118.885 138.275 121.084 138.275 122.441 139.036L134.008 145.517C135.364 146.277 135.364 147.509 134.008 148.269L122.441 154.75C121.084 155.511 118.885 155.511 117.528 154.75Z" fill="#0F054C"/>
</g>
</g>
<path d="M119.985 145.324C119.195 145.324 118.406 145.154 117.803 144.819L106.236 138.338C105.634 138.003 105.307 137.549 105.307 137.061C105.307 136.573 105.64 136.119 106.236 135.784L117.803 129.303C119.008 128.628 120.961 128.628 122.166 129.303L133.733 135.784C134.335 136.119 134.662 136.573 134.662 137.061C134.662 137.549 134.329 138.003 133.733 138.338L122.166 144.819C121.563 145.154 120.774 145.324 119.985 145.324ZM117.909 144.649C119.055 145.29 120.92 145.29 122.066 144.649L133.633 138.168C134.171 137.867 134.464 137.475 134.464 137.061C134.464 136.647 134.171 136.255 133.633 135.954L122.066 129.473C120.92 128.832 119.055 128.832 117.909 129.473L106.342 135.954C105.81 136.255 105.511 136.647 105.511 137.061C105.511 137.475 105.804 137.867 106.342 138.168L117.909 144.649Z" fill="#42E8E0"/>
<path opacity="0.4" d="M135.025 134.57V130.728L134.3 130.336C134.095 131.539 132.639 132.328 131.423 132.493L123.137 137.197L119.517 138.463L107.973 132.68L108.242 132.532C107.254 132.084 106.722 131.062 106.19 130.126L105.412 130.574L104.95 130.699V134.609C104.95 135.109 105.289 135.608 105.967 135.983L117.534 142.464C118.891 143.224 121.09 143.224 122.446 142.464L134.013 135.983C134.68 135.608 135.019 135.12 135.031 134.632C135.031 134.609 135.031 134.587 135.031 134.564L135.025 134.57Z" fill="#42E8E0"/>
<path d="M135.025 131.153V128.61L134.3 128.219C134.095 129.422 132.639 130.211 131.423 130.375L123.137 135.08L119.517 136.346L107.973 130.563L108.242 130.415C107.254 129.967 106.722 128.945 106.19 128.009L105.412 128.457L104.95 128.582V131.193C104.95 131.692 105.289 132.191 105.967 132.566L117.534 139.047C118.891 139.807 121.09 139.807 122.446 139.047L134.013 132.566C134.68 132.191 135.019 131.703 135.031 131.215C135.031 131.193 135.031 131.17 135.031 131.147L135.025 131.153Z" fill="url(#paint9_linear_34_18418)"/>
<path opacity="0.3" d="M131.423 130.376L123.136 135.08L119.99 136.181V139.621C120.879 139.621 121.768 139.433 122.446 139.053L134.013 132.572C134.68 132.197 135.019 131.709 135.031 131.221C135.031 131.199 135.031 131.176 135.031 131.153V128.611L134.37 128.253H134.3C134.072 129.434 132.633 130.211 131.428 130.376H131.423Z" fill="#0F054C"/>
<path d="M117.529 136.465L105.962 129.984C104.605 129.223 104.605 127.992 105.962 127.231L117.529 120.75C118.885 119.99 121.084 119.99 122.441 120.75L134.008 127.231C135.364 127.992 135.364 129.223 134.008 129.984L122.441 136.465C121.084 137.225 118.885 137.225 117.529 136.465Z" fill="url(#paint10_linear_34_18418)"/>
<path d="M119.984 135.29C119.271 135.29 118.557 135.137 118.014 134.836L108.979 129.774C108.435 129.467 108.137 129.059 108.137 128.61C108.137 128.162 108.435 127.754 108.979 127.453L118.014 122.39C119.101 121.783 120.867 121.783 121.955 122.39L130.99 127.453C131.534 127.759 131.832 128.168 131.832 128.616C131.832 129.059 131.534 129.473 130.99 129.774L121.955 134.836C121.411 135.143 120.698 135.29 119.984 135.29ZM118.119 134.666C119.148 135.245 120.826 135.245 121.856 134.666L130.89 129.604C131.37 129.337 131.633 128.985 131.633 128.616C131.633 128.247 131.37 127.895 130.89 127.623L121.856 122.561C120.826 121.982 119.148 121.982 118.119 122.561L109.084 127.623C108.605 127.89 108.341 128.242 108.341 128.61C108.341 128.979 108.605 129.331 109.084 129.598L118.119 134.66V134.666Z" fill="#5351AF"/>
<path d="M134.008 129.984L122.441 136.465C121.084 137.226 118.885 137.226 117.529 136.465L105.962 129.984C105.353 129.644 105.02 129.212 104.956 128.764C104.874 129.314 105.213 129.876 105.962 130.296L117.529 136.777C118.885 137.538 121.084 137.538 122.441 136.777L134.008 130.296C134.756 129.876 135.089 129.309 135.013 128.764C134.949 129.207 134.616 129.644 134.008 129.984Z" fill="white"/>
<g opacity="0.3">
<path d="M36.0983 59.2087V56.6663L35.3732 56.2747C35.1685 57.4778 33.7124 58.2667 32.496 58.4312L24.2098 63.136L20.59 64.4015L9.04649 58.6185L9.31549 58.471C8.32721 58.0226 7.79507 57.0011 7.26292 56.0647L6.48517 56.513L6.02319 56.6379V59.2485C6.02319 59.7479 6.36236 60.2473 7.04071 60.6219L18.6076 67.1029C19.9643 67.8634 22.163 67.8634 23.5197 67.1029L35.0866 60.6219C35.7533 60.2473 36.0924 59.7592 36.1041 59.2712C36.1041 59.2485 36.1041 59.2258 36.1041 59.2031L36.0983 59.2087Z" fill="url(#paint11_linear_34_18418)"/>
<path opacity="0.3" d="M32.4959 58.4316L24.2096 63.1363L21.0635 64.2373V67.6764C21.9523 67.6764 22.8412 67.4892 23.5195 67.1089L35.0864 60.6279C35.7531 60.2533 36.0922 59.7653 36.1039 59.2772C36.1039 59.2545 36.1039 59.2318 36.1039 59.2091V56.6666L35.4431 56.3091H35.373C35.1449 57.4895 33.7064 58.267 32.5017 58.4316H32.4959Z" fill="#0F054C"/>
<path d="M18.6076 64.5266L7.04071 58.0456C5.68402 57.2851 5.68402 56.0536 7.04071 55.2931L18.6076 48.8121C19.9643 48.0516 22.163 48.0516 23.5197 48.8121L35.0866 55.2931C36.4433 56.0536 36.4433 57.2851 35.0866 58.0456L23.5197 64.5266C22.163 65.2871 19.9643 65.2871 18.6076 64.5266Z" fill="url(#paint12_linear_34_18418)"/>
<g opacity="0.3">
<path d="M18.6076 64.5266L7.04071 58.0456C5.68402 57.2851 5.68402 56.0536 7.04071 55.2931L18.6076 48.8121C19.9643 48.0516 22.163 48.0516 23.5197 48.8121L35.0866 55.2931C36.4433 56.0536 36.4433 57.2851 35.0866 58.0456L23.5197 64.5266C22.163 65.2871 19.9643 65.2871 18.6076 64.5266Z" fill="#0F054C"/>
</g>
</g>
<path d="M21.0636 56.7575C20.2742 56.7575 19.4847 56.5872 18.8824 56.2524L7.31554 49.7714C6.71322 49.4365 6.38574 48.9825 6.38574 48.4944C6.38574 48.0064 6.71907 47.5524 7.31554 47.2175L18.8824 40.7365C20.0871 40.0611 22.0402 40.0611 23.2449 40.7365L34.8118 47.2175C35.4141 47.5524 35.7415 48.0064 35.7415 48.4944C35.7415 48.9825 35.4082 49.4365 34.8118 49.7714L23.2449 56.2524C22.6425 56.5872 21.8531 56.7575 21.0636 56.7575ZM21.0636 40.4244C20.3093 40.4244 19.5608 40.5833 18.9818 40.9067L7.41495 47.3878C6.87696 47.6886 6.58457 48.0802 6.58457 48.4944C6.58457 48.9087 6.87696 49.3003 7.41495 49.6011L18.9818 56.0821C20.128 56.7234 21.9934 56.7234 23.1396 56.0821L34.7065 49.6011C35.2445 49.3003 35.5369 48.9087 35.5369 48.4944C35.5369 48.0802 35.2445 47.6886 34.7065 47.3878L23.1396 40.9067C22.5665 40.5833 21.8122 40.4244 21.0578 40.4244H21.0636Z" fill="#42E8E0"/>
<path opacity="0.4" d="M36.0983 46.0086V42.1665L35.3732 41.7749C35.1685 42.9781 33.7124 43.7669 32.496 43.9315L24.2098 48.6362L20.59 49.9018L9.04649 44.1188L9.31549 43.9712C8.32721 43.5229 7.79507 42.5013 7.26292 41.5649L6.48517 42.0133L6.02319 42.1381V46.0483C6.02319 46.5477 6.36236 47.0472 7.04071 47.4217L18.6076 53.9028C19.9643 54.6632 22.163 54.6632 23.5197 53.9028L35.0866 47.4217C35.7533 47.0472 36.0924 46.5591 36.1041 46.071C36.1041 46.0483 36.1041 46.0256 36.1041 46.0029L36.0983 46.0086Z" fill="#42E8E0"/>
<path d="M36.0983 42.5923V40.0498L35.3732 39.6582C35.1685 40.8614 33.7124 41.6502 32.496 41.8148L24.2098 46.5195L20.59 47.7851L9.04649 42.0021L9.31549 41.8545C8.32721 41.4062 7.79507 40.3846 7.26292 39.4482L6.48517 39.8966L6.02319 40.0214V42.632C6.02319 43.1314 6.36236 43.6308 7.04071 44.0054L18.6076 50.4864C19.9643 51.2469 22.163 51.2469 23.5197 50.4864L35.0866 44.0054C35.7533 43.6308 36.0924 43.1428 36.1041 42.6547C36.1041 42.632 36.1041 42.6093 36.1041 42.5866L36.0983 42.5923Z" fill="url(#paint13_linear_34_18418)"/>
<path opacity="0.3" d="M32.4959 41.809L24.2096 46.5138L21.0635 47.6147V51.0539C21.9523 51.0539 22.8412 50.8666 23.5195 50.4864L35.0864 44.0053C35.7531 43.6308 36.0922 43.1427 36.1039 42.6546C36.1039 42.6319 36.1039 42.6092 36.1039 42.5865V40.0441L35.4431 39.6865H35.373C35.1449 40.867 33.7064 41.6445 32.5017 41.809H32.4959Z" fill="#0F054C"/>
<path d="M9.31551 41.8487L20.2742 35.7082C20.707 35.4642 21.4145 35.4642 21.8473 35.7082L32.6189 41.7409L32.5019 41.809C33.7183 41.6444 35.1743 40.8556 35.379 39.6524L23.2917 33.126L19.7772 32.2236L16.9118 33.8581L7.26294 39.4424C7.79509 40.3732 8.32723 41.4004 9.31551 41.8487Z" fill="url(#paint14_linear_34_18418)"/>
<path opacity="0.3" d="M21.0637 32.5584L19.7772 32.2292L16.9118 33.8637L7.26294 39.4481C7.79509 40.3788 8.32723 41.406 9.31551 41.8543L20.2742 35.7138C20.4906 35.5946 20.7771 35.5322 21.0637 35.5322V32.5641V32.5584Z" fill="#0F054C"/>
<path d="M18.6078 47.904L7.04095 41.423C5.68427 40.6625 5.68427 39.431 7.04095 38.6705L18.6078 32.1895C19.9645 31.429 22.1633 31.429 23.52 32.1895L35.0869 38.6705C36.4435 39.431 36.4435 40.6625 35.0869 41.423L23.52 47.904C22.1633 48.6645 19.9645 48.6645 18.6078 47.904ZM21.8475 33.1259C21.4148 32.8819 20.7072 32.8819 20.2745 33.1259L8.70756 39.6069C8.27483 39.851 8.27483 40.2426 8.70756 40.4866L20.2745 46.9676C20.7072 47.2117 21.4148 47.2117 21.8475 46.9676L33.4144 40.4866C33.8471 40.2426 33.8471 39.851 33.4144 39.6069L21.8475 33.1259Z" fill="url(#paint15_linear_34_18418)"/>
<path d="M33.4139 39.6072L21.847 33.1261C21.4143 32.8821 20.7067 32.8821 20.2739 33.1261L8.70706 39.6072C8.42052 39.7718 8.32111 39.9988 8.42052 40.2087C8.4673 40.1066 8.56672 40.0101 8.70706 39.925L20.2739 33.4439C20.7067 33.1999 21.4143 33.1999 21.847 33.4439L33.4139 39.925C33.5601 40.0044 33.6536 40.1066 33.7004 40.2087C33.7998 39.9988 33.7004 39.7718 33.4139 39.6072Z" fill="white"/>
<path d="M35.0866 41.423L23.5197 47.9041C22.163 48.6646 19.9643 48.6646 18.6076 47.9041L7.04072 41.423C6.43255 41.0825 6.09922 40.6512 6.0349 40.2029C5.95303 40.7534 6.2922 41.3152 7.04072 41.7352L18.6076 48.2162C19.9643 48.9767 22.163 48.9767 23.5197 48.2162L35.0866 41.7352C35.8351 41.3152 36.1685 40.7477 36.0924 40.2029C36.0281 40.6455 35.6948 41.0825 35.0866 41.423Z" fill="white"/>
<path d="M18.9292 47.7225L7.36226 41.2415C6.18686 40.5831 6.18686 39.5105 7.36226 38.8522L18.9292 32.3712C20.1046 31.7129 22.0168 31.7129 23.1863 32.3712L34.7532 38.8522C35.9286 39.5105 35.9286 40.5832 34.7532 41.2358L23.1863 47.7168C22.0109 48.3752 20.0987 48.3752 18.9292 47.7168V47.7225ZM22.1688 32.9444C21.5548 32.5982 20.5548 32.5982 19.9408 32.9444L8.37393 39.4254C7.75991 39.7716 7.75991 40.3278 8.37393 40.674L19.9408 47.155C20.5548 47.5012 21.5548 47.5012 22.1688 47.155L33.7357 40.674C34.3497 40.3278 34.3497 39.7716 33.7357 39.4254L22.1688 32.9444Z" fill="url(#paint16_linear_34_18418)"/>
<path opacity="0.4" d="M21.8471 33.1261C21.4143 32.8821 20.7067 32.8821 20.274 33.1261L8.70712 39.6072C8.27438 39.8512 8.27438 40.2428 8.70712 40.4868L20.274 46.9679C20.7067 47.2119 21.4143 47.2119 21.8471 46.9679L33.4139 40.4868C33.8467 40.2428 33.8467 39.8512 33.4139 39.6072L21.8471 33.1261Z" fill="#42E8E0"/>
<path style="mix-blend-mode:lighten" opacity="0.5" d="M33.7358 40.0383V0H8.37988V40.0383C8.37988 40.2029 8.48514 40.3618 8.70736 40.4867L20.2742 46.9677C20.707 47.2117 21.4146 47.2117 21.8473 46.9677L33.4142 40.4867C33.6364 40.3618 33.7417 40.1972 33.7358 40.0383Z" fill="url(#paint17_linear_34_18418)"/>
<path d="M113.02 71.9217C113.02 65.5939 108.441 57.8983 102.792 54.7316C99.9616 53.1482 97.4003 53.0007 95.5524 54.0449L93.6168 55.1402L94.1782 55.1913C93.1607 56.4001 92.5642 58.1878 92.5642 60.4635C92.5642 66.7913 97.143 74.4868 102.792 77.6536C104.733 78.7432 106.546 79.1518 108.09 78.9646L108.049 79.4696L110.014 78.3573C110.014 78.3573 110.031 78.346 110.037 78.346L110.119 78.3006C111.914 77.2393 113.026 75.043 113.026 71.9273L113.02 71.9217Z" fill="#9FFFF8"/>
<path d="M108.071 79.4574C112.065 77.2195 112.066 69.9636 108.072 63.2509C104.079 56.5383 97.6036 52.9107 93.6095 55.1486C89.6155 57.3865 89.615 64.6424 93.6085 71.3551C97.6019 78.0678 104.077 81.6953 108.071 79.4574Z" fill="#42E8E0"/>
<path d="M89.1316 44.5671C92.9151 39.4141 93.7923 30.5665 91.0847 24.8119C89.7281 21.9289 87.734 20.3625 85.5995 20.1696L83.3715 19.9709L83.7984 20.3285C82.2429 20.7428 80.6933 21.8608 79.3307 23.7109C75.5472 28.8639 74.6701 37.7115 77.3776 43.4661C78.3074 45.4468 79.5412 46.8031 80.9096 47.5182L80.5763 47.9041L82.8394 48.1028C82.8394 48.1028 82.8569 48.1028 82.8686 48.1028H82.9622C85.0557 48.256 87.2778 47.0869 89.1374 44.5558L89.1316 44.5671Z" fill="#9FFFF8"/>
<path d="M90.2904 34.722C91.0545 27.0064 87.9524 20.4045 83.3617 19.9763C78.7709 19.5481 74.4299 25.4557 73.6658 33.1713C72.9017 40.8869 76.0038 47.4887 80.5945 47.9169C85.1853 48.3451 89.5263 42.4376 90.2904 34.722Z" fill="#42E8E0"/>
<g opacity="0.1">
<path d="M92.57 86.2286C92.57 79.9007 87.9912 72.2052 82.3423 69.0385C79.5119 67.4551 76.9506 67.3075 75.1027 68.3518L73.1671 69.4471L73.7285 69.4982C72.711 70.707 72.1145 72.4946 72.1145 74.7704C72.1145 81.0982 76.6933 88.7937 82.3423 91.9605C84.2837 93.0501 86.0965 93.4587 87.6403 93.2714L87.5994 93.7765L89.5642 92.6642C89.5642 92.6642 89.5818 92.6528 89.5876 92.6528L89.6695 92.6074C91.4648 91.5462 92.5758 89.3499 92.5758 86.2342L92.57 86.2286Z" fill="#9FFFF8"/>
<path d="M87.6218 93.7631C91.6159 91.5252 91.6164 84.2693 87.6229 77.5566C83.6295 70.8439 77.1543 67.2164 73.1603 69.4543C69.1663 71.6922 69.1658 78.9481 73.1592 85.6607C77.1527 92.3734 83.6278 96.001 87.6218 93.7631Z" fill="#42E8E0"/>
</g>
<path opacity="0.4" d="M81.05 96.5572C73.9976 96.5572 66.9393 95.0532 61.5711 92.0454C56.349 89.117 53.4719 85.2238 53.4719 81.0753C53.4719 76.9267 56.349 73.0336 61.5711 70.1052C72.3134 64.0838 89.7866 64.0895 100.529 70.1052C105.751 73.0336 108.628 76.9267 108.628 81.0753C108.628 85.2238 105.751 89.1227 100.529 92.0454L100.476 91.9603L100.529 92.0454C95.1607 95.0532 88.1024 96.5572 81.05 96.5572ZM81.05 65.7807C74.0327 65.7807 67.0154 67.279 61.6705 70.2698C56.5128 73.1584 53.6766 76.9949 53.6766 81.0696C53.6766 85.1444 56.5186 88.9808 61.6763 91.8695C72.3602 97.8568 89.7456 97.8568 100.43 91.8695C105.587 88.9808 108.423 85.1444 108.423 81.0696C108.423 76.9949 105.581 73.1584 100.424 70.2698C95.0788 67.2733 88.0615 65.7807 81.0442 65.7807H81.05Z" fill="#42E8E0"/>
<path opacity="0.2" d="M81.0502 100.706C72.0973 100.706 63.1443 98.7992 56.3317 94.9798C49.712 91.2682 46.063 86.3308 46.063 81.0756C46.063 75.8204 49.712 70.8773 56.3317 67.1715C69.9628 59.5327 92.1376 59.5327 105.769 67.1715C112.388 70.883 116.037 75.8204 116.037 81.0756C116.037 86.3308 112.388 91.2739 105.769 94.9798C98.9561 98.7992 90.0031 100.706 81.0502 100.706ZM81.0502 61.6325C72.1324 61.6325 63.2203 63.5337 56.4311 67.336C49.8757 71.0079 46.2618 75.8885 46.2618 81.07C46.2618 86.2571 49.8699 91.132 56.4311 94.8039C70.0038 102.409 92.0908 102.409 105.663 94.8039C112.219 91.132 115.833 86.2514 115.833 81.07C115.833 75.8885 112.225 71.0079 105.663 67.336C98.8742 63.5337 89.9622 61.6325 81.0443 61.6325H81.0502Z" fill="#42E8E0"/>
<path d="M81.0501 93.2886C75.4889 93.2886 69.9335 92.1025 65.6997 89.7303C61.5829 87.4205 59.314 84.3445 59.314 81.07C59.314 77.7954 61.5829 74.7194 65.6997 72.4096C74.1673 67.6652 87.9388 67.6652 96.4005 72.4096C100.517 74.7194 102.786 77.7954 102.786 81.07C102.786 84.3445 100.517 87.4205 96.4005 89.7303L96.3479 89.6451L96.4005 89.7303C92.1667 92.1025 86.6114 93.2886 81.0501 93.2886ZM81.0501 69.05C75.5298 69.05 70.0037 70.2304 65.7991 72.5856C61.7466 74.8556 59.5128 77.8692 59.5128 81.0756C59.5128 84.2821 61.7466 87.2899 65.7991 89.5657C74.2082 94.2761 87.892 94.2761 96.3011 89.5657C100.354 87.2956 102.587 84.2821 102.587 81.0813C102.587 77.8805 100.354 74.867 96.3011 72.5913C92.0966 70.2361 86.5763 69.0556 81.0501 69.0556V69.05Z" fill="#42E8E0"/>
<path d="M92.57 86.2286C92.57 79.9007 87.9912 72.2052 82.3423 69.0385C79.5119 67.4551 76.9506 67.3075 75.1027 68.3518L73.1671 69.4471L73.7285 69.4982C72.711 70.707 72.1145 72.4946 72.1145 74.7704C72.1145 81.0982 76.6933 88.7937 82.3423 91.9605C84.2837 93.0501 86.0965 93.4587 87.6403 93.2714L87.5994 93.7765L89.5642 92.6642C89.5642 92.6642 89.5818 92.6528 89.5876 92.6528L89.6695 92.6074C91.4648 91.5462 92.5758 89.3499 92.5758 86.2342L92.57 86.2286Z" fill="#9FFFF8"/>
<path d="M87.6218 93.7631C91.6159 91.5252 91.6164 84.2693 87.6229 77.5566C83.6295 70.8439 77.1543 67.2164 73.1603 69.4543C69.1663 71.6922 69.1658 78.9481 73.1592 85.6607C77.1527 92.3734 83.6278 96.001 87.6218 93.7631Z" fill="#42E8E0"/>
<path opacity="0.4" d="M53.583 113.605L21.4671 95.6095C20.5198 95.076 20.5198 93.7537 21.4671 93.2202L26.3675 90.4508C28.0049 89.5314 30.0282 89.5314 31.6656 90.4508L63.7816 108.447C64.7289 108.98 64.7289 110.302 63.7816 110.836L58.8811 113.605C57.2438 114.525 55.2204 114.525 53.583 113.605Z" fill="#24126A"/>
<path d="M37.5079 95.2122L32.3677 92.3349L33.391 91.7617L38.5312 94.639L37.5079 95.2122Z" fill="#42E8E0"/>
<path d="M51.9983 103.538L50.4194 102.653L51.4428 102.079L53.0217 102.965L51.9983 103.538Z" fill="#42E8E0"/>
<path d="M40.4842 96.9265L38.9053 96.0412L39.9286 95.468L41.5075 96.3533L40.4842 96.9265Z" fill="#42E8E0"/>
<path d="M56.2324 110.024C55.2967 110.024 54.3611 109.792 53.5248 109.321L21.4089 91.3246C20.9294 91.0521 20.6428 90.5698 20.6428 90.0306C20.6428 89.4915 20.9294 89.0091 21.4089 88.7367L26.3093 85.9672C27.9818 85.0308 30.0519 85.0308 31.7243 85.9672L63.8403 103.963C64.3198 104.23 64.6064 104.718 64.6064 105.257C64.6064 105.796 64.3198 106.279 63.8403 106.551L58.9399 109.321C58.1036 109.786 57.168 110.024 56.2324 110.024ZM29.0227 85.4962C28.128 85.4962 27.2333 85.7175 26.4321 86.1658L21.5317 88.9353C21.1223 89.1623 20.8767 89.5766 20.8767 90.0306C20.8767 90.4846 21.1223 90.8989 21.5317 91.1259L53.6476 109.122C55.2441 110.019 57.2323 110.019 58.8288 109.122L63.7292 106.352C64.1385 106.125 64.3841 105.717 64.3841 105.257C64.3841 104.797 64.1385 104.389 63.7292 104.162L31.6132 86.1658C30.8121 85.7175 29.9174 85.4962 29.0227 85.4962Z" fill="#42E8E0"/>
<defs>
<linearGradient id="paint0_linear_34_18418" x1="0.116992" y1="86.3139" x2="169.872" y2="86.3139" gradientUnits="userSpaceOnUse">
<stop stop-color="#BCBEFF"/>
<stop offset="0.15" stop-color="#A2A6F5"/>
<stop offset="0.39" stop-color="#8188E8"/>
<stop offset="0.61" stop-color="#6A72DE"/>
<stop offset="0.82" stop-color="#5B65D8"/>
<stop offset="1" stop-color="#5761D7"/>
</linearGradient>
<linearGradient id="paint1_linear_34_18418" x1="108.64" y1="109.622" x2="63.0453" y2="47.2832" gradientUnits="userSpaceOnUse">
<stop stop-color="#42E8E0"/>
<stop offset="0.11" stop-color="#36B5BF"/>
<stop offset="0.22" stop-color="#2C87A0"/>
<stop offset="0.34" stop-color="#235F86"/>
<stop offset="0.46" stop-color="#1B3E71"/>
<stop offset="0.58" stop-color="#162560"/>
<stop offset="0.71" stop-color="#121355"/>
<stop offset="0.85" stop-color="#0F084E"/>
<stop offset="1" stop-color="#0F054C"/>
</linearGradient>
<radialGradient id="paint2_radial_34_18418" cx="0" cy="0" r="1" gradientUnits="userSpaceOnUse" gradientTransform="translate(80.7811 80.6667) scale(132.867 128.945)">
<stop stop-color="#42E8E0"/>
<stop offset="0.11" stop-color="#36B5BF"/>
<stop offset="0.22" stop-color="#2C87A0"/>
<stop offset="0.34" stop-color="#235F86"/>
<stop offset="0.46" stop-color="#1B3E71"/>
<stop offset="0.58" stop-color="#162560"/>
<stop offset="0.71" stop-color="#121355"/>
<stop offset="0.85" stop-color="#0F084E"/>
<stop offset="1" stop-color="#0F054C"/>
</radialGradient>
<linearGradient id="paint3_linear_34_18418" x1="159.439" y1="126.715" x2="182.941" y2="140.695" gradientUnits="userSpaceOnUse">
<stop stop-color="#BCBEFF"/>
<stop offset="0.23" stop-color="#AAADF7"/>
<stop offset="0.68" stop-color="#7B82E5"/>
<stop offset="1" stop-color="#5761D7"/>
</linearGradient>
<linearGradient id="paint4_linear_34_18418" x1="156.445" y1="131.766" x2="186.526" y2="131.766" gradientUnits="userSpaceOnUse">
<stop stop-color="#E9E9FD"/>
<stop offset="0.36" stop-color="#D2D2F9"/>
<stop offset="0.71" stop-color="#C4C3F6"/>
<stop offset="1" stop-color="#C0BFF6"/>
</linearGradient>
<linearGradient id="paint5_linear_34_18418" x1="159.439" y1="109.667" x2="182.941" y2="123.648" gradientUnits="userSpaceOnUse">
<stop stop-color="#BCBEFF"/>
<stop offset="0.23" stop-color="#AAADF7"/>
<stop offset="0.68" stop-color="#7B82E5"/>
<stop offset="1" stop-color="#5761D7"/>
</linearGradient>
<linearGradient id="paint6_linear_34_18418" x1="156.446" y1="114.723" x2="186.526" y2="114.723" gradientUnits="userSpaceOnUse">
<stop stop-color="#E9E9FD"/>
<stop offset="0.36" stop-color="#D2D2F9"/>
<stop offset="0.71" stop-color="#C4C3F6"/>
<stop offset="1" stop-color="#C0BFF6"/>
</linearGradient>
<linearGradient id="paint7_linear_34_18418" x1="107.938" y1="141.839" x2="131.44" y2="155.82" gradientUnits="userSpaceOnUse">
<stop stop-color="#BCBEFF"/>
<stop offset="0.23" stop-color="#AAADF7"/>
<stop offset="0.68" stop-color="#7B82E5"/>
<stop offset="1" stop-color="#5761D7"/>
</linearGradient>
<linearGradient id="paint8_linear_34_18418" x1="104.944" y1="146.896" x2="135.025" y2="146.896" gradientUnits="userSpaceOnUse">
<stop stop-color="#E9E9FD"/>
<stop offset="0.36" stop-color="#D2D2F9"/>
<stop offset="0.71" stop-color="#C4C3F6"/>
<stop offset="1" stop-color="#C0BFF6"/>
</linearGradient>
<linearGradient id="paint9_linear_34_18418" x1="107.938" y1="123.554" x2="131.44" y2="137.534" gradientUnits="userSpaceOnUse">
<stop stop-color="#BCBEFF"/>
<stop offset="0.23" stop-color="#AAADF7"/>
<stop offset="0.68" stop-color="#7B82E5"/>
<stop offset="1" stop-color="#5761D7"/>
</linearGradient>
<linearGradient id="paint10_linear_34_18418" x1="104.944" y1="128.61" x2="135.025" y2="128.61" gradientUnits="userSpaceOnUse">
<stop stop-color="#E9E9FD"/>
<stop offset="0.36" stop-color="#D2D2F9"/>
<stop offset="0.71" stop-color="#C4C3F6"/>
<stop offset="1" stop-color="#C0BFF6"/>
</linearGradient>
<linearGradient id="paint11_linear_34_18418" x1="9.0114" y1="51.6154" x2="32.5134" y2="65.5959" gradientUnits="userSpaceOnUse">
<stop stop-color="#BCBEFF"/>
<stop offset="0.23" stop-color="#AAADF7"/>
<stop offset="0.68" stop-color="#7B82E5"/>
<stop offset="1" stop-color="#5761D7"/>
</linearGradient>
<linearGradient id="paint12_linear_34_18418" x1="6.02319" y1="56.6665" x2="36.0983" y2="56.6665" gradientUnits="userSpaceOnUse">
<stop stop-color="#E9E9FD"/>
<stop offset="0.36" stop-color="#D2D2F9"/>
<stop offset="0.71" stop-color="#C4C3F6"/>
<stop offset="1" stop-color="#C0BFF6"/>
</linearGradient>
<linearGradient id="paint13_linear_34_18418" x1="9.0114" y1="34.9932" x2="32.5134" y2="48.9738" gradientUnits="userSpaceOnUse">
<stop stop-color="#BCBEFF"/>
<stop offset="0.23" stop-color="#AAADF7"/>
<stop offset="0.68" stop-color="#7B82E5"/>
<stop offset="1" stop-color="#5761D7"/>
</linearGradient>
<linearGradient id="paint14_linear_34_18418" x1="10.4441" y1="34.0908" x2="31.4065" y2="46.5582" gradientUnits="userSpaceOnUse">
<stop offset="0.24" stop-color="#5761D7"/>
<stop offset="0.39" stop-color="#7A81E5"/>
<stop offset="0.55" stop-color="#979BF0"/>
<stop offset="0.7" stop-color="#ABAEF8"/>
<stop offset="0.85" stop-color="#B7BAFD"/>
<stop offset="1" stop-color="#BCBEFF"/>
</linearGradient>
<linearGradient id="paint15_linear_34_18418" x1="6.02344" y1="40.0439" x2="36.0985" y2="40.0439" gradientUnits="userSpaceOnUse">
<stop stop-color="#E9E9FD"/>
<stop offset="0.36" stop-color="#D2D2F9"/>
<stop offset="0.71" stop-color="#C4C3F6"/>
<stop offset="1" stop-color="#C0BFF6"/>
</linearGradient>
<linearGradient id="paint16_linear_34_18418" x1="6.4851" y1="40.044" x2="35.6362" y2="40.044" gradientUnits="userSpaceOnUse">
<stop stop-color="#E9E9FD"/>
<stop offset="0.36" stop-color="#D2D2F9"/>
<stop offset="0.71" stop-color="#C4C3F6"/>
<stop offset="1" stop-color="#C0BFF6"/>
</linearGradient>
<linearGradient id="paint17_linear_34_18418" x1="21.0578" y1="47.1493" x2="21.0578" y2="0" gradientUnits="userSpaceOnUse">
<stop stop-color="#41E6DF" stop-opacity="0.99"/>
<stop offset="0.11" stop-color="#35B2BD" stop-opacity="0.76"/>
<stop offset="0.23" stop-color="#2B849F" stop-opacity="0.56"/>
<stop offset="0.34" stop-color="#225D85" stop-opacity="0.39"/>
<stop offset="0.46" stop-color="#1B3D70" stop-opacity="0.25"/>
<stop offset="0.59" stop-color="#162460" stop-opacity="0.14"/>
<stop offset="0.71" stop-color="#121255" stop-opacity="0.06"/>
<stop offset="0.85" stop-color="#0F084E" stop-opacity="0.01"/>
<stop offset="1" stop-color="#0F054C" stop-opacity="0"/>
</linearGradient>
</defs>
</svg>
