<svg  viewBox="0 0 1440 626" fill="none" xmlns="http://www.w3.org/2000/svg">
<g opacity="0.33" clip-path="url(#clip0_33_55)">
<path d="M291.584 563.364C289.967 563.15 288.36 562.921 286.76 562.67C268.691 559.836 253.533 554.706 241.709 547.422C228.064 539.015 218.451 527.495 213.135 513.186C203.736 487.88 206.395 460.918 208.967 434.844C209.079 433.7 209.193 432.557 209.303 431.422C210.048 423.792 210.881 416.043 211.684 408.55C214.533 382.009 217.479 354.562 217.126 327.292C216.057 244.257 179.762 172.554 112.164 119.932C44.0246 66.8845 -53.9399 29.6152 -187.328 5.99512C-246.874 -4.5506 -305.249 2.99389 -343.733 11.1791C-385.441 20.0512 -413.423 31.5665 -413.701 31.681L-414 30.9599C-413.722 30.8454 -385.687 19.3058 -343.913 10.419C-319.381 5.19852 -294.973 1.90009 -271.372 0.613853C-241.865 -0.993948 -213.542 0.557824 -187.189 5.22532C-126.162 16.0317 -74.0548 29.24 -27.891 45.6031C-1.06055 55.1135 23.9535 65.8248 46.4595 77.4424C70.894 90.0539 93.1638 104.142 112.651 119.311C147.524 146.458 174.206 178.663 191.949 215.034C208.66 249.285 217.396 287.051 217.915 327.278C218.268 354.593 215.319 382.065 212.468 408.628C211.665 416.121 210.832 423.868 210.087 431.492C209.975 432.63 209.863 433.773 209.751 434.918C207.189 460.903 204.538 487.773 213.873 512.911C223.696 539.359 248.261 555.839 286.887 561.895C320.46 567.154 357.977 563.834 386.914 560.348C512.683 545.201 633.35 506.504 750.047 469.078C754.729 467.578 759.407 466.077 764.077 464.581C791.414 455.824 819.22 446.516 846.112 437.514C936.769 407.166 1030.51 375.785 1127.61 358.123C1153.38 353.436 1178.66 350.649 1202.76 349.838C1227.72 348.998 1252.23 350.252 1275.63 353.56C1299.77 356.976 1323.5 362.693 1346.15 370.554C1369.45 378.637 1392.34 389.244 1414.21 402.077C1502.92 454.133 1576.22 524.689 1647.1 592.918C1658.22 603.627 1669.72 614.699 1681.01 625.43L1680.47 625.997C1669.19 615.267 1657.68 604.192 1646.56 593.483C1575.71 525.283 1502.45 454.762 1413.82 402.752C1329.88 353.495 1236.31 339.146 1127.75 358.893C1030.71 376.545 936.993 407.916 846.363 438.257C819.469 447.261 791.662 456.569 764.318 465.327C759.648 466.823 754.97 468.323 750.288 469.824C633.557 507.259 512.853 545.968 387.011 561.123C359.404 564.448 323.99 567.627 291.596 563.361L291.584 563.364Z" fill="#0E0E0E"/>
<path d="M303.968 560.202C301.518 559.881 299.086 559.518 296.673 559.108C279.024 556.129 264.186 550.982 252.569 543.807C239.155 535.525 229.595 524.285 224.156 510.399C214.604 485.997 216.403 460.048 218.141 434.952C218.229 433.69 218.317 432.431 218.402 431.178C218.899 423.975 219.469 416.664 220.021 409.593C222.035 383.78 224.119 357.086 222.992 330.667C222.885 328.126 222.739 325.561 222.563 323.044C216.941 246.686 180.045 181.117 115.862 133.428C94.4739 117.633 69.7302 103.131 42.3177 90.3221C-16.3275 63.065 -88.7179 41.9906 -178.993 25.8955C-217.431 19.0478 -259.121 18.5654 -302.906 24.4631C-347.979 30.5338 -382.633 41.9614 -395.68 46.2635C-400.625 47.8932 -401.107 48.032 -401.411 47.8908L-401.092 47.2038C-401.148 47.1794 -401.19 47.177 -401.192 47.177C-400.861 47.177 -398.679 46.4559 -395.913 45.5448C-382.85 41.2379 -348.147 29.7932 -303.004 23.7128C-259.141 17.8054 -217.37 18.2877 -178.857 25.1501C-88.5183 41.2574 -16.0645 62.3512 42.6416 89.6351C70.1003 102.466 94.8878 116.995 116.318 132.819C149.537 157.501 175.523 186.79 193.556 219.872C210.569 251.083 220.584 285.777 223.325 322.99C223.503 325.517 223.647 328.087 223.754 330.635C224.884 357.1 222.799 383.817 220.783 409.653C220.231 416.723 219.661 424.031 219.164 431.232C219.079 432.484 218.991 433.744 218.904 435.005C217.17 460.019 215.378 485.883 224.867 510.124C234.913 535.768 259.116 551.997 296.804 558.363C328.617 563.737 364.074 561.457 394.567 558.519C426.622 555.43 454.651 551.423 480.257 546.268C503.622 541.564 528.814 535.252 559.543 526.404C589.497 517.812 619.666 508.07 648.841 498.648C675.465 490.051 702.994 481.159 730.192 473.201C743.185 469.359 756.616 465.478 770.118 461.661C793.218 455.127 814.582 449.02 835.432 442.988C873.281 432.099 914.068 420.474 955.878 409.234C970.938 405.186 986.522 401.346 1001.59 397.636C1012.16 395.032 1023.1 392.338 1033.91 389.561C1044.99 386.732 1056.02 383.58 1066.69 380.533C1076.15 377.831 1085.93 375.037 1095.53 372.535C1109.15 368.981 1119.6 366.382 1129.4 364.106C1207.89 346.067 1277.63 346.688 1342.61 366.002C1364.62 372.45 1386.34 381.317 1407.14 392.35C1440.92 410.155 1473.59 431.541 1507.03 457.734C1556.38 496.584 1601.48 540.731 1645.1 583.425C1654.88 592.991 1664.99 602.884 1674.89 612.473L1674.37 613.016C1664.45 603.425 1654.35 593.532 1644.57 583.966C1600.97 541.286 1555.88 497.152 1506.56 458.328C1473.16 432.165 1440.52 410.801 1406.79 393.018C1386.02 382.007 1364.36 373.161 1342.39 366.725C1277.54 347.451 1207.92 346.835 1129.57 364.842C1119.77 367.115 1109.33 369.714 1095.71 373.266C1086.13 375.768 1076.35 378.56 1066.89 381.259C1056.22 384.309 1045.18 387.461 1034.09 390.292C1023.28 393.071 1012.34 395.765 1001.76 398.37C986.7 402.08 971.121 405.916 956.068 409.965C914.265 421.203 873.483 432.828 835.637 443.717C814.784 449.749 793.417 455.856 770.317 462.389C756.818 466.204 743.389 470.085 730.399 473.926C703.211 481.883 675.684 490.772 649.065 499.366C619.885 508.789 589.709 518.536 559.742 527.13C528.994 535.983 503.783 542.299 480.395 547.008C454.763 552.168 426.71 556.18 394.627 559.272C366.397 561.99 333.91 564.146 303.963 560.202H303.968Z" fill="#0E0E0E"/>
<path d="M316.593 557.118C313.223 556.674 309.887 556.155 306.59 555.559C289.363 552.431 274.844 547.264 263.431 540.202C250.248 532.043 240.74 521.081 235.176 507.617C225.48 484.123 226.43 459.185 227.348 435.071C227.401 433.69 227.453 432.311 227.504 430.942C227.762 424.196 228.081 417.353 228.39 410.737C229.564 385.621 230.776 359.648 228.857 334.05C228.648 331.248 228.444 328.922 228.21 326.729C220.34 252.515 183.785 192.022 119.558 146.931C98.5158 132.156 74.785 119.026 47.0122 106.785C-10.4692 81.7224 -81.6713 61.7735 -170.661 45.7978C-208.733 38.9719 -249.633 38.0974 -292.222 43.2009C-331.843 47.9488 -363.436 57.1839 -378.618 61.6225C-385.864 63.7418 -388.187 64.3971 -388.816 64.1072L-388.509 63.4422L-388.521 63.4373C-387.966 63.5932 -383.931 62.4117 -378.825 60.9184C-363.624 56.475 -331.992 47.2278 -292.312 42.4726C-272.713 40.1242 -253.095 39.0401 -234.003 39.2521C-212.086 39.4957 -190.732 41.4543 -170.534 45.0767C-129.065 52.5213 -92.6285 60.5335 -59.1409 69.5713C-19.7341 80.2047 16.0789 92.4995 47.3044 106.115C75.1234 118.375 98.8932 131.53 119.977 146.332C152.781 169.362 178.722 196.909 197.082 228.205C214.426 257.774 225.144 290.897 228.935 326.651C229.169 328.851 229.376 331.183 229.586 333.994C231.509 359.638 230.294 385.633 229.12 410.771C228.811 417.388 228.492 424.228 228.234 430.969C228.183 432.338 228.132 433.714 228.078 435.098C227.163 459.134 226.218 483.992 235.853 507.337C260.46 566.857 356.204 559.987 402.215 556.686C427.555 554.869 457.558 552.177 487.951 545.999C516.52 540.194 543.767 531.936 566.65 524.621C588.187 517.783 609.977 510.189 631.049 502.847C665.228 490.94 700.571 478.625 736.141 469.054C750.426 465.21 763.516 461.836 776.159 458.74C788.847 455.626 801.665 452.53 814.061 449.534C822.982 447.378 832.208 445.149 841.244 442.949C876.193 434.537 914.156 425.746 960.709 415.275C971.157 412.927 982.015 410.752 992.517 408.649C1007.51 405.648 1023.01 402.545 1038.4 398.739C1052.33 395.339 1065.71 390.839 1078.64 386.491C1085.22 384.279 1092.02 381.994 1098.66 379.938C1100.12 379.487 1101.57 379.034 1103.03 378.581C1112.24 375.721 1121.77 372.764 1131.2 370.084C1168.02 359.614 1202.09 353.667 1235.38 351.901C1270.38 350.045 1303.43 352.859 1336.41 360.505C1358.19 365.553 1379.61 372.99 1400.08 382.613C1435.05 399.051 1468.99 419.765 1500.96 444.174C1551.66 482.891 1597.2 528.27 1641.24 572.155C1650.28 581.164 1659.63 590.48 1668.79 599.505L1668.28 600.026C1659.11 591.001 1649.76 581.683 1640.72 572.674C1596.7 528.806 1551.18 483.444 1500.51 444.757C1468.58 420.377 1434.68 399.692 1399.77 383.275C1379.34 373.675 1357.97 366.252 1336.25 361.217C1272.78 346.508 1205.77 349.636 1131.4 370.786C1121.98 373.463 1112.46 376.418 1103.25 379.278C1101.79 379.731 1100.33 380.182 1098.87 380.635C1092.24 382.688 1085.45 384.973 1078.88 387.18C1065.92 391.536 1052.53 396.038 1038.58 399.446C1023.17 403.253 1007.66 406.359 992.66 409.363C982.163 411.465 971.311 413.638 960.87 415.987C914.319 426.455 876.361 435.249 841.417 443.658C832.381 445.858 823.155 448.087 814.234 450.243C801.837 453.237 789.02 456.335 776.334 459.446C763.699 462.54 750.614 465.914 736.333 469.756C700.788 479.32 665.46 491.629 631.293 503.534C610.216 510.879 588.421 518.472 566.874 525.312C543.974 532.63 516.703 540.898 488.099 546.711C457.668 552.896 427.635 555.59 402.271 557.41C373.928 559.444 344.159 560.74 316.598 557.11L316.593 557.118Z" fill="#0E0E0E"/>
<path d="M329.41 554.107C325.052 553.532 320.747 552.843 316.51 552.017C299.707 548.74 285.501 543.551 274.291 536.597C261.337 528.56 251.882 517.873 246.192 504.835C236.36 482.253 236.472 458.333 236.579 435.2C236.586 433.695 236.593 432.197 236.596 430.706C236.63 424.455 236.713 418.116 236.793 411.987C237.114 387.531 237.443 362.245 234.713 337.431C234.402 334.588 234.136 332.425 233.849 330.415C223.7 259.514 186.49 202.322 123.25 160.434C102.302 146.559 78.9 134.395 51.7067 123.248C-4.41108 100.244 -72.4235 81.959 -162.331 65.7007C-199.532 58.9869 -240.755 57.6861 -281.54 61.937C-317.087 65.6447 -346.399 73.3012 -362.143 77.4133C-371.399 79.8323 -375.197 80.7946 -376.217 80.322L-375.92 79.6789C-375.087 80.0613 -369.733 78.6655 -362.321 76.7288C-346.557 72.6094 -317.214 64.9455 -281.611 61.233C-240.76 56.9723 -199.468 58.278 -162.202 65.004C-72.2433 81.2696 -4.18463 99.5693 51.9794 122.593C79.2165 133.757 102.66 145.942 123.647 159.842C156 181.272 181.871 207.09 200.537 236.576C218.202 264.481 229.649 296.018 234.558 330.313C234.847 332.333 235.115 334.503 235.427 337.353C238.161 362.209 237.83 387.519 237.509 411.994C237.428 418.121 237.346 424.457 237.312 430.706C237.307 432.197 237.299 433.695 237.295 435.2C237.187 458.26 237.078 482.104 246.849 504.55C257.492 528.935 280.325 544.236 316.654 551.32C346.749 557.191 380.551 556.221 409.873 554.855C435.741 553.649 465.839 551.849 495.653 545.732C523.248 540.073 549.501 531.386 573.765 522.84C591.243 516.738 608.967 510.017 626.106 503.52C663.548 489.325 702.264 474.645 742.097 464.911C755.961 461.522 769.455 458.465 782.205 455.822C802.412 451.622 822.651 447.675 842.223 443.856L847.061 442.913C876.378 437.191 906.091 431.909 934.826 426.803C944.882 425.015 955.282 423.166 965.547 421.322C974.454 419.719 983.354 418.374 992.775 416.952C1009.14 414.479 1026.06 411.924 1042.9 407.926C1057.98 404.406 1071.94 398.925 1085.43 393.622C1091.06 391.407 1096.38 389.315 1101.8 387.351C1105 386.189 1108.25 384.993 1111.39 383.838C1118.46 381.239 1125.77 378.55 1133 376.077C1168.27 363.999 1200.87 356.374 1232.64 352.774C1266.16 348.973 1298.09 349.712 1330.22 355.027C1351.68 358.576 1372.81 364.589 1393.02 372.896C1428.85 387.622 1463.12 407.049 1494.89 430.635C1546.91 469.259 1592.88 515.871 1637.33 560.947C1645.65 569.383 1654.25 578.107 1662.68 586.558L1662.18 587.057C1653.75 578.606 1645.15 569.88 1636.83 561.444C1592.39 516.387 1546.44 469.795 1494.47 431.205C1462.75 407.653 1428.52 388.255 1392.75 373.551C1372.58 365.263 1351.51 359.268 1330.11 355.726C1267.78 345.414 1205.22 352.094 1133.23 376.747C1126.01 379.217 1118.7 381.904 1111.64 384.503C1108.49 385.658 1105.24 386.854 1102.04 388.019C1096.63 389.98 1091.31 392.07 1085.68 394.282C1072.17 399.595 1058.2 405.088 1043.06 408.618C1026.19 412.623 1009.26 415.181 992.88 417.656C983.464 419.078 974.569 420.423 965.672 422.021C955.406 423.868 945.006 425.717 934.948 427.505C906.216 432.611 876.507 437.892 847.195 443.612L842.357 444.555C822.785 448.372 802.548 452.321 782.346 456.518C769.606 459.159 756.119 462.214 742.262 465.602C702.473 475.327 663.777 490 626.355 504.187C609.21 510.687 591.482 517.408 573.996 523.515C549.71 532.07 523.428 540.767 495.791 546.433C465.927 552.558 435.797 554.36 409.902 555.569C384.661 556.748 356.1 557.627 329.413 554.112L329.41 554.107Z" fill="#0E0E0E"/>
<path d="M342.885 551.252C337.336 550.521 331.831 549.61 326.44 548.482C310.058 545.052 296.169 539.841 285.158 532.994C272.433 525.076 263.029 514.665 257.215 502.051C247.258 480.384 246.545 457.483 245.853 435.337C245.802 433.705 245.751 432.08 245.698 430.465C245.527 424.745 245.393 418.952 245.264 413.349C244.714 389.514 244.147 364.869 240.582 340.81C240.268 338.683 239.92 336.396 239.498 334.096C227.1 266.537 189.232 212.651 126.949 173.932C106.359 161.133 83.283 149.937 56.4038 139.706C-14.0557 112.885 -93.0497 96.702 -153.998 85.6009C-190.897 78.8968 -231.305 77.1916 -270.855 80.6727C-303.057 83.5083 -330.007 89.7787 -346.109 93.5229C-356.414 95.92 -362.092 97.2404 -363.619 96.5339L-363.332 95.9151C-362.017 96.5217 -355.408 94.9846 -346.263 92.8579C-330.144 89.1063 -303.164 82.831 -270.914 79.9906C-231.305 76.5046 -190.834 78.2098 -153.877 84.9261C-92.8987 96.0345 -13.8658 112.227 56.6448 139.065C83.563 149.311 106.678 160.527 127.306 173.35C189.76 212.174 227.733 266.213 240.168 333.97C240.592 336.281 240.942 338.574 241.256 340.708C244.826 364.81 245.396 389.475 245.946 413.332C246.075 418.932 246.209 424.725 246.379 430.44C246.433 432.053 246.484 433.678 246.535 435.312C247.222 457.39 247.933 480.221 257.833 501.761C268.705 525.342 291.192 540.404 326.579 547.81C357.5 554.282 392.19 553.554 417.518 553.02C446.44 552.411 474.768 551.376 503.342 545.464C528.894 540.178 552.815 531.883 580.868 521.054C595.95 515.293 611.266 508.979 626.077 502.872C665.134 486.769 705.519 470.119 748.038 460.759C761.776 457.736 775.302 455.091 788.236 452.896C809.834 449.217 831.332 446.046 852.121 442.976L852.864 442.867C877.744 439.193 902.88 436.009 927.188 432.93C941.315 431.139 955.922 429.288 970.369 427.356C978.411 426.279 986.493 425.458 995.052 424.589C1012.12 422.854 1029.76 421.061 1047.38 417.098C1063.21 413.536 1077.28 407.147 1090.88 400.966C1095.72 398.769 1100.29 396.693 1104.92 394.747C1108.94 393.059 1112.99 391.31 1116.9 389.617C1122.75 387.09 1128.8 384.477 1134.78 382.048C1203.66 354.089 1263.79 343.755 1324.02 349.526C1345.13 351.551 1365.96 356.135 1385.94 363.154C1422.39 375.958 1457 394.099 1488.81 417.069C1542.02 455.488 1588.29 503.23 1633.04 549.398C1640.76 557.364 1648.75 565.603 1656.57 573.581L1656.08 574.058C1648.26 566.078 1640.28 557.841 1632.55 549.873C1587.82 503.724 1541.57 456.007 1488.41 417.622C1456.65 394.689 1422.1 376.579 1385.72 363.797C1365.79 356.796 1345.01 352.223 1323.95 350.206C1263.85 344.445 1203.82 354.764 1135.04 382.679C1129.07 385.105 1123.02 387.714 1117.18 390.24C1113.26 391.933 1109.2 393.682 1105.19 395.373C1100.56 397.315 1096 399.39 1091.17 401.585C1077.53 407.78 1063.43 414.184 1047.53 417.761C1029.88 421.734 1012.21 423.529 995.125 425.266C986.571 426.136 978.494 426.957 970.464 428.031C956.017 429.963 941.408 431.814 927.278 433.605C902.972 436.684 877.841 439.868 852.966 443.541L852.224 443.651C831.439 446.718 809.946 449.892 788.353 453.568C775.428 455.761 761.914 458.404 748.186 461.425C705.724 470.772 665.367 487.41 626.338 503.5C611.521 509.61 596.201 515.924 581.111 521.688C553.027 532.528 529.077 540.833 503.479 546.129C474.846 552.056 446.484 553.091 417.53 553.7C396.58 554.141 369.234 554.716 342.883 551.245L342.885 551.252Z" fill="#0E0E0E"/>
<path d="M356.735 548.519C349.805 547.605 342.946 546.436 336.265 544.933C320.328 541.347 306.775 536.109 295.984 529.366C283.507 521.571 274.172 511.442 268.235 499.264C258.067 478.316 256.567 456.233 255.118 434.879C255.013 433.32 254.906 431.766 254.799 430.224C254.402 424.552 254.039 418.811 253.691 413.259C252.262 390.523 250.782 367.015 246.45 344.189C246.063 342.14 245.644 339.958 245.147 337.777C230.538 273.592 192.015 223.01 130.647 187.431C110.423 175.706 87.673 165.477 61.1031 156.164C-5.98648 132.649 -81.065 117.358 -145.661 105.499C-182.295 98.7947 -221.887 96.6875 -260.164 99.4062C-289.49 101.489 -314.124 106.541 -330.424 109.886C-341.992 112.259 -348.973 113.691 -351.016 112.748L-350.741 112.152C-348.897 113.007 -341.6 111.509 -330.557 109.243C-314.239 105.896 -289.58 100.836 -260.212 98.7509C-221.882 96.0298 -182.229 98.1394 -145.544 104.853C-80.9238 116.714 -5.81116 132.013 61.3198 155.543C87.9287 164.87 110.715 175.114 130.976 186.861C162.45 205.109 188.17 227.465 207.416 253.307C225.743 277.914 238.653 306.284 245.788 337.629C246.287 339.819 246.706 342.009 247.095 344.065C251.437 366.932 252.917 390.462 254.346 413.217C254.695 418.769 255.057 424.509 255.454 430.177C255.561 431.722 255.668 433.273 255.773 434.833C257.217 456.126 258.712 478.143 268.824 498.974C279.913 521.729 302.02 536.553 336.408 544.29C365.713 550.882 398.574 551.055 424.981 551.191H425.171C455.69 551.349 483.217 551.008 511.041 545.198C538.614 539.444 564.169 529.235 587.983 519.274C601.1 513.788 614.443 507.812 627.346 502.036C667.561 484.031 709.145 465.415 753.991 456.618C767.649 453.939 781.204 451.707 794.279 449.982C816.656 447.01 838.98 444.794 858.678 442.835C881.715 440.545 904.918 438.823 927.356 437.154C943.002 435.992 959.183 434.789 975.202 433.405C982.619 432.764 990.121 432.384 998.066 431.982C1015.6 431.096 1033.73 430.18 1051.87 426.284C1068.25 422.767 1082.21 415.483 1095.72 408.44C1099.97 406.219 1103.99 404.121 1108.05 402.16C1112.48 400.021 1116.92 397.787 1121.21 395.627C1126.24 393.1 1131.44 390.486 1136.58 388.041C1168.94 372.654 1198.57 361.68 1227.16 354.496C1257.87 346.779 1287.52 343.361 1317.82 344.05C1338.56 344.52 1359.1 347.678 1378.87 353.436C1415.75 364.175 1450.7 381.027 1482.74 403.527C1537.04 441.666 1583.54 490.472 1628.51 537.669C1635.71 545.233 1643.16 553.055 1650.46 560.628L1649.99 561.084C1642.69 553.508 1635.24 545.686 1628.03 538.122C1583.09 490.947 1536.62 442.168 1482.36 404.063C1450.38 381.605 1415.5 364.781 1378.69 354.065C1358.97 348.323 1338.49 345.173 1317.81 344.706C1260.13 343.397 1202.64 357.354 1136.86 388.633C1131.73 391.076 1126.54 393.687 1121.51 396.214C1117.21 398.374 1112.77 400.608 1108.34 402.752C1104.29 404.708 1100.27 406.803 1096.02 409.022C1082.48 416.087 1068.48 423.39 1052.01 426.928C1033.81 430.835 1015.66 431.751 998.097 432.64C990.16 433.042 982.66 433.42 975.255 434.06C959.231 435.446 943.049 436.647 927.399 437.812C904.964 439.478 881.766 441.2 858.739 443.49C839.048 445.446 816.729 447.666 794.362 450.635C781.299 452.358 767.758 454.589 754.113 457.266C709.339 466.048 667.79 484.65 627.611 502.64C614.703 508.419 601.355 514.394 588.233 519.885C564.391 529.859 538.802 540.08 511.173 545.846C483.286 551.669 455.722 552.012 425.164 551.854H424.974C404.55 551.747 380.264 551.62 356.73 548.521L356.735 548.519Z" fill="#0E0E0E"/>
<path d="M371.425 545.998C362.484 544.821 353.606 543.254 345.065 541.142C329.615 537.32 316.963 532.2 306.391 525.486C294.369 517.851 285.238 508.092 279.253 496.482C268.961 476.428 266.662 455.339 264.442 434.947C264.262 433.283 264.081 431.632 263.896 429.987C263.322 424.835 262.771 419.622 262.241 414.582C259.806 391.463 257.507 369.627 252.311 347.573C251.8 345.395 251.334 343.432 250.791 341.463C234.008 280.681 194.827 233.399 134.341 200.934C114.494 190.281 92.0731 181.022 65.7978 172.627C-0.368977 151.487 -73.7455 137.168 -137.331 125.404C-173.746 118.69 -212.527 116.181 -249.482 118.147C-276.261 119.572 -298.674 123.56 -315.04 126.471C-327.555 128.697 -335.822 130.169 -338.42 128.968L-338.154 128.393C-335.739 129.511 -327.548 128.054 -315.152 125.847C-298.769 122.931 -276.336 118.941 -249.516 117.514C-212.512 115.545 -173.68 118.059 -137.217 124.78C-73.6141 136.546 -0.210701 150.873 65.9901 172.023C92.302 180.43 114.759 189.704 134.64 200.374C165.688 217.039 191.326 237.663 210.842 261.675C229.51 284.645 243.158 311.431 251.403 341.293C251.948 343.273 252.418 345.242 252.929 347.427C258.135 369.519 260.436 391.376 262.871 414.513C263.402 419.554 263.95 424.764 264.527 429.917C264.709 431.559 264.89 433.213 265.072 434.877C267.288 455.213 269.579 476.241 279.818 496.19C291.012 517.905 312.402 532.407 345.218 540.526C373.29 547.471 405.047 548.48 430.565 549.291L432.824 549.362C459.229 550.207 489.159 551.164 518.741 544.933C546.107 539.169 571.469 528.217 595.098 517.493C607.021 512.08 619.167 506.197 630.911 500.509C671.53 480.833 713.53 460.484 759.945 452.475C773.539 450.129 787.123 448.309 800.323 447.064C821.483 445.049 841.902 443.941 864.491 442.799C886.563 441.683 908.726 441.222 930.158 440.777C946.463 440.438 963.32 440.087 980.038 439.449C986.955 439.186 994.005 439.196 1001.47 439.208C1019.34 439.235 1037.83 439.259 1056.37 435.466C1073.22 432.019 1086.96 423.839 1100.25 415.926C1104.03 413.675 1107.6 411.549 1111.19 409.568C1115.83 407.008 1120.45 404.321 1124.93 401.722C1129.33 399.164 1133.88 396.518 1138.39 394.029C1202.34 358.703 1255.77 341.597 1311.63 338.569C1331.97 337.466 1352.22 339.195 1371.82 343.712C1408.99 352.279 1444.27 367.846 1476.68 389.977C1532.03 427.785 1578.68 477.61 1623.8 525.793C1630.55 533.001 1637.53 540.455 1644.36 547.671L1643.9 548.107C1637.07 540.889 1630.09 533.435 1623.34 526.226C1578.24 478.068 1531.61 428.27 1476.32 390.501C1443.98 368.413 1408.77 352.879 1371.67 344.33C1352.14 339.829 1331.95 338.101 1311.67 339.203C1255.91 342.226 1202.56 359.307 1138.7 394.584C1134.19 397.071 1129.64 399.714 1125.24 402.272C1120.77 404.874 1116.14 407.561 1111.5 410.126C1107.92 412.102 1104.35 414.226 1100.57 416.474C1087.86 424.043 1073.45 432.621 1056.49 436.09C1037.89 439.895 1019.37 439.868 1001.47 439.844C994.009 439.834 986.968 439.822 980.06 440.085C963.337 440.721 946.477 441.071 930.171 441.41C908.743 441.856 886.588 442.316 864.522 443.432C841.941 444.572 821.529 445.68 800.382 447.695C787.196 448.937 773.627 450.757 760.049 453.098C713.725 461.093 671.764 481.42 631.183 501.079C619.437 506.77 607.289 512.655 595.356 518.07C571.693 528.809 546.297 539.778 518.867 545.554C489.21 551.803 459.241 550.843 432.8 549.998L430.54 549.927C412.751 549.362 391.927 548.699 371.423 546L371.425 545.998Z" fill="#0E0E0E"/>
<path d="M387.254 543.776C347.743 538.572 308.261 526.665 290.274 493.695C279.874 474.545 276.794 454.462 273.816 435.042C273.543 433.266 273.273 431.5 272.998 429.748C272.28 425.171 271.581 420.542 270.904 416.065C267.497 393.548 264.281 372.282 258.179 350.954C257.636 349.044 257.073 347.068 256.44 345.146C237.278 286.993 198.548 244.235 138.037 214.434C118.582 204.853 96.49 196.564 70.4922 189.09C5.40174 170.376 -69.1192 156.476 -128.999 145.309C-165.258 138.573 -203.225 135.66 -238.797 136.885C-263.283 137.728 -284.447 140.914 -299.899 143.241C-313.588 145.301 -322.632 146.661 -325.819 145.187L-325.563 144.634C-322.539 146.032 -313.08 144.61 -299.989 142.639C-284.523 140.31 -263.339 137.124 -238.817 136.278C-203.201 135.05 -165.189 137.966 -128.887 144.712C-68.995 155.881 5.54296 169.784 70.6602 188.507C96.6921 195.991 118.818 204.296 138.305 213.894C153.769 221.511 168.035 230.137 180.702 239.536C193.157 248.776 204.447 259.041 214.258 270.047C223.885 280.849 232.383 292.693 239.515 305.251C246.499 317.546 252.386 330.908 257.018 344.961C257.655 346.895 258.218 348.876 258.763 350.793C264.875 372.16 268.096 393.444 271.505 415.98C272.182 420.457 272.883 425.086 273.599 429.661C273.874 431.415 274.145 433.181 274.417 434.957C277.388 454.326 280.459 474.355 290.807 493.412C316.359 540.246 385.806 544.329 436.513 547.308L440.472 547.542C467.02 549.12 497.111 550.908 526.437 544.677C553.701 538.886 578.82 527.198 602.21 515.722C613.211 510.326 624.421 504.465 635.264 498.796C676.018 477.493 718.159 455.466 765.891 448.34C779.439 446.318 793.055 444.91 806.362 444.155C827.852 442.915 848.868 442.793 870.3 442.772C891.82 442.75 913.355 443.473 934.178 444.175C950.736 444.73 967.856 445.307 984.866 445.505C991.358 445.58 998.017 445.941 1005.07 446.323C1023.22 447.307 1041.98 448.328 1060.86 444.657C1078.12 441.3 1092.19 431.797 1104.59 423.415C1107.96 421.137 1111.14 418.986 1114.33 416.986C1119.06 414.014 1123.74 410.886 1128.28 407.858C1132.17 405.256 1136.2 402.567 1140.19 400.021C1169.92 381.064 1196.6 366.74 1221.72 356.23C1249.82 344.481 1277.2 336.912 1305.44 333.093C1325.35 330.401 1345.3 330.703 1364.75 333.992C1402.12 340.313 1437.73 354.593 1470.61 376.43C1526.95 413.865 1573.71 464.672 1618.94 513.807C1625.28 520.694 1631.84 527.817 1638.25 534.713L1637.8 535.128C1631.39 528.229 1624.83 521.108 1618.49 514.219C1573.29 465.11 1526.55 414.33 1470.27 376.937C1437.47 355.144 1401.93 340.898 1364.65 334.591C1345.26 331.312 1325.37 331.01 1305.52 333.694C1251.99 340.934 1202.64 360.922 1140.51 400.533C1136.53 403.073 1132.5 405.763 1128.61 408.362C1124.08 411.39 1119.39 414.523 1114.65 417.5C1111.47 419.495 1108.3 421.644 1104.93 423.916C1092.48 432.333 1078.36 441.87 1060.97 445.251C1042.03 448.935 1023.22 447.914 1005.03 446.927C997.99 446.545 991.338 446.184 984.859 446.109C967.844 445.912 950.719 445.337 934.159 444.779C913.34 444.08 891.811 443.356 870.3 443.376C848.878 443.398 827.869 443.519 806.396 444.757C793.108 445.51 779.509 446.915 765.981 448.935C718.351 456.046 676.256 478.048 635.547 499.327C624.701 504.996 613.486 510.859 602.478 516.26C579.051 527.754 553.896 539.459 526.564 545.266C497.157 551.515 467.025 549.722 440.438 548.143L436.479 547.91C421.202 547.013 404.223 546.012 387.257 543.778L387.254 543.776Z" fill="#0E0E0E"/>
<path d="M405.083 541.985C391.043 540.136 376.855 537.581 363.336 533.639C333.114 524.825 312.819 510.847 301.292 490.91C290.802 472.674 286.96 453.607 283.247 435.166C282.864 433.266 282.485 431.378 282.097 429.507C281.289 425.573 280.488 421.595 279.714 417.746C275.289 395.76 271.108 374.993 264.042 354.33L263.972 354.121C263.378 352.374 262.764 350.569 262.087 348.825C240.852 294.186 201.484 254.639 141.731 227.93C122.687 219.419 100.922 212.096 75.1869 205.545C20.2914 191.569 -39.7101 180.351 -97.7344 169.501C-105.4 168.069 -113.048 166.639 -120.667 165.204C-156.85 158.427 -194.002 155.111 -228.11 155.616C-250.502 155.944 -270.424 158.385 -284.971 160.169C-299.683 161.971 -309.403 163.163 -313.221 161.394L-312.977 160.865C-309.31 162.561 -299.132 161.316 -285.044 159.589C-270.483 157.806 -250.543 155.362 -228.12 155.031C-193.975 154.527 -156.779 157.847 -120.559 164.629C-112.941 166.061 -105.29 167.491 -97.6273 168.926C-39.5932 179.779 20.418 190.999 75.3305 204.978C101.097 211.538 122.894 218.87 141.97 227.397C201.869 254.171 241.339 293.823 262.63 348.613C263.312 350.369 263.928 352.182 264.524 353.933L264.595 354.143C271.673 374.839 275.857 395.626 280.286 417.631C281.06 421.478 281.861 425.456 282.669 429.39C283.054 431.263 283.434 433.151 283.819 435.052C287.525 453.446 291.357 472.465 301.798 490.618C313.245 510.418 333.428 524.309 363.502 533.079C389.392 540.631 417.781 543.081 442.829 545.244C444.619 545.398 446.384 545.551 448.125 545.702C474.729 548.031 504.883 550.67 534.137 544.402C561.367 538.567 586.213 526.151 609.327 513.929C619.576 508.511 630.032 502.63 640.141 496.942C680.853 474.041 722.953 450.362 771.842 444.184C785.351 442.477 798.999 441.483 812.4 441.227C834.174 440.786 854.96 441.685 876.11 442.725C897.304 443.768 918.434 445.648 938.868 447.468C955.46 448.944 972.616 450.472 989.695 451.541C995.804 451.924 1002.12 452.606 1008.8 453.327C1027.18 455.312 1046.19 457.363 1065.35 453.831C1083.01 450.574 1096.71 440.099 1108.8 430.859C1111.8 428.564 1114.64 426.399 1117.47 424.386C1122.22 421 1126.89 417.429 1131.41 413.977C1134.87 411.334 1138.44 408.601 1141.99 406.001C1170.96 384.778 1195.44 369.234 1219.01 357.083C1245.86 343.236 1272.11 333.597 1299.24 327.607C1318.7 323.312 1338.36 322.189 1357.69 324.262C1395.17 328.289 1431.11 341.278 1464.53 362.873C1521.84 399.904 1568.68 451.673 1613.98 501.739C1619.94 508.331 1626.11 515.147 1632.14 521.746L1631.71 522.141C1625.68 515.539 1619.51 508.723 1613.54 502.131C1568.27 452.094 1521.46 400.355 1464.22 363.366C1430.87 341.819 1395.01 328.859 1357.62 324.844C1338.36 322.776 1318.76 323.896 1299.37 328.177C1249.07 339.278 1202.1 362.693 1142.33 406.472C1138.79 409.066 1135.22 411.799 1131.76 414.44C1127.24 417.897 1122.57 421.47 1117.8 424.861C1114.99 426.866 1112.16 429.032 1109.16 431.322C1097.02 440.603 1083.25 451.122 1065.46 454.404C1046.21 457.953 1026.3 455.802 1008.74 453.907C1002.06 453.186 995.758 452.506 989.661 452.123C972.575 451.054 955.413 449.527 938.819 448.05C918.39 446.233 897.265 444.352 876.084 443.31C854.946 442.27 834.169 441.371 812.415 441.812C799.033 442.067 785.407 443.059 771.917 444.764C723.141 450.927 681.092 474.579 640.429 497.451C630.314 503.14 619.856 509.023 609.6 514.445C586.451 526.684 561.564 539.123 534.261 544.972C504.923 551.259 474.722 548.616 448.077 546.285C446.336 546.134 444.57 545.98 442.781 545.827C430.772 544.789 417.993 543.685 405.088 541.987L405.083 541.985Z" fill="#0E0E0E"/>
<path d="M469.019 546.475C464.656 545.9 460.217 545.218 455.691 544.426C448.571 543.181 441.13 542.068 433.248 540.889C411.309 537.608 386.446 533.885 364.761 526.314C339.905 517.637 322.748 505.145 312.31 488.124C301.754 470.818 297.174 452.779 292.748 435.334C292.229 433.295 291.718 431.271 291.197 429.266C290.361 426.043 289.541 422.833 288.723 419.632C283.215 398.099 278.014 377.758 269.908 357.709L269.762 357.346C269.119 355.748 268.457 354.097 267.731 352.503C244.5 301.4 204.491 265.066 145.422 241.426C126.815 233.979 105.373 227.624 79.8765 222.001C37.2165 212.591 -8.77926 204.179 -53.263 196.042C-72.684 192.491 -92.7648 188.817 -112.342 185.104C-148.559 178.266 -184.9 174.547 -217.431 174.349C-237.889 174.225 -255.822 175.906 -270.232 177.253C-285.278 178.661 -296.147 179.679 -300.627 177.606L-300.394 177.1C-296.05 179.109 -285.243 178.098 -270.283 176.698C-255.861 175.348 -237.911 173.667 -217.426 173.789C-184.861 173.986 -148.486 177.709 -112.235 184.554C-92.6601 188.266 -72.5792 191.94 -53.1607 195.492C-8.67455 203.628 37.3285 212.042 79.9982 221.455C105.524 227.088 126.992 233.451 145.632 240.907C175.912 253.027 200.583 268.028 221.056 286.769C241.12 305.139 256.555 326.564 268.243 352.27C268.971 353.873 269.638 355.531 270.281 357.134L270.427 357.495C278.547 377.58 283.753 397.938 289.266 419.49C290.084 422.689 290.904 425.9 291.74 429.122C292.258 431.13 292.772 433.154 293.291 435.193C297.708 452.599 302.275 470.596 312.787 487.829C336.058 525.776 387.737 533.508 433.333 540.331C441.217 541.51 448.663 542.624 455.788 543.871C488.226 549.547 516.374 549.632 541.831 544.129C569.083 538.241 593.629 525.099 616.44 512.141C626.058 506.677 635.878 500.748 645.374 495.016C685.923 470.533 727.85 445.218 777.79 440.036C791.268 438.638 804.945 438.056 818.439 438.306C840.446 438.686 861.866 440.679 881.92 442.686C898.736 444.37 915.456 447.032 931.624 449.607C952.092 452.867 973.259 456.236 994.511 457.581C1001.95 458.051 1009.78 459.296 1018.06 460.611C1034.91 463.288 1052.34 466.058 1069.84 463.006C1087.88 459.858 1101.19 448.387 1112.92 438.267C1115.59 435.97 1118.11 433.802 1120.6 431.79C1125.33 427.982 1129.93 423.965 1134.39 420.082C1137.46 417.403 1140.63 414.63 1143.79 411.985C1172.1 388.231 1194.47 371.561 1216.3 357.933C1241.94 341.926 1267.04 330.213 1293.05 322.126C1312.03 316.226 1331.4 313.673 1350.62 314.537C1388.14 316.226 1424.43 327.928 1458.46 349.322C1516.7 385.929 1563.58 438.64 1608.92 489.615C1614.54 495.929 1620.35 502.46 1626.03 508.782L1625.61 509.154C1619.93 502.83 1614.12 496.299 1608.5 489.985C1563.19 439.04 1516.33 386.357 1458.16 349.795C1424.21 328.455 1388.02 316.781 1350.59 315.095C1331.43 314.233 1312.13 316.779 1293.22 322.659C1237.73 339.911 1193.5 371.018 1144.15 412.414C1140.99 415.057 1137.82 417.826 1134.75 420.506C1130.29 424.394 1125.69 428.414 1120.95 432.228C1118.46 434.233 1115.95 436.401 1113.29 438.694C1101.49 448.862 1088.13 460.384 1069.93 463.559C1052.34 466.628 1034.87 463.851 1017.97 461.164C1009.7 459.849 1001.89 458.609 994.474 458.138C973.193 456.794 952.014 453.42 931.534 450.16C915.371 447.585 898.66 444.925 881.862 443.242C861.82 441.235 840.414 439.244 818.427 438.864C804.954 438.616 791.302 439.196 777.846 440.591C728.032 445.758 686.157 471.042 645.661 495.493C636.163 501.228 626.34 507.159 616.715 512.626C593.868 525.605 569.278 538.77 541.948 544.675C519.97 549.425 496.003 550.022 469.017 546.47L469.019 546.475Z" fill="#0E0E0E"/>
<path d="M484.247 546.138C477.476 545.247 470.51 544.058 463.329 542.57C455.902 541.03 448.137 539.641 439.917 538.17C417.874 534.226 395.08 530.151 374.291 522.44C350.519 513.624 333.849 501.488 323.33 485.337C312.736 468.981 307.452 451.987 302.344 435.553C301.674 433.402 300.985 431.181 300.301 429.025C299.531 426.598 298.769 424.182 298.009 421.77C291.333 400.593 285.026 380.591 275.776 361.085L275.567 360.64C274.873 359.168 274.157 357.646 273.383 356.184C247.903 307.977 208.419 275.799 149.121 254.924C130.723 248.447 110.213 243.216 84.5758 238.459C57.3679 233.411 29.8728 228.685 0.763184 223.684C-33.6764 217.767 -69.2873 211.648 -104.002 205.004C-140.412 198.069 -175.937 193.947 -206.739 193.085C-225.398 192.561 -242.165 193.628 -255.637 194.485C-271.435 195.492 -282.848 196.218 -288.022 193.823L-287.798 193.338C-282.745 195.677 -271.389 194.953 -255.671 193.954C-242.187 193.097 -225.405 192.03 -206.724 192.551C-175.896 193.416 -140.341 197.54 -103.902 204.481C-69.1923 211.124 -33.5839 217.243 0.853275 223.158C29.9653 228.159 57.4629 232.885 84.6732 237.933C110.34 242.695 130.876 247.933 149.299 254.42C179.224 264.953 203.802 278.276 224.438 295.144C244.921 311.887 261.086 331.77 273.855 355.933C274.632 357.404 275.352 358.934 276.049 360.411L276.258 360.856C285.523 380.396 291.834 400.413 298.518 421.607C299.278 424.019 300.04 426.435 300.81 428.859C301.494 431.015 302.185 433.239 302.855 435.39C307.954 451.79 313.225 468.745 323.778 485.04C347.224 521.04 396.519 529.858 440.012 537.637C448.235 539.108 456.002 540.497 463.438 542.039C496.008 548.791 524.171 549.386 549.53 543.861C576.84 537.912 601.075 524.048 623.557 510.358C632.632 504.833 641.902 498.837 650.867 493.037C691.16 466.981 732.827 440.036 783.736 435.892C797.189 434.796 810.895 434.628 824.475 435.388C846.696 436.606 867.904 439.644 887.725 442.652C908.65 445.826 929.357 450.021 949.379 454.08C965.669 457.381 982.512 460.791 999.352 463.629C1004.78 464.543 1010.46 465.783 1016.47 467.096C1034.37 471.001 1054.65 475.427 1074.33 472.189C1092.75 469.159 1105.62 456.664 1116.97 445.641C1119.32 443.356 1121.55 441.2 1123.74 439.2C1128.41 434.952 1132.91 430.477 1137.27 426.15C1139.99 423.446 1142.8 420.654 1145.6 417.972C1194.65 370.927 1235.39 337.57 1286.86 316.649C1305.33 309.141 1324.41 305.161 1343.56 304.817C1381.08 304.145 1417.7 314.559 1452.39 335.772C1511.54 371.936 1558.45 425.578 1603.81 477.451C1609.1 483.502 1614.57 489.761 1619.92 495.822L1619.52 496.175C1614.17 490.114 1608.7 483.856 1603.41 477.802C1558.07 425.958 1511.2 372.347 1452.12 336.225C1417.51 315.066 1380.99 304.678 1343.57 305.348C1324.49 305.692 1305.48 309.658 1287.07 317.141C1235.67 338.028 1194.98 371.356 1145.97 418.355C1143.18 421.034 1140.37 423.826 1137.65 426.528C1133.29 430.859 1128.78 435.337 1124.11 439.595C1121.91 441.588 1119.7 443.743 1117.35 446.024C1105.94 457.1 1093 469.658 1074.42 472.716C1054.64 475.97 1034.3 471.532 1016.36 467.617C1010.36 466.306 1004.68 465.069 999.266 464.155C982.417 461.317 965.569 457.902 949.277 454.601C929.26 450.545 908.56 446.352 887.649 443.178C867.844 440.172 846.647 437.137 824.451 435.919C810.895 435.159 797.214 435.327 783.785 436.421C733.009 440.555 691.401 467.461 651.162 493.483C642.194 499.283 632.919 505.281 623.839 510.811C601.319 524.526 577.042 538.414 549.65 544.38C529.81 548.704 508.263 549.291 484.252 546.129L484.247 546.138Z" fill="#0E0E0E"/>
<path d="M497.92 545.047C488.647 543.827 479.628 542.239 470.984 540.716C468.64 540.302 466.258 539.888 463.843 539.469C418.219 531.535 361.439 521.661 334.353 482.553C323.759 467.166 317.81 451.239 312.059 435.839C311.192 433.515 310.294 431.11 309.407 428.786C308.823 427.252 308.239 425.719 307.657 424.189C299.694 403.264 292.175 383.497 281.649 364.467L281.374 363.965C280.629 362.608 279.857 361.207 279.039 359.865C251.751 315.268 211.645 286.213 152.822 268.423C134.93 263.012 114.737 258.72 89.2753 254.917C83.6433 254.077 77.9797 253.234 72.2844 252.386C17.2307 244.191 -39.6979 235.719 -95.6648 224.907C-133.036 217.726 -166.808 213.321 -196.047 211.821C-213.016 210.949 -228.631 211.453 -241.178 211.857C-257.629 212.388 -269.514 212.771 -275.418 210.038L-275.204 209.575C-269.409 212.257 -257.575 211.874 -241.193 211.348C-228.636 210.944 -213.009 210.44 -196.018 211.312C-166.757 212.815 -132.958 217.219 -95.5649 224.405C-39.6103 235.214 17.3135 243.687 72.3623 251.879C78.0576 252.727 83.7237 253.57 89.3557 254.41C114.845 258.218 135.059 262.513 152.975 267.931C211.925 285.758 252.121 314.883 279.48 359.592C280.308 360.944 281.079 362.35 281.827 363.712L282.102 364.214C292.645 383.276 300.172 403.057 308.141 423.999C308.723 425.529 309.305 427.059 309.892 428.596C310.778 430.923 311.677 433.327 312.546 435.654C318.288 451.028 324.224 466.923 334.782 482.255C361.749 521.189 418.412 531.042 463.94 538.96C466.356 539.379 468.737 539.795 471.082 540.207C497.508 544.862 527.46 550.136 557.239 543.595C584.64 537.578 608.546 522.996 630.684 508.577C639.279 502.977 648.067 496.904 656.567 491.028C696.539 463.398 737.872 434.825 789.695 431.749C803.126 430.949 816.861 431.193 830.521 432.472C852.935 434.543 874.803 438.796 893.539 442.618C914.455 446.886 935.07 452.263 955.007 457.464C971.026 461.641 987.591 465.963 1004.19 469.676C1009.3 470.818 1014.68 472.297 1020.38 473.863C1038.44 478.825 1058.91 484.448 1078.83 481.366C1097.63 478.458 1110.57 464.319 1120.97 452.959C1123.03 450.706 1124.98 448.577 1126.9 446.604C1131.49 441.892 1135.86 436.94 1140.09 432.153C1142.48 429.449 1144.96 426.65 1147.42 423.953C1189.4 377.951 1228.4 337.712 1280.69 311.168C1298.64 302.057 1317.42 296.647 1336.51 295.093C1373.99 292.04 1410.94 301.166 1446.34 322.218C1506.38 357.924 1553.29 412.487 1598.65 465.254C1603.63 471.052 1608.78 477.05 1613.82 482.857L1613.44 483.191C1608.4 477.383 1603.24 471.386 1598.26 465.585C1552.93 412.85 1506.05 358.321 1446.08 322.657C1410.77 301.66 1373.92 292.559 1336.55 295.602C1317.53 297.151 1298.81 302.542 1280.92 311.624C1228.7 338.131 1189.74 378.333 1147.79 424.299C1145.33 426.993 1142.86 429.788 1140.47 432.492C1136.23 437.286 1131.85 442.241 1127.26 446.962C1125.34 448.928 1123.4 451.054 1121.34 453.305C1110.89 464.726 1097.88 478.938 1078.91 481.873C1058.88 484.972 1038.36 479.332 1020.25 474.355C1014.56 472.791 1009.18 471.315 1004.08 470.173C987.472 466.458 970.902 462.136 954.878 457.956C934.948 452.757 914.341 447.381 893.437 443.115C874.712 439.293 852.859 435.045 830.472 432.976C816.837 431.7 803.126 431.459 789.721 432.253C738.04 435.322 696.768 463.851 656.852 491.442C648.352 497.318 639.559 503.396 630.959 508.999C608.782 523.444 584.829 538.053 557.346 544.09C537.227 548.509 517.046 547.557 497.927 545.038L497.92 545.047Z" fill="#0E0E0E"/>
<path d="M512.03 544.889C500.186 543.33 488.891 540.989 478.623 538.86C476.344 538.387 474.028 537.912 471.686 537.432C427.706 528.409 372.971 517.179 345.374 479.766C334.823 465.381 328.263 450.545 321.92 436.199C320.803 433.675 319.651 431.064 318.509 428.543L317.776 426.923C308.375 406.121 299.495 386.472 287.515 367.843L287.196 367.344C286.392 366.084 285.56 364.781 284.683 363.541C255.712 322.55 214.983 296.613 156.511 281.918C139.174 277.56 119.298 274.211 93.9625 271.375C21.7669 263.295 -35.8435 254.851 -87.3398 244.807C-126.632 237.183 -157.782 232.654 -185.368 230.557C-200.744 229.387 -214.611 229.375 -226.844 229.365C-243.221 229.351 -256.156 229.341 -262.828 226.254L-262.625 225.816C-256.051 228.859 -243.163 228.868 -226.847 228.883C-214.604 228.893 -200.727 228.905 -185.333 230.077C-157.729 232.176 -126.562 236.708 -87.2497 244.335C-35.7656 254.376 21.8327 262.817 94.0137 270.895C119.371 273.733 139.267 277.088 156.625 281.451C185.939 288.817 210.318 298.783 231.156 311.921C252.552 325.407 270.188 342.201 285.073 363.266C285.957 364.516 286.789 365.821 287.598 367.086L287.917 367.583C299.914 386.24 308.801 405.904 318.21 426.723L318.943 428.343C320.082 430.867 321.239 433.478 322.354 436.002C328.687 450.323 335.235 465.135 345.754 479.476C373.241 516.738 427.874 527.946 471.773 536.955C474.116 537.435 476.431 537.91 478.713 538.382C503.698 543.559 534.792 550.005 564.919 543.332C592.434 537.242 616.001 521.944 637.784 506.796C645.951 501.118 654.303 494.957 662.382 488.998C681.925 474.587 702.132 459.683 723.944 448.202C748.586 435.232 772.031 428.496 795.623 427.607C809.04 427.1 822.805 427.758 836.54 429.558C836.723 429.583 836.908 429.607 837.088 429.632C859.482 432.582 880.943 437.863 899.327 442.589C920.297 447.98 940.879 454.57 960.785 460.942C976.478 465.965 992.704 471.162 1009 475.729C1013.81 477.076 1018.9 478.772 1024.29 480.562C1042.51 486.614 1063.15 493.473 1083.3 490.555C1102.48 487.776 1114.9 472.504 1124.87 460.233C1126.67 458.031 1128.36 455.951 1130.02 454.019C1134.5 448.813 1138.74 443.356 1142.83 438.082C1144.91 435.403 1147.06 432.63 1149.2 429.948C1170.68 403.04 1188.66 380.835 1208.18 360.464C1230.44 337.237 1251.51 319.836 1274.49 305.702C1291.9 294.99 1310.39 288.155 1329.43 285.383C1347.14 282.805 1365.13 283.251 1382.91 286.71C1402.27 290.479 1421.56 297.87 1440.25 308.676C1467.52 324.447 1494.55 345.887 1522.9 374.218C1547.97 399.281 1571.07 426.611 1593.4 453.037C1598.1 458.591 1602.95 464.336 1607.69 469.9L1607.33 470.214C1602.58 464.648 1597.73 458.903 1593.03 453.349C1547.72 399.731 1500.86 344.289 1440.01 309.093C1403.97 288.25 1366.79 280.432 1329.5 285.86C1310.53 288.622 1292.1 295.436 1274.74 306.113C1223.51 337.621 1187.6 382.616 1149.58 430.25C1147.44 432.93 1145.3 435.7 1143.22 438.379C1139.12 443.661 1134.88 449.12 1130.39 454.338C1128.73 456.263 1127.04 458.341 1125.25 460.54C1115.22 472.877 1102.73 488.231 1083.37 491.035C1063.1 493.973 1042.4 487.093 1024.14 481.023C1018.75 479.232 1013.66 477.539 1008.86 476.194C992.565 471.624 976.334 466.428 960.636 461.403C940.738 455.032 920.16 448.445 899.205 443.057C880.685 438.294 859.034 432.967 836.474 430.038C822.768 428.241 809.028 427.585 795.638 428.09C743.092 430.07 702.205 460.224 662.664 489.388C654.583 495.347 646.229 501.51 638.057 507.193C616.235 522.368 592.621 537.695 565.021 543.803C547.195 547.751 529.043 547.125 512.018 544.882L512.03 544.889Z" fill="#0E0E0E"/>
<path d="M524.896 544.721C511.859 543.004 499.169 540.092 486.261 537.003C484.221 536.516 482.153 536.024 480.067 535.527C458.778 530.468 434.648 524.733 412.658 515.866C387.366 505.666 368.961 492.947 356.392 476.976C345.948 463.632 338.848 449.924 331.984 436.667C330.555 433.904 329.074 431.049 327.616 428.299C317.491 409.22 307.021 389.49 293.388 371.217L293.03 370.735C292.166 369.568 291.272 368.362 290.339 367.217C259.396 329.288 219.264 307.141 160.212 295.414C143.267 292.05 124.285 289.709 98.6619 287.831C34.9641 283.161 -24.8109 275.38 -79.0026 264.708C-95.6088 261.453 -112.283 259.063 -128.41 256.751C-144.592 254.43 -159.879 252.24 -174.698 249.287C-192.463 245.75 -208.872 245.589 -222.057 245.46C-234.444 245.338 -244.227 245.243 -250.224 242.469L-250.032 242.052C-244.125 244.786 -234.385 244.881 -222.052 245.002C-208.848 245.131 -192.414 245.292 -174.608 248.839C-159.801 251.789 -144.522 253.979 -128.344 256.298C-112.213 258.613 -95.5285 261.005 -78.9125 264.259C-24.7403 274.929 35.0153 282.705 98.696 287.375C124.338 289.256 143.338 291.597 160.302 294.966C189.37 300.739 213.644 309.037 234.509 320.328C256.399 332.177 274.778 347.419 290.695 366.93C291.635 368.082 292.533 369.293 293.4 370.462L293.758 370.944C307.413 389.244 317.891 408.988 328.022 428.085C329.483 430.837 330.964 433.695 332.393 436.457C339.25 449.695 346.338 463.383 356.754 476.694C384.883 512.433 437.721 524.989 480.174 535.079C482.26 535.576 484.328 536.066 486.368 536.555C516.851 543.849 544.383 549.374 572.625 543.069C600.274 536.901 623.496 520.889 644.911 505.018C652.686 499.254 660.646 493.003 668.343 486.957C687.654 471.785 707.625 456.097 729.393 444.138C754.003 430.621 777.615 423.861 801.577 423.471C814.979 423.254 828.775 424.321 842.581 426.65C865.338 430.46 886.804 436.862 905.137 442.562C926.214 449.115 946.818 456.957 966.745 464.538C982.061 470.365 997.9 476.392 1013.83 481.785C1018.34 483.315 1023.16 485.196 1028.25 487.188C1046.61 494.367 1067.41 502.501 1087.8 499.744C1107.36 497.098 1119.23 480.66 1128.76 467.449C1130.3 465.317 1131.75 463.305 1133.18 461.434C1137.55 455.69 1141.63 449.69 1145.58 443.887C1147.36 441.271 1149.19 438.567 1151.03 435.941C1152.49 433.836 1153.95 431.741 1155.4 429.658C1191.1 378.362 1221.94 334.062 1268.32 300.233C1285.19 287.931 1303.38 279.667 1322.39 275.67C1340.03 271.96 1358.09 271.519 1376.06 274.354C1395.61 277.438 1415.16 284.428 1434.19 295.132C1461.84 310.686 1489.13 332.189 1517.61 360.864C1542.79 386.218 1565.84 413.968 1588.14 440.803C1592.56 446.121 1597.13 451.619 1601.59 456.947L1601.24 457.242C1596.78 451.914 1592.21 446.416 1587.79 441.098C1542.51 386.603 1495.68 330.252 1433.96 295.534C1397.17 274.834 1359.66 268.303 1322.48 276.121C1303.53 280.104 1285.4 288.342 1268.59 300.605C1222.27 334.389 1191.46 378.659 1155.78 429.921C1154.33 432.007 1152.87 434.102 1151.4 436.204C1149.57 438.83 1147.74 441.532 1145.96 444.146C1142 449.953 1137.92 455.958 1133.54 461.712C1132.12 463.578 1130.67 465.588 1129.13 467.717C1119.55 480.998 1107.62 497.527 1087.86 500.199C1081.74 501.028 1075.58 500.879 1069.47 500.075C1055.11 498.185 1041 492.665 1028.08 487.615C1022.99 485.624 1018.19 483.746 1013.68 482.219C997.747 476.823 981.903 470.796 966.582 464.967C946.662 457.388 926.063 449.551 905.001 443.001C886.68 437.303 865.231 430.906 842.503 427.103C828.726 424.781 814.959 423.714 801.584 423.931C748.208 424.798 707.752 456.582 668.625 487.32C660.926 493.369 652.964 499.625 645.184 505.391C623.727 521.291 600.462 537.332 572.725 543.522C559.457 546.485 545.062 547.03 528.714 545.191C527.438 545.047 526.165 544.891 524.896 544.723V544.721Z" fill="#0E0E0E"/>
<path d="M536.601 544.497C522.451 542.633 508.251 539.052 493.897 535.145C492.334 534.718 490.758 534.292 489.168 533.861C468.411 528.229 444.882 521.844 423.355 512.677C398.64 502.153 380.342 489.564 367.407 474.19C357.156 461.936 349.613 449.403 342.318 437.281C340.399 434.092 338.588 431.081 336.715 428.053C325.093 409.256 313.483 391.025 299.254 374.591L298.864 374.138C297.936 373.061 296.977 371.946 295.986 370.893C264.958 337.96 226.688 320.004 163.894 308.908C145.651 305.685 126.593 305.056 106.417 304.389L103.349 304.286C43.4572 302.289 -15.0931 295.668 -70.6752 284.608C-84.6565 281.84 -98.762 279.587 -112.403 277.409C-130.455 274.525 -147.504 271.804 -164.013 268.021C-180.395 264.269 -195.93 263.492 -208.414 262.868C-221.047 262.237 -231.022 261.738 -237.628 258.681L-237.446 258.286C-230.915 261.307 -220.976 261.804 -208.39 262.432C-195.889 263.058 -180.332 263.833 -163.916 267.594C-147.419 271.373 -130.377 274.096 -112.332 276.978C-98.6866 279.158 -84.5762 281.412 -70.5875 284.181C-15.0273 295.236 43.4986 301.855 103.366 303.853L106.434 303.955C126.627 304.622 145.7 305.251 163.972 308.479C194.172 313.814 217.611 320.462 237.735 329.4C260.597 339.553 279.755 353.027 296.305 370.594C297.303 371.653 298.265 372.771 299.198 373.853L299.587 374.304C313.836 390.762 325.458 409.01 337.09 427.821C338.962 430.852 340.862 434.004 342.695 437.052C349.981 449.159 357.517 461.678 367.746 473.905C396.692 508.311 448.035 522.243 489.288 533.437C490.875 533.868 492.453 534.295 494.016 534.721C523.155 542.655 551.683 549.24 580.327 542.796C608.122 536.545 630.991 519.822 652.033 503.227C659.45 497.378 666.706 491.315 674.388 484.896C693.456 468.964 713.172 452.489 734.882 440.051C759.443 425.982 783.203 419.2 807.523 419.32C820.915 419.385 834.741 420.867 848.615 423.726C870.437 428.199 891.465 435.403 910.939 442.523C932.174 450.287 952.852 459.422 972.85 468.258C987.742 474.837 1003.14 481.644 1018.65 487.824C1022.89 489.512 1027.42 491.556 1032.21 493.717C1050.71 502.056 1071.67 511.505 1092.29 508.916C1112.25 506.409 1123.53 488.764 1132.59 474.584C1133.89 472.548 1135.12 470.626 1136.32 468.83C1140.58 462.487 1144.5 455.883 1148.3 449.495C1149.79 447.003 1151.32 444.426 1152.84 441.914C1155.96 436.772 1159.07 431.612 1162.07 426.621C1177.27 401.385 1191.62 377.553 1207.56 355.375C1225.44 330.486 1242.79 311.222 1262.15 294.747C1278.46 280.864 1296.35 271.173 1315.33 265.943C1332.9 261.102 1351.03 259.77 1369.21 261.984C1388.93 264.384 1408.75 270.976 1428.12 281.572C1456.16 296.907 1483.69 318.469 1512.3 347.49C1537.58 373.137 1560.6 401.303 1582.85 428.54C1587 433.622 1591.29 438.879 1595.49 443.973L1595.15 444.248C1590.96 439.154 1586.66 433.897 1582.51 428.815C1537.27 373.444 1490.5 316.189 1427.91 281.952C1390.87 261.687 1351.98 256.293 1315.45 266.359C1296.53 271.572 1278.69 281.234 1262.43 295.076C1220.1 331.1 1192.09 377.607 1162.44 426.845C1159.44 431.836 1156.33 436.996 1153.21 442.138C1151.69 444.65 1150.16 447.225 1148.68 449.717C1144.88 456.109 1140.95 462.718 1136.68 469.071C1135.48 470.859 1134.26 472.781 1132.96 474.816C1128.47 481.829 1123.39 489.778 1116.88 496.348C1109.33 503.97 1101.3 508.221 1092.34 509.344C1083.1 510.506 1072.9 509.332 1061.18 505.756C1050.96 502.64 1040.91 498.109 1032.04 494.109C1027.24 491.948 1022.72 489.907 1018.49 488.224C1002.97 482.039 987.571 475.232 972.675 468.65C952.684 459.817 932.011 450.684 910.791 442.925C891.333 435.812 870.322 428.613 848.527 424.148C834.682 421.295 820.886 419.817 807.521 419.751C753.339 419.485 713.342 452.906 674.666 485.227C666.981 491.649 659.72 497.715 652.301 503.566C631.22 520.192 608.307 536.947 580.422 543.218C565.813 546.504 551.237 546.414 536.606 544.489L536.601 544.497Z" fill="#0E0E0E"/>
<path d="M547.134 544.214C546.063 544.073 544.984 543.919 543.896 543.754C528.887 541.471 514.163 537.154 501.538 533.288L499.349 532.618C478.964 526.38 455.856 519.308 434.597 509.778C410.228 498.852 391.854 486.299 378.428 471.403C368.484 460.311 360.633 449.015 353.039 438.092C350.567 434.535 348.23 431.176 345.819 427.809C334.482 411.992 321.051 393.792 305.122 377.965L304.735 377.578C303.734 376.576 302.697 375.541 301.635 374.567C267.512 343.28 227.423 327.677 167.592 322.403C148.086 320.683 127.443 320.588 108.039 320.744C69.4427 321.051 30.7907 318.666 -7.41091 313.636C-25.8457 311.21 -44.1686 308.164 -62.3429 304.51C-73.5971 302.257 -84.9974 300.262 -96.0204 298.33C-116.062 294.82 -134.994 291.502 -153.326 286.756C-168.377 282.859 -182.414 281.548 -194.801 280.393C-207.136 279.241 -217.789 278.247 -225.033 274.898L-224.86 274.525C-217.682 277.845 -207.06 278.837 -194.762 279.984C-182.36 281.141 -168.306 282.452 -153.222 286.359C-134.904 291.102 -115.982 294.418 -95.9473 297.926C-84.922 299.857 -73.5216 301.855 -62.2601 304.108C-6.45152 315.334 50.8447 320.791 108.039 320.335C127.452 320.179 148.108 320.274 167.631 321.996C196.368 324.53 220.42 329.504 241.166 337.197C264.13 345.716 284.001 357.841 301.915 374.265C302.984 375.244 304.024 376.282 305.027 377.288L305.414 377.675C321.363 393.524 334.806 411.741 346.155 427.571C348.568 430.94 350.906 434.299 353.38 437.858C360.965 448.772 368.81 460.055 378.735 471.127C408.786 504.472 456.964 519.218 499.471 532.226L501.66 532.896C529.401 541.391 558.917 549.133 588.022 542.536C615.979 536.199 638.49 518.765 659.151 501.449C666.231 495.515 673.166 489.359 680.507 482.842C699.315 466.148 718.763 448.886 740.404 435.968C764.902 421.344 788.801 414.545 813.469 415.181C826.856 415.527 840.711 417.422 854.646 420.813C876.607 426.138 897.467 434.379 916.739 442.491C938.181 451.517 958.98 462.009 979.093 472.153C993.52 479.429 1008.44 486.954 1023.47 493.875C1027.43 495.697 1031.68 497.875 1036.18 500.18C1053.89 509.242 1075.92 520.519 1096.78 518.102C1117.15 515.741 1128.26 496.046 1136.37 481.663C1137.45 479.746 1138.47 477.936 1139.47 476.241C1143.61 469.215 1147.38 461.926 1151.03 454.876C1152.21 452.586 1153.44 450.219 1154.66 447.902C1158.72 440.165 1162.72 432.413 1166.6 424.915C1192.43 374.91 1216.83 327.677 1255.97 289.273C1271.72 273.821 1289.32 262.703 1308.28 256.228C1325.77 250.257 1343.96 248.035 1362.36 249.626C1382.25 251.346 1402.34 257.536 1422.06 268.025C1450.47 283.139 1478.24 304.759 1506.98 334.123C1532.35 360.06 1555.31 388.64 1577.52 416.282C1581.41 421.134 1585.44 426.15 1589.38 431.015L1589.06 431.273C1585.12 426.409 1581.09 421.393 1577.2 416.54C1532.02 360.296 1485.3 302.135 1421.86 268.388C1384.03 248.262 1344.8 244.191 1308.41 256.615C1289.51 263.07 1271.96 274.155 1256.26 289.565C1217.16 327.923 1192.78 375.127 1166.96 425.103C1163.09 432.601 1159.08 440.355 1155.02 448.092C1153.8 450.406 1152.58 452.774 1151.39 455.064C1147.74 462.119 1143.97 469.415 1139.82 476.45C1138.83 478.143 1137.81 479.951 1136.73 481.868C1128.57 496.326 1117.4 516.126 1096.82 518.511C1075.84 520.945 1053.75 509.634 1036 500.548C1031.5 498.246 1027.25 496.07 1023.3 494.25C1008.26 487.325 993.34 479.8 978.908 472.521C958.8 462.379 938.008 451.892 916.579 442.871C897.323 434.767 876.48 426.53 854.549 421.212C840.638 417.826 826.813 415.933 813.457 415.59C758.486 414.175 718.982 449.239 680.778 483.149C673.434 489.668 666.499 495.824 659.414 501.763C638.714 519.11 616.16 536.579 588.112 542.935C575.603 545.771 562.167 546.192 547.134 544.212V544.214Z" fill="#0E0E0E"/>
<path d="M557.332 543.936C555.408 543.683 553.46 543.388 551.483 543.047C536.861 540.538 522.51 535.983 509.179 531.432C490.498 525.057 467.249 517.12 445.644 506.864C421.774 495.532 403.391 483.02 389.446 468.613C379.984 458.789 372.024 448.825 364.327 439.19C361.108 435.161 358.067 431.356 354.924 427.561C342.062 412.033 327.837 395.685 310.993 381.334L310.64 381.032C309.554 380.101 308.429 379.139 307.287 378.238C271.973 350.377 231.3 337.714 171.286 335.897C152.25 335.319 132.727 336.184 112.731 337.2C57.5993 339.999 1.49858 335.697 -54.0105 324.411C-67.948 321.59 -81.9367 318.498 -95.4651 315.507C-111.755 311.906 -127.144 308.505 -142.62 305.494C-152.26 303.619 -161.303 302.211 -170.052 300.849C-187.311 298.162 -202.215 295.84 -212.434 291.112L-212.274 290.764C-202.103 295.47 -187.223 297.787 -169.993 300.469C-161.245 301.831 -152.197 303.241 -142.549 305.117C-127.068 308.128 -111.677 311.531 -95.3848 315.132C-81.8587 318.121 -67.8701 321.214 -53.935 324.033C1.54242 335.312 57.609 339.614 112.711 336.815C132.714 335.799 152.247 334.934 171.298 335.512C200.347 336.391 223.603 339.616 244.487 345.665C268.019 352.479 288.637 363.034 307.525 377.933C308.675 378.839 309.802 379.804 310.89 380.737L311.243 381.039C328.11 395.407 342.347 411.77 355.221 427.312C358.364 431.108 361.408 434.915 364.627 438.947C372.319 448.574 380.274 458.53 389.724 468.343C421.387 501.059 470.135 517.698 509.303 531.064C536.783 540.443 566.09 549.035 595.718 542.265C623.847 535.841 646.884 516.906 666.268 499.661C673.037 493.639 679.668 487.395 686.687 480.784C705.225 463.325 724.395 445.273 745.951 431.873C770.371 416.691 794.396 409.875 819.406 411.034C832.788 411.656 846.672 413.963 860.67 417.894C882.76 424.08 903.457 433.354 922.53 442.457C944.23 452.811 965.199 464.725 985.48 476.245C999.395 484.15 1013.78 492.323 1028.28 499.924C1031.97 501.858 1035.95 504.141 1040.16 506.557C1057.97 516.791 1080.15 529.529 1101.26 527.283C1122.06 525.071 1132.49 504.029 1140.1 488.662C1140.98 486.891 1141.81 485.22 1142.62 483.644C1146.65 475.809 1150.27 467.702 1153.78 459.86C1154.68 457.863 1155.57 455.87 1156.47 453.88C1160.96 443.948 1165.33 433.98 1169.56 424.34C1192.06 373.083 1213.31 324.669 1249.8 283.792C1264.98 266.781 1282.28 254.237 1301.23 246.508C1337.56 231.682 1377.25 234.437 1415.98 254.476C1444.77 269.365 1472.79 291.044 1501.64 320.749C1527.11 346.973 1550.01 375.97 1572.15 404.011C1575.8 408.633 1579.58 413.412 1583.26 418.05L1582.96 418.289C1579.28 413.653 1575.5 408.871 1571.85 404.25C1526.74 347.132 1480.1 288.069 1415.81 254.817C1377.17 234.832 1337.6 232.081 1301.37 246.863C1282.49 254.571 1265.23 267.08 1250.09 284.047C1213.64 324.881 1192.4 373.268 1169.92 424.494C1165.68 434.136 1161.31 444.104 1156.82 454.038C1155.92 456.026 1155.03 458.021 1154.14 460.016C1150.63 467.861 1147 475.973 1142.96 483.817C1142.15 485.39 1141.33 487.062 1140.45 488.83C1132.8 504.275 1122.31 525.427 1101.3 527.661C1097.27 528.09 1093.2 527.975 1089.13 527.442C1071.78 525.157 1054.44 515.198 1039.97 506.886C1035.76 504.472 1031.79 502.19 1028.11 500.26C1013.6 492.657 999.21 484.482 985.292 476.577C965.019 465.059 944.054 453.152 922.366 442.803C903.308 433.709 882.631 424.443 860.568 418.265C846.596 414.34 832.742 412.038 819.389 411.417C763.646 408.832 724.655 445.551 686.95 481.062C679.928 487.675 673.295 493.922 666.521 499.946C656.674 508.704 645.934 517.875 634.12 525.612C621.061 534.16 608.529 539.732 595.801 542.638C583.958 545.344 571.323 545.773 557.329 543.929L557.332 543.936Z" fill="#0E0E0E"/>
<path d="M567.062 543.656C549.404 541.332 532.354 535.442 516.822 529.576C496.804 522.019 475.528 513.625 455.564 503.461C432.814 491.88 414.794 479.569 400.469 465.824C391.754 457.427 383.994 448.942 376.49 440.738C372.226 436.075 368.196 431.671 364.03 427.313C351.14 413.822 335.454 398.209 316.863 384.703L316.615 384.523C315.419 383.651 314.185 382.752 312.938 381.909C276.037 357.008 236.067 347.585 174.98 349.393C156.518 349.938 137.755 351.724 117.891 353.614L117.423 353.658C64.0397 358.737 9.16615 355.595 -45.6757 344.316C-64.527 340.455 -83.3782 335.885 -101.611 331.463C-111.582 329.047 -121.891 326.547 -131.931 324.231C-140.173 322.33 -148.062 320.737 -155.691 319.195C-173.305 315.639 -188.516 312.564 -199.833 307.327L-199.683 307C-188.402 312.221 -173.21 315.288 -155.62 318.842C-147.989 320.384 -140.1 321.977 -131.853 323.88C-121.811 326.194 -111.502 328.696 -101.528 331.112C-83.3003 335.531 -64.4491 340.101 -45.6051 343.963C9.20265 355.234 64.0397 358.377 117.389 353.3L117.856 353.256C137.728 351.366 156.494 349.58 174.968 349.035C203.975 348.177 227.121 349.807 247.813 354.165C271.924 359.242 293.291 368.221 313.138 381.612C314.392 382.457 315.629 383.361 316.827 384.233L317.075 384.413C335.688 397.936 351.388 413.561 364.291 427.064C368.459 431.427 372.489 435.831 376.755 440.497C384.255 448.696 392.012 457.176 400.717 465.566C432.103 495.681 475.348 513.535 516.949 529.24C542.956 539.06 573.229 548.952 603.418 542.005C631.889 535.454 654.466 515.795 673.39 497.883C679.967 491.7 686.41 485.279 693.232 478.48C711.458 460.314 730.307 441.529 751.719 427.695C775.988 412.014 800.075 405.213 825.352 406.898C838.729 407.79 852.642 410.511 866.702 414.986C888.913 422.038 909.447 432.343 928.33 442.431C950.341 454.19 971.535 467.605 992.032 480.58C1005.39 489.033 1019.19 497.773 1033.1 505.978C1036.53 507.997 1040.23 510.358 1044.14 512.857C1062.08 524.3 1084.4 538.543 1105.75 536.473C1127 534.414 1136.7 511.973 1143.79 495.586C1144.48 493.99 1145.13 492.485 1145.77 491.055C1149.72 482.202 1153.22 473.064 1156.62 464.226C1157.17 462.772 1157.73 461.32 1158.29 459.868C1162.83 448.08 1167.21 436.214 1171.44 424.735C1190.94 371.817 1209.36 321.831 1243.63 278.321C1258.25 259.763 1275.26 245.792 1294.18 236.798C1330.35 219.614 1370.37 221.044 1409.92 240.934C1439.08 255.597 1467.34 277.334 1496.3 307.383C1521.85 333.897 1544.69 363.305 1566.77 391.746C1570.18 396.141 1573.71 400.686 1577.16 405.096L1576.87 405.317C1573.43 400.908 1569.9 396.362 1566.49 391.968C1521.46 333.977 1474.89 274.014 1409.76 241.258C1370.31 221.419 1330.4 219.989 1294.34 237.127C1275.46 246.096 1258.5 260.033 1243.91 278.547C1209.68 322.014 1191.27 371.973 1171.77 424.864C1167.54 436.343 1163.17 448.212 1158.63 460.002C1158.07 461.454 1157.51 462.906 1156.95 464.36C1153.56 473.201 1150.05 482.343 1146.1 491.206C1145.46 492.633 1144.81 494.139 1144.12 495.734C1140.68 503.676 1136.41 513.559 1130.39 521.547C1123.34 530.913 1115.29 535.912 1105.78 536.833C1102.2 537.181 1098.58 537.072 1094.97 536.597C1076.95 534.224 1058.92 522.721 1043.95 513.164C1040.03 510.667 1036.34 508.309 1032.92 506.292C1019 498.085 1005.19 489.342 991.837 480.886C971.347 467.914 950.159 454.504 928.159 442.752C909.293 432.674 888.777 422.377 866.592 415.334C852.562 410.869 838.676 408.153 825.325 407.261C768.971 403.502 730.596 441.751 693.483 478.74C686.661 485.542 680.215 491.966 673.634 498.151C654.673 516.095 632.052 535.79 603.493 542.36C591.263 545.174 579.02 545.237 567.057 543.661L567.062 543.656Z" fill="#0E0E0E"/>
<path d="M576.651 543.364C558.854 541.02 541.29 534.701 524.465 527.719C500.708 517.861 481.963 509.071 465.474 500.063C443.971 488.314 426.313 476.202 411.487 463.035C403.961 456.326 396.911 449.568 390.094 443.03C384.291 437.466 378.81 432.211 373.134 427.061C354.205 409.885 338.661 397.86 322.731 388.07L322.707 388.055C321.365 387.229 319.98 386.374 318.587 385.578C271.61 358.686 223.579 358.778 178.671 362.886C162.684 364.347 146.637 366.63 129.649 369.046C127.148 369.402 124.635 369.76 122.115 370.116C95.7181 373.841 68.7099 375.185 41.8356 374.113C15.8574 373.076 -10.7807 369.748 -37.3434 364.218C-61.566 359.193 -85.7717 352.608 -109.181 346.24C-113.206 345.146 -117.228 344.05 -121.244 342.966C-127.964 341.151 -134.521 339.497 -140.864 337.896C-158.968 333.331 -174.605 329.387 -187.235 323.543L-187.094 323.239C-174.491 329.071 -158.871 333.01 -140.782 337.572C-134.439 339.173 -127.879 340.827 -121.156 342.642C-117.141 343.726 -113.121 344.82 -109.093 345.916C-85.6913 352.281 -61.4905 358.866 -37.2752 363.889C16.6487 375.11 70.2585 377.095 122.067 369.782C124.587 369.426 127.097 369.068 129.6 368.713C146.594 366.296 162.645 364.013 178.64 362.549C208.036 359.862 230.396 359.909 251.147 362.679C275.837 365.984 297.951 373.378 318.753 385.285C320.15 386.087 321.538 386.942 322.882 387.77L322.907 387.785C338.855 397.585 354.415 409.621 373.358 426.813C379.039 431.967 384.52 437.222 390.325 442.788C397.14 449.322 404.187 456.08 411.709 462.784C444.816 492.189 487.35 511.956 524.592 527.41C552.204 538.869 581.796 548.536 611.115 541.737C639.735 535.101 661.944 514.699 680.512 496.097C686.782 489.848 692.928 483.361 699.437 476.491C717.387 457.544 735.948 437.95 757.273 423.614C781.462 407.354 805.673 400.533 831.295 402.754C844.675 403.916 858.618 407.049 872.733 412.07C894.711 419.872 915.227 431.256 934.125 442.396C956.429 455.661 977.863 470.628 998.592 485.103C1011.39 494.036 1024.61 503.276 1037.92 512.024C1041.1 514.112 1044.53 516.528 1048.17 519.088C1066.2 531.783 1088.65 547.581 1110.24 545.651C1119.83 544.83 1127.79 539.61 1134.59 529.685C1140.39 521.213 1144.29 510.803 1147.42 502.438C1147.94 501.052 1148.44 499.719 1148.92 498.455C1152.85 488.211 1156.28 477.656 1159.59 467.446L1160.11 465.843C1164.44 452.491 1168.55 438.998 1172.53 425.948C1189.27 371.027 1205.08 319.151 1237.46 272.837C1251.51 252.741 1268.22 237.346 1287.13 227.078C1304.34 217.73 1322.73 212.841 1341.78 212.546C1362.18 212.23 1383.07 217.221 1403.85 227.382C1433.38 241.818 1461.87 263.611 1490.94 294.003C1516.57 320.807 1539.34 350.627 1561.36 379.463C1564.54 383.631 1567.83 387.943 1571.04 392.128L1570.78 392.333C1567.57 388.148 1564.28 383.836 1561.09 379.668C1518.24 323.546 1469.68 259.938 1403.7 227.682C1363.43 207.993 1323.17 207.884 1287.29 227.37C1268.43 237.613 1251.76 252.975 1237.74 273.027C1205.39 319.3 1189.59 371.149 1172.85 426.045C1168.88 439.095 1164.76 452.591 1160.43 465.946L1159.91 467.546C1156.59 477.758 1153.17 488.316 1149.24 498.569C1148.75 499.834 1148.25 501.166 1147.73 502.55C1144.6 510.932 1140.69 521.364 1134.87 529.87C1128.01 539.88 1119.96 545.152 1110.27 545.98C1107.05 546.268 1103.81 546.165 1100.56 545.737C1081.97 543.288 1063.37 530.194 1047.97 519.356C1044.33 516.799 1040.9 514.382 1037.73 512.297C1024.42 503.544 1011.19 494.304 998.395 485.368C977.671 470.896 956.244 455.931 933.95 442.674C915.067 431.544 894.567 420.17 872.614 412.374C858.525 407.363 844.612 404.235 831.261 403.078C774.126 398.121 734.573 439.873 699.675 476.711C693.167 483.583 687.019 490.072 680.744 496.323C662.141 514.959 639.891 535.398 611.185 542.053C599.663 544.726 588.104 544.864 576.643 543.354L576.651 543.364Z" fill="#0E0E0E"/>
<path d="M585.864 543.084C582.078 542.585 578.202 541.881 574.22 540.969C558.449 537.362 543.431 531.001 532.108 525.863C488.219 505.946 451.342 483.868 422.507 460.243C416.982 455.705 411.577 451.132 406.347 446.711C398.107 439.744 390.325 433.162 382.239 426.808C362.667 411.427 345.622 400.187 328.599 391.434C327.212 390.718 325.731 389.96 324.234 389.242C278.63 367.349 234.536 368.265 182.36 376.377C168.805 378.484 155.34 381.081 141.086 383.834C136.42 384.735 131.594 385.666 126.802 386.569C100.924 391.456 74.4661 393.666 48.1591 393.139C22.9698 392.633 -2.99388 389.6 -29.0087 384.119C-57.2733 378.177 -84.7904 369.787 -110.552 361.702C-115.281 360.218 -119.982 358.776 -124.531 357.383C-142.849 351.768 -160.149 346.464 -174.634 339.76L-174.503 339.478C-160.037 346.172 -142.744 351.473 -124.438 357.086C-119.89 358.479 -115.186 359.921 -110.457 361.407C-84.7028 369.49 -57.1954 377.88 -28.9429 383.817C24.701 395.12 75.6275 395.921 126.749 386.267C131.541 385.364 136.364 384.433 141.03 383.532C155.286 380.781 168.754 378.182 182.316 376.075C211.713 371.505 233.976 370.009 254.497 371.225C279.765 372.72 302.621 378.525 324.372 388.969C325.872 389.69 327.355 390.448 328.746 391.164C345.785 399.926 362.844 411.176 382.433 426.57C390.525 432.928 398.309 439.51 406.551 446.479C411.779 450.901 417.185 455.471 422.707 460.009C451.522 483.617 488.375 505.681 532.24 525.586C558.218 537.374 588.82 548.482 618.819 541.476C647.595 534.755 669.431 513.61 687.642 494.316C693.617 488.009 699.478 481.461 705.685 474.528C723.35 454.791 741.619 434.382 762.849 419.539C774.34 411.507 785.55 405.882 797.121 402.348C810.019 398.409 823.518 397.152 837.246 398.616C850.814 400.06 864.398 403.51 878.769 409.157C901.041 417.902 922.184 430.85 939.927 442.365C962.699 457.227 984.499 473.931 1005.58 490.085C1017.67 499.354 1030.18 508.938 1042.74 518.075C1045.65 520.195 1048.81 522.623 1052.14 525.194C1069.33 538.436 1092.87 556.572 1114.74 554.836C1136.94 553.133 1145.42 526.667 1151.03 509.152C1151.39 508.012 1151.74 506.911 1152.09 505.856C1155.76 494.599 1158.84 483.335 1161.94 471.824C1165.89 457.152 1169.57 442.26 1173.12 427.858C1179.9 400.387 1186.92 371.982 1195.89 345.037C1205.93 314.893 1217.51 289.483 1231.31 267.356C1244.79 245.736 1261.2 228.915 1280.1 217.36C1297.19 206.905 1315.63 201.139 1334.91 200.22C1355.46 199.241 1376.62 203.821 1397.79 213.835C1427.75 228.135 1456.52 250.069 1485.76 280.893C1511.53 308.062 1534.28 338.35 1556.28 367.641C1559.18 371.51 1562.07 375.354 1564.94 379.166L1564.69 379.354C1561.82 375.544 1558.93 371.697 1556.03 367.829C1513.17 310.757 1464.59 246.069 1397.66 214.116C1356.47 194.634 1315.87 195.848 1280.26 217.626C1261.41 229.153 1245.03 245.94 1231.57 267.521C1200.87 316.762 1187.54 370.762 1173.42 427.934C1169.86 442.336 1166.19 457.23 1162.24 471.905C1159.14 483.42 1156.05 494.687 1152.38 505.954C1152.04 507.008 1151.68 508.107 1151.32 509.247C1145.68 526.84 1137.17 553.425 1114.76 555.145C1104.99 555.92 1094.19 552.945 1081.73 546.051C1071 540.112 1060.88 532.317 1051.95 525.437C1048.62 522.867 1045.47 520.438 1042.56 518.324C1030 509.186 1017.48 499.6 1005.39 490.329C984.311 474.178 962.516 457.476 939.754 442.621C922.023 431.115 900.898 418.175 878.65 409.442C864.306 403.805 850.753 400.362 837.21 398.92C779.295 392.747 740.309 436.302 705.914 474.731C699.707 481.666 693.844 488.214 687.866 494.526C679.139 503.771 668.635 514.407 656.869 523.198C644.161 532.697 631.736 538.772 618.889 541.773C608.524 544.195 597.637 544.633 585.869 543.084H585.864Z" fill="#0E0E0E"/>
<path d="M594.898 542.796C590.644 542.236 586.281 541.4 581.788 540.289C565.494 536.258 549.993 529.066 539.752 524.007C505.392 507.035 469.653 484.642 433.523 457.451C431.646 456.036 429.773 454.623 427.911 453.215C415.449 443.799 403.678 434.908 391.34 426.555C371.242 412.883 352.637 402.498 334.465 394.798C332.642 394.026 331.229 393.441 329.88 392.908C282.969 374.318 238.454 378.247 186.049 389.87C174.919 392.338 163.959 395.051 152.357 397.923C145.549 399.609 138.507 401.353 131.492 403.025C81.6419 414.908 31.867 415.234 -20.6763 404.018C-44.0954 399.027 -69.2555 391.534 -99.8601 380.435C-122.003 372.406 -142.919 364.82 -162.034 355.974L-161.914 355.716C-142.812 364.554 -121.901 372.138 -99.7627 380.167C-69.1703 391.261 -44.0224 398.752 -20.6154 403.741C31.8865 414.947 81.6199 414.62 131.426 402.747C138.441 401.076 145.481 399.332 152.289 397.646C163.894 394.774 174.853 392.06 185.988 389.59C205.767 385.205 231.809 380.126 257.858 379.777C283.685 379.434 307.279 383.641 329.987 392.64C331.336 393.176 332.754 393.758 334.577 394.532C352.769 402.238 371.389 412.635 391.501 426.316C403.846 434.674 415.619 443.568 428.083 452.986C429.946 454.394 431.816 455.807 433.696 457.222C469.811 484.401 505.536 506.784 539.878 523.749C565.533 536.423 595.889 548.406 626.513 541.201C654.074 534.718 675.601 513.973 694.759 492.523C700.462 486.15 706.062 479.532 711.989 472.525C729.362 451.992 747.324 430.759 768.452 415.405C779.889 407.093 791.097 401.324 802.712 397.77C815.666 393.807 829.282 392.693 843.18 394.464C856.694 396.157 870.313 400.004 884.786 406.233C907.282 415.909 928.208 429.907 945.71 442.323C969.015 458.903 991.238 477.478 1012.73 495.442C1024.07 504.92 1035.8 514.72 1047.55 524.116C1050.2 526.238 1053.07 528.643 1056.1 531.191C1073.39 545.693 1097.06 565.551 1119.22 564.017C1129.23 563.335 1137.2 557.488 1143.56 546.141C1148.95 536.531 1152.06 525.008 1154.56 515.748C1154.79 514.893 1155.01 514.06 1155.23 513.256C1158.02 503.042 1160.65 492.109 1163.75 477.8C1167.28 461.724 1170.46 445.334 1173.53 429.485C1179.06 401.025 1184.77 371.597 1192.61 343.46C1201.4 311.94 1212.04 285.253 1225.14 261.874C1231.45 250.517 1238.71 240.162 1246.69 231.097C1254.77 221.92 1263.64 214.027 1273.04 207.643C1290.02 196.054 1308.52 189.389 1328.03 187.835C1348.76 186.183 1370.19 190.373 1391.72 200.288C1422.01 214.313 1450.99 236.264 1480.29 267.392C1506.11 294.815 1528.75 325.485 1550.65 355.144C1553.39 358.856 1556.11 362.547 1558.82 366.206L1558.59 366.376C1555.88 362.717 1553.16 359.027 1550.41 355.314C1507.71 297.465 1459.31 231.898 1391.6 200.549C1349.55 181.18 1308.61 183.713 1273.2 207.881C1254.59 220.517 1238.05 239.236 1225.38 262.015C1196.22 314.069 1184.83 372.771 1173.81 429.544C1170.74 445.395 1167.56 461.785 1164.03 477.865C1160.92 492.177 1158.29 503.118 1155.51 513.334C1155.29 514.138 1155.06 514.971 1154.83 515.826C1152.33 525.101 1149.21 536.643 1143.81 546.282C1137.39 557.722 1129.35 563.617 1119.24 564.304C1116.72 564.48 1114.18 564.38 1111.63 564.043C1091.68 561.415 1071.28 544.302 1055.92 531.412C1052.88 528.867 1050.02 526.462 1047.37 524.343C1035.62 514.945 1023.89 505.144 1012.55 495.666C991.058 477.705 968.84 459.134 945.545 442.562C928.055 430.155 907.143 416.167 884.671 406.501C870.223 400.284 856.631 396.445 843.141 394.754C784.482 387.285 746.083 432.671 712.203 472.718C706.274 479.724 700.674 486.343 694.969 492.72C686.437 502.272 676.137 513.269 664.437 522.389C651.844 532.207 639.457 538.453 626.574 541.486C616.576 543.839 606.123 544.277 594.893 542.799L594.898 542.796Z" fill="#0E0E0E"/>
<path d="M603.761 542.509C599.093 541.895 594.299 540.93 589.349 539.615C576.687 536.251 563.356 530.701 547.395 522.151C519.425 507.167 492.835 488.484 467.12 470.416C426.352 441.771 384.194 412.148 335.522 396.569C274.831 377.142 220.786 393.705 163.567 411.237C154.634 413.975 145.396 416.806 136.174 419.478C98.2967 430.457 60.9498 433.741 21.9934 429.52C-12.9844 425.729 -49.35 415.8 -89.1733 399.169C-109.276 390.774 -129.379 381.471 -148.817 372.477L-149.435 372.189L-149.326 371.953L-148.707 372.24C-129.269 381.234 -109.169 390.535 -89.071 398.93C-52.5666 414.175 -18.1951 423.941 14.9272 428.304C56.6789 433.802 96.4535 430.723 136.104 419.23C145.322 416.557 154.561 413.727 163.494 410.988C220.752 393.441 274.836 376.871 335.605 396.321C357.456 403.315 379.879 413.736 404.155 428.182C425.797 441.059 446.883 455.875 467.274 470.204C492.982 488.268 519.566 506.947 547.521 521.922C571.359 534.692 602.755 548.392 634.215 540.938C661.931 534.37 683.12 512.93 701.886 490.74C707.304 484.333 712.624 477.69 718.259 470.652C735.337 449.322 752.998 427.264 774.026 411.385C785.412 402.789 796.617 396.862 808.285 393.273C821.3 389.268 835.045 388.284 849.126 390.326C866.551 392.862 884.318 399.22 903.445 409.763C921.687 419.819 938.715 432.431 951.508 442.294C975.419 460.726 998.127 481.327 1020.09 501.249C1030.61 510.794 1041.49 520.662 1052.36 530.168C1054.75 532.258 1057.33 534.604 1060.06 537.086C1077.44 552.892 1101.25 574.538 1123.71 573.201C1147.02 571.817 1153.92 540.767 1158.05 522.217L1158.39 520.655C1164.81 491.929 1169.16 462.16 1173.36 433.371C1177.71 403.551 1182.22 372.713 1189.03 343.013C1196.66 309.699 1206.46 281.365 1218.98 256.391C1227.33 239.736 1237.43 225.158 1249.01 213.063C1252.81 209.097 1256.74 205.421 1260.8 202.045C1244.75 215.455 1230.64 233.714 1219.21 256.508C1191.33 312.138 1182.32 373.787 1173.62 433.41C1169.41 462.204 1165.07 491.978 1158.64 520.714L1158.3 522.275C1154.15 540.896 1147.22 572.066 1123.72 573.462C1121.46 573.596 1119.17 573.498 1116.89 573.199C1096.42 570.504 1075.55 551.525 1059.89 537.281C1057.16 534.799 1054.58 532.455 1052.19 530.365C1041.32 520.857 1030.43 510.989 1019.91 501.444C997.954 481.525 975.248 460.928 951.347 442.504C920.589 418.791 886.912 396.092 849.087 390.586C848.627 390.521 848.162 390.455 847.704 390.394C789.037 382.667 751.561 429.478 718.463 470.818C712.829 477.856 707.506 484.502 702.086 490.911C693.746 500.77 683.653 512.124 672.019 521.576C659.54 531.715 647.193 538.131 634.276 541.194C624.604 543.486 614.528 543.927 603.766 542.511L603.761 542.509ZM1552.5 353.397C1549.95 349.887 1547.38 346.347 1544.79 342.788C1502.26 284.165 1454.04 217.718 1385.55 186.98C1349 170.578 1313.19 171.35 1282.33 187.548C1284.22 186.554 1286.12 185.614 1288.05 184.732C1302.69 178.013 1318.23 174.676 1334.22 174.819C1351.06 174.97 1368.36 178.98 1385.66 186.744C1416.29 200.493 1445.46 222.454 1474.83 253.884C1500.69 281.56 1523.22 312.608 1545.01 342.635C1547.59 346.196 1550.16 349.736 1552.72 353.244L1552.5 353.397V353.397Z" fill="#0E0E0E"/>
</g>
<defs>
<clipPath id="clip0_33_55">
<rect width="2095" height="626" fill="white" transform="translate(-414)"/>
</clipPath>
</defs>
</svg>
