<svg width="958" height="635" viewBox="0 0 958 635" fill="none" xmlns="http://www.w3.org/2000/svg">
<path style="mix-blend-mode:color-dodge" d="M60.6606 403.043L-16.8863 358.249L-18.0998 358.952L59.4471 403.746L60.6606 403.043V403.043ZM54.6316 406.519L-22.9153 361.725L-24.1288 362.428L53.4181 407.222L54.6316 406.519V406.519ZM42.5735 413.484L-34.9734 368.69L-36.1868 369.393L41.3601 414.187L42.5735 413.484V413.484ZM18.4703 427.414L-59.0766 382.62L-60.2901 383.323L17.2568 428.117L18.4703 427.414V427.414ZM30.5283 420.449L-47.0186 375.655L-48.2321 376.358L29.3148 421.152L30.5283 420.449V420.449ZM36.5573 416.973L-40.9896 372.179L-42.2031 372.882L35.3438 417.676L36.5573 416.973V416.973ZM48.6153 410.008L-28.9316 365.214L-30.145 365.917L47.4019 410.711L48.6153 410.008ZM66.6896 399.567L-10.8573 354.773L-12.0708 355.476L65.4761 400.27L66.6896 399.567V399.567ZM84.7639 389.126L7.22974 344.319L6.01627 345.022L83.5632 389.816L84.7766 389.113L84.7639 389.126ZM24.4993 423.938L-53.0476 379.144L-54.2611 379.847L23.2858 424.641L24.4993 423.938V423.938ZM78.7349 392.602L1.20072 347.808L-0.0127403 348.511L77.5342 393.305L78.7476 392.602H78.7349ZM72.7058 396.078L-4.82829 351.284L-6.04176 351.987L71.5051 396.781L72.7186 396.078H72.7058ZM487.699 156.363L410.152 111.569L408.938 112.272L486.485 157.066L487.699 156.363ZM457.566 173.77L380.019 128.976L378.806 129.679L456.353 174.473L457.566 173.77V173.77ZM463.595 170.294L386.049 125.5L384.835 126.203L462.382 170.996L463.595 170.294ZM505.786 145.922L428.239 101.128L427.025 101.831L504.572 146.625L505.786 145.922ZM511.815 142.446L434.268 97.6521L433.054 98.355L510.601 143.149L511.815 142.446ZM499.757 149.411L422.21 104.617L420.996 105.32L498.543 150.114L499.757 149.411ZM517.844 138.97L440.297 94.1759L439.083 94.8788L516.63 139.673L517.844 138.97ZM523.873 135.494L446.326 90.6997L445.112 91.4026L522.659 136.197L523.873 135.494ZM469.637 166.83L392.09 122.036L390.877 122.739L468.424 167.533L469.637 166.83ZM481.695 159.865L404.148 115.071L402.935 115.774L480.482 160.568L481.695 159.865ZM475.666 163.341L398.119 118.547L396.906 119.25L474.453 164.044L475.666 163.341V163.341ZM493.74 152.9L416.194 108.106L414.98 108.809L492.527 153.603L493.74 152.9ZM457.605 661.608L535.152 706.402L536.365 705.699L458.818 660.905L457.605 661.608ZM451.576 665.084L529.123 709.878L530.336 709.175L452.789 664.381L451.576 665.084ZM445.547 668.56L523.094 713.354L524.307 712.651L446.76 667.857L445.547 668.56ZM463.621 658.119L541.168 702.913L542.381 702.21L464.834 657.416L463.621 658.119ZM439.518 672.049L517.065 716.843L518.278 716.14L440.731 671.346L439.518 672.049ZM499.782 637.236L577.329 682.03L578.543 681.327L500.996 636.534L499.782 637.236ZM493.753 640.713L571.3 685.507L572.514 684.804L494.967 640.01L493.753 640.713ZM487.724 644.189L565.271 688.983L566.485 688.28L488.938 643.486L487.724 644.189ZM505.799 633.747L583.345 678.541L584.559 677.839L507.012 633.045L505.799 633.747V633.747ZM469.637 654.63L547.184 699.424L548.398 698.721L470.851 653.927L469.637 654.63ZM481.695 647.665L559.242 692.459L560.456 691.756L482.909 646.962L481.695 647.665V647.665ZM475.666 651.141L553.213 695.935L554.427 695.232L476.88 650.438L475.666 651.141ZM926.808 390.531L1004.35 435.325L1005.57 434.622L928.021 389.828L926.808 390.531ZM932.837 387.055L1010.38 431.849L1011.6 431.146L934.05 386.352L932.837 387.055ZM944.895 380.09L1022.44 424.884L1023.66 424.181L946.108 379.387L944.895 380.09ZM938.866 383.566L1016.41 428.36L1017.63 427.657L940.079 382.863L938.866 383.566ZM920.779 394.007L998.325 438.801L999.539 438.098L921.992 393.305L920.779 394.007ZM884.617 414.89L962.164 459.684L963.378 458.981L885.831 414.187L884.617 414.89ZM914.75 397.484L992.296 442.278L993.51 441.575L915.963 396.781L914.75 397.484ZM890.646 411.414L968.193 456.208L969.407 455.505L891.86 410.711L890.646 411.414ZM878.588 418.379L956.135 463.173L957.349 462.47L879.802 417.676L878.588 418.379ZM896.662 407.938L974.209 452.732L975.423 452.029L897.876 407.235L896.662 407.938ZM908.721 400.973L986.267 445.766L987.481 445.064L909.934 400.27L908.721 400.973ZM902.692 404.449L980.238 449.243L981.452 448.54L903.905 403.746L902.692 404.449ZM192.2 638.693L298.832 577.094H256.156L196.032 611.83C194.793 611.421 193.209 611.523 192.162 612.124C190.898 612.852 190.898 614.041 192.162 614.769C193.427 615.498 195.47 615.498 196.735 614.769C197.782 614.169 197.948 613.248 197.246 612.533L256.872 578.091H294.681L190.987 637.99L192.2 638.693V638.693ZM225.909 643.575C224.645 644.304 224.645 645.492 225.909 646.221C227.174 646.949 229.218 646.949 230.482 646.221C231.529 645.62 231.696 644.7 230.993 643.984L284.807 612.903L283.594 612.2L229.78 643.281C228.541 642.872 226.957 642.975 225.909 643.575V643.575ZM124.272 489.231L266.937 406.826L265.724 406.123L123.058 488.528L124.272 489.231V489.231ZM120.376 455.888V429.881H118.652V456.297L130.352 463.058L203.275 420.935L-7.2169 299.346L-8.43038 300.049L200.848 420.935L130.352 461.652L120.376 455.888V455.888ZM115.343 471.735L122.573 467.556L110.847 460.783V433.012L85.939 447.402L98.5591 454.7L99.7725 453.997L88.3659 447.402L109.123 435.415V461.192L120.133 467.556L115.343 470.33L81.7621 450.93L80.5487 451.632L115.356 471.735H115.343ZM208.959 645.735C210.006 645.122 210.172 644.214 209.47 643.499L282.891 601.095L281.678 600.392L208.256 642.796C207.017 642.387 205.434 642.489 204.386 643.09C203.122 643.818 203.122 645.007 204.386 645.735C205.651 646.464 207.694 646.464 208.959 645.735V645.735ZM260.384 678.081L261.598 678.784L330.485 638.987V623.869L352.174 636.393L270.207 683.743L271.421 684.446L354.601 636.393L328.76 621.466V638.566L260.372 678.069L260.384 678.081ZM92.9899 404.027L45.5625 431.427L74.3919 448.08L121.819 420.679L92.9899 404.027V404.027ZM119.392 420.679L74.3919 446.674L47.9895 431.427L92.9771 405.433L119.38 420.679H119.392ZM367.629 684.484L366.416 683.781L334.457 702.248L335.67 702.951L367.629 684.484ZM294.566 685.877L367.489 643.754L433.054 681.621H399.844L365.943 662.042L299.279 700.549L300.493 701.251L365.943 663.448L399.128 682.618H437.206L367.489 642.348L293.352 685.174L294.566 685.877V685.877ZM410.139 676.65L368.549 652.624L302.779 690.619L303.993 691.321L368.549 654.029L408.913 677.353L410.126 676.65H410.139ZM377.976 697.558L336.041 721.789L337.254 722.492L379.189 698.261L377.976 697.558ZM372.892 733.853L443.618 692.996H418.569L360.361 726.62L361.575 727.323L419.285 693.992H439.467L371.666 733.15L372.879 733.853H372.892ZM177.192 421.421L133.596 446.597V416.436L93.0282 393.011L24.7036 432.475L114.334 484.247L226.663 419.363L-7.95776 283.831L-9.17122 284.534L224.249 419.363L114.347 482.841L27.1561 432.475L93.041 394.416L131.885 416.858V449.013L179.631 421.433L-33.8621 298.106L-215.639 403.107L-214.426 403.81L-33.8621 299.499L177.204 421.421H177.192ZM454.705 692.727L370.222 741.534L371.436 742.237L454.705 694.133L521.944 732.971L610.859 681.609L454.118 591.062L452.904 591.765L608.432 681.609L521.944 731.566L454.705 692.727V692.727ZM395.718 699.999L375.153 688.114L337.42 709.916L322.182 701.111L368.14 674.567L390.813 687.666H443.886V686.669H391.528L368.14 673.161L319.755 701.111L337.433 711.322L375.166 689.519L393.304 699.999L345.736 727.374L346.949 728.077L395.731 699.999H395.718ZM180.909 632.163L182.122 632.866L265.992 584.417L264.778 583.714L180.909 632.163V632.163ZM599.363 192.135L564.556 172.032L563.342 172.735L596.923 192.135L592.133 194.895L581.123 188.531H536.493L557.249 176.543L568.656 183.137L569.87 182.435L557.249 175.137L532.341 189.527H580.408L592.133 196.301L599.35 192.135H599.363ZM529.582 151.826L482.155 179.227L510.984 195.879L558.412 168.479L529.582 151.826ZM555.985 168.479L510.997 194.473L484.595 179.227L529.582 153.232L555.985 168.479ZM491.518 6.569L318.72 106.381L343.909 120.937L516.707 21.1126L491.518 6.55622V6.569ZM514.28 21.1254L343.922 119.531L321.16 106.381L491.518 7.9748L514.28 21.1254V21.1254ZM572.654 194.052H526.926V195.048H571.939L581.915 200.812L511.419 241.529L302.14 120.643L300.927 121.346L511.419 242.935L584.342 200.812L572.641 194.052H572.654ZM531.422 139.788L463.097 179.252L503.665 202.678H555.883L512.287 227.855L301.208 105.946L481.772 1.6487L480.558 0.945801L298.781 105.946L512.287 229.273L560.034 201.694H504.381L465.537 179.252L531.435 141.194L618.625 191.56L508.724 255.038L275.304 120.209L274.09 120.912L508.724 256.444L621.052 191.56L531.422 139.788ZM489.666 16.908L336.616 105.32L345.749 110.598L498.799 22.1862L489.666 16.908V16.908ZM496.372 22.1862L345.749 109.192L339.043 105.32L489.666 18.3138L496.372 22.1862V22.1862ZM691.523 340.574C692.57 339.974 692.736 339.053 692.034 338.338L758.532 299.921V263.025L648.719 326.465L649.933 327.168L756.82 265.428V299.525L690.82 337.648C689.581 337.239 687.997 337.341 686.95 337.942C685.685 338.67 685.685 339.859 686.95 340.587C688.214 341.316 690.258 341.316 691.523 340.587V340.574ZM742.82 293.186C744.085 292.458 744.085 291.269 742.82 290.541C741.556 289.812 739.512 289.812 738.248 290.541C737.2 291.141 737.034 292.061 737.737 292.777L644.428 346.67C643.188 346.261 641.605 346.364 640.557 346.964C639.293 347.693 639.293 348.881 640.557 349.61C641.822 350.338 643.865 350.338 645.13 349.61C646.177 349.009 646.344 348.089 645.641 347.373L738.95 293.48C740.189 293.889 741.773 293.787 742.82 293.186V293.186ZM647.123 175.661L715.077 136.414L713.863 135.711L645.411 175.252V200.697L483.356 294.311L336.245 209.336V178.307L255.492 131.66L254.279 132.363L334.534 178.716V209.745L483.356 295.717L647.123 201.119V175.674V175.661ZM486.983 279.703L629.649 197.298L628.435 196.595L485.77 279L486.983 279.703V279.703ZM465.103 268.994L466.316 268.291L359.901 206.819V185.693L484.595 257.722L485.808 257.019L358.177 183.291V207.228L465.103 268.994V268.994ZM590.46 73.6384L519.734 114.496H544.783L602.991 80.8719L601.777 80.169L544.067 113.499H523.886L591.686 74.3413L590.473 73.6384H590.46ZM662.859 106.24L597.409 144.043L564.224 124.873H526.146L595.863 165.143L670 122.317L668.786 121.615L595.863 163.737L530.298 125.87H563.508L597.409 145.449L664.073 106.943L662.859 106.24V106.24ZM508.66 114.764L593.143 65.9577L591.929 65.2548L508.66 113.359L441.421 74.5203L352.506 125.883L509.247 216.429L510.461 215.726L354.933 125.883L441.421 75.9261L508.66 114.764V114.764ZM751.123 254.565C749.859 253.836 747.815 253.836 746.55 254.565C745.503 255.166 745.337 256.086 746.039 256.801L612.967 333.673L614.18 334.376L747.253 257.504C748.492 257.913 750.076 257.811 751.123 257.21C752.388 256.482 752.388 255.293 751.123 254.565ZM553.226 130.842L594.816 154.868L660.586 116.873L659.372 116.17L594.816 153.462L554.439 130.139L553.226 130.842V130.842ZM693.158 123.736L691.944 123.033L608.764 171.086L634.605 186.013V168.913L702.993 129.41L701.78 128.707L632.893 168.504V183.623L611.204 171.099L693.171 123.749L693.158 123.736ZM595.748 123.008L596.962 123.71L628.921 105.243L627.707 104.54L595.748 123.008ZM516.72 45.7908L482.73 65.4209L510.64 81.5493L544.629 61.9192L516.72 45.7908V45.7908ZM542.203 61.9192L510.652 80.1435L485.17 65.4209L516.72 47.1966L542.203 61.9192V61.9192ZM567.66 107.48L588.225 119.365L625.957 97.5626L641.196 106.368L595.237 132.912L572.565 119.813H519.492V120.809H571.849L595.237 134.318L643.623 106.368L625.944 96.1568L588.212 117.959L570.087 107.48L617.655 80.1051L616.441 79.4022L567.66 107.48V107.48ZM518.521 35.5796L465.052 66.4689L508.839 91.7605L562.308 60.8712L518.521 35.5796ZM559.868 60.8712L508.839 90.3547L467.491 66.4689L518.521 36.9854L559.868 60.8712ZM585.389 109.921L627.324 85.69L626.111 84.9871L584.176 109.218L585.389 109.921V109.921ZM520.667 23.3875L443.937 67.7085L506.68 103.953L583.409 59.6316L520.667 23.3875V23.3875ZM580.97 59.6316L506.68 102.547L446.377 67.7085L520.667 24.7933L580.97 59.6316V59.6316ZM735.233 248.034C734.186 248.635 734.02 249.555 734.722 250.271L601.65 327.143L602.863 327.845L735.936 250.974C737.175 251.383 738.759 251.28 739.806 250.68C741.071 249.951 741.071 248.763 739.806 248.034C738.541 247.306 736.498 247.306 735.233 248.034V248.034ZM319.001 349.623C320.266 350.351 322.31 350.351 323.574 349.623C324.839 348.894 324.839 347.706 323.574 346.977C322.527 346.376 320.93 346.274 319.704 346.683L226.395 292.79C227.097 292.074 226.931 291.154 225.884 290.553C224.619 289.825 222.575 289.825 221.311 290.553C220.046 291.282 220.046 292.47 221.311 293.199C222.358 293.8 223.955 293.902 225.181 293.493L318.49 347.386C317.788 348.102 317.954 349.022 319.001 349.623V349.623ZM351.177 333.673L218.105 256.801C218.807 256.086 218.641 255.166 217.594 254.565C216.329 253.836 214.285 253.836 213.021 254.565C211.756 255.293 211.756 256.482 213.021 257.21C214.068 257.811 215.665 257.913 216.891 257.504L349.964 334.376L351.177 333.673V333.673ZM725.168 563.151L615.355 499.711L614.142 500.414L721.029 562.154H662.016L596.017 524.031C596.719 523.316 596.553 522.395 595.506 521.795C594.241 521.066 592.197 521.066 590.933 521.795C589.668 522.523 589.668 523.712 590.933 524.44C591.98 525.041 593.577 525.143 594.803 524.734L661.301 563.151H725.18H725.168ZM146.74 215.586C147.443 214.87 147.277 213.95 146.229 213.349C144.965 212.621 142.921 212.621 141.656 213.349C140.392 214.078 140.392 215.266 141.656 215.995C142.704 216.596 144.3 216.698 145.527 216.289L197.744 246.45V258.488L151.326 231.676L150.112 232.379L199.468 260.891V246.041L146.753 215.586H146.74ZM612.954 473.231L746.027 550.102C745.324 550.818 745.49 551.738 746.538 552.339C747.802 553.067 749.846 553.067 751.11 552.339C752.375 551.61 752.375 550.422 751.11 549.693C750.063 549.08 748.466 548.991 747.24 549.399L614.167 472.528L612.954 473.231ZM121.334 238.232C122.036 237.516 121.87 236.596 120.823 235.996C119.558 235.267 117.515 235.267 116.25 235.996C114.986 236.724 114.986 237.913 116.25 238.641C117.298 239.242 118.894 239.344 120.12 238.935L179.746 273.377V295.218L76.0525 235.318L74.839 236.021L181.471 297.621V272.968L121.347 238.232H121.334ZM156.831 209.758L209.547 240.213H235.246L185.89 211.701L184.677 212.404L231.095 239.216H210.262L158.044 209.055C158.747 208.34 158.581 207.419 157.534 206.819C156.269 206.09 154.225 206.09 152.961 206.819C151.696 207.547 151.696 208.736 152.961 209.464C154.008 210.065 155.605 210.167 156.831 209.758V209.758ZM65.6805 258.424L119.495 289.505L120.708 288.803L66.894 257.722C67.5965 257.006 67.4305 256.086 66.383 255.485C65.1185 254.757 63.0747 254.757 61.8102 255.485C60.5456 256.214 60.5456 257.402 61.8102 258.131C62.8576 258.731 64.4543 258.833 65.6805 258.424V258.424ZM86.1051 229.503L84.8916 230.206L168.761 278.655L169.975 277.952L86.1051 229.503ZM205.587 263.025V299.921L272.085 338.338C271.382 339.053 271.548 339.974 272.596 340.574C273.86 341.303 275.904 341.303 277.169 340.574C278.433 339.846 278.433 338.657 277.169 337.929C276.121 337.328 274.525 337.226 273.298 337.635L207.298 299.512V265.415L314.186 327.155L315.399 326.452L205.587 263.012V263.025ZM579.82 495.008C578.555 494.279 576.512 494.279 575.247 495.008C573.983 495.736 573.983 496.925 575.247 497.653C576.295 498.254 577.891 498.356 579.117 497.947L672.427 551.84C671.724 552.556 671.89 553.476 672.938 554.077C674.202 554.805 676.246 554.805 677.51 554.077C678.775 553.349 678.775 552.16 677.51 551.432C676.463 550.831 674.866 550.729 673.64 551.138L580.331 497.244C581.033 496.529 580.867 495.608 579.82 495.008ZM384.299 311.896C385.563 312.624 387.607 312.624 388.871 311.896C390.136 311.168 390.136 309.979 388.871 309.251C387.824 308.65 386.227 308.548 385.001 308.957L291.692 255.063C292.394 254.348 292.228 253.427 291.181 252.827C289.916 252.098 287.873 252.098 286.608 252.827C285.344 253.555 285.344 254.744 286.608 255.472C287.656 256.073 289.252 256.175 290.478 255.766L383.788 309.659C383.085 310.375 383.251 311.295 384.299 311.896V311.896ZM216.176 154.37L214.962 155.073L283.594 194.716L284.807 194.013L216.176 154.37ZM218.616 170.089L281.69 206.525L282.904 205.822L219.829 169.386C220.532 168.671 220.366 167.75 219.318 167.15C218.054 166.421 216.01 166.421 214.745 167.15C213.481 167.878 213.481 169.067 214.745 169.795C215.793 170.396 217.389 170.498 218.616 170.089V170.089ZM575.26 309.263C573.995 309.992 573.995 311.18 575.26 311.909C576.524 312.637 578.568 312.637 579.833 311.909C580.88 311.308 581.046 310.388 580.344 309.672L673.653 255.779C674.892 256.188 676.476 256.086 677.523 255.485C678.788 254.757 678.788 253.568 677.523 252.84C676.259 252.111 674.215 252.111 672.95 252.84C671.903 253.453 671.737 254.36 672.439 255.076L579.13 308.969C577.891 308.56 576.307 308.663 575.26 309.263V309.263ZM594.803 282.17C593.564 281.761 591.98 281.863 590.933 282.464C589.668 283.192 589.668 284.381 590.933 285.109C592.197 285.838 594.241 285.838 595.506 285.109C596.553 284.508 596.719 283.588 596.017 282.873L662.016 244.75H721.029L614.142 306.49L615.355 307.193L725.18 243.753H661.301L594.803 282.17ZM182.135 174.025L180.922 174.728L264.791 223.177L266.005 222.474L182.135 174.025ZM196.032 195.074L256.156 229.81H298.832L192.2 168.21L190.987 168.913L294.681 228.813H256.872L197.246 194.371C197.948 193.655 197.782 192.735 196.735 192.135C195.47 191.406 193.427 191.406 192.162 192.135C190.898 192.863 190.898 194.052 192.162 194.78C193.209 195.381 194.806 195.483 196.032 195.074V195.074ZM645.13 457.281C643.865 456.553 641.822 456.553 640.557 457.281C639.293 458.01 639.293 459.198 640.557 459.927C641.605 460.527 643.201 460.63 644.428 460.221L737.737 514.114C737.034 514.83 737.2 515.75 738.248 516.35C739.512 517.079 741.556 517.079 742.82 516.35C744.085 515.622 744.085 514.433 742.82 513.705C741.773 513.104 740.176 513.002 738.95 513.411L645.641 459.518C646.344 458.802 646.177 457.882 645.13 457.281V457.281ZM104.179 333.405H140.749L247.164 394.877L248.378 394.174L141.465 332.408H100.041L227.672 406.136L228.885 405.433L104.192 333.405H104.179ZM758.532 543.879V506.983L692.034 468.566C692.736 467.85 692.57 466.93 691.523 466.329C690.258 465.601 688.214 465.601 686.95 466.329C685.685 467.058 685.685 468.247 686.95 468.975C687.997 469.576 689.594 469.678 690.82 469.269L756.82 507.392V541.489L649.933 479.748L648.719 480.451L758.532 543.891V543.879ZM409.207 294.975C408.504 295.691 408.67 296.611 409.717 297.212C410.982 297.94 413.026 297.94 414.29 297.212C415.555 296.483 415.555 295.295 414.29 294.566C413.243 293.966 411.646 293.863 410.42 294.272L311.388 237.069H250.153L161.57 185.898L160.356 186.601L249.45 238.066H310.686L409.207 294.975V294.975ZM238.951 243.74L348.763 307.18L349.977 306.477L243.089 244.737H302.102L368.102 282.86C367.399 283.576 367.565 284.496 368.613 285.096C369.877 285.825 371.921 285.825 373.186 285.096C374.45 284.368 374.45 283.179 373.186 282.451C372.138 281.85 370.542 281.748 369.315 282.157L302.817 243.74H238.938H238.951ZM998.325 487.544L1151.38 399.132L1142.24 393.854L989.193 482.266L998.325 487.544ZM991.619 482.266L1142.24 395.26L1148.95 399.132L998.325 486.138L991.619 482.266ZM888.922 316.42L957.808 276.623L956.595 275.92L888.207 315.423H858.598L884.438 330.35L967.618 282.298L966.405 281.595L884.438 328.944L862.749 316.42H888.909H888.922ZM704.552 449.396C705.254 448.68 705.088 447.76 704.041 447.159C702.776 446.431 700.732 446.431 699.468 447.159C698.203 447.888 698.203 449.077 699.468 449.805C700.515 450.406 702.112 450.508 703.338 450.099L811.158 512.389H855.852L923.218 551.304L924.432 550.601L856.554 511.392H811.86L704.539 449.396H704.552ZM671.149 402.787L833.205 309.174H877.247L945.699 269.633L944.486 268.93L876.532 308.177H832.489L668.722 402.775L817.544 488.746H871.256L951.511 535.099L952.725 534.396L871.972 487.749H818.26L671.149 402.775V402.787ZM840.307 318.989L839.093 318.286L696.428 400.691L697.641 401.394L840.307 318.989ZM964.451 378.071V356.076L931.265 336.906L996.716 299.103L995.503 298.4L928.839 336.906L962.726 356.485V375.668L897.161 337.801L970.084 295.678L968.87 294.975L894.734 337.801L964.451 378.071V378.071ZM805.959 387.835L962.701 478.381L1051.62 427.018L984.377 388.18L1067.65 340.076L1066.43 339.373L981.95 388.18L1049.19 427.018L962.701 476.975L807.173 387.132L805.959 387.835V387.835ZM991.543 344.562L1033.48 320.331L1032.26 319.628L990.329 343.859L991.543 344.562ZM781.996 632.891L783.21 632.188L699.34 583.739L698.127 584.442L781.996 632.891V632.891ZM1041.93 325.226L994.557 352.703L976.419 342.223L1014.15 320.42L996.473 310.209L948.088 338.159L971.476 351.667V381.905H973.2V351.246L950.528 338.146L996.486 311.602L1011.72 320.407L973.992 342.21L994.557 354.096L1043.16 325.916L1041.95 325.213L1041.93 325.226ZM955.343 361.738L914.979 338.414L979.536 301.122L978.322 300.42L912.553 338.414L954.142 362.441L955.356 361.738H955.343ZM1041.86 334.402L1040.64 333.699L982.435 367.323V381.79L1053.16 340.932L1051.95 340.229L984.147 379.387V367.732L1041.86 334.402V334.402ZM293.493 187.534V213.349L401.313 275.639C400.61 276.355 400.776 277.275 401.824 277.876C403.088 278.604 405.132 278.604 406.396 277.876C407.661 277.147 407.661 275.959 406.396 275.23C405.349 274.63 403.752 274.527 402.526 274.936L295.205 212.94V187.125L227.327 147.916L226.114 148.619L293.48 187.534H293.493ZM807.288 597.158L754.572 566.704H728.872L778.228 595.216L779.442 594.513L733.023 567.7H753.857L806.074 597.861C805.371 598.577 805.538 599.497 806.585 600.098C807.85 600.826 809.893 600.826 811.158 600.098C812.422 599.369 812.422 598.181 811.158 597.452C810.11 596.852 808.514 596.749 807.288 597.158ZM228.196 250.974L361.268 327.845L362.482 327.143L229.409 250.271C230.112 249.555 229.946 248.635 228.898 248.034C227.634 247.306 225.59 247.306 224.325 248.034C223.061 248.763 223.061 249.951 224.325 250.68C225.373 251.28 226.969 251.383 228.196 250.974V250.974ZM735.923 555.93L602.85 479.058L601.637 479.761L734.709 556.633C734.007 557.349 734.173 558.269 735.22 558.869C736.485 559.598 738.529 559.598 739.793 558.869C741.058 558.141 741.058 556.952 739.793 556.224C738.746 555.611 737.149 555.521 735.923 555.93V555.93ZM768.086 611.83L707.962 577.094H665.286L771.918 638.693L773.132 637.99L669.438 578.091H707.247L766.873 612.533C766.17 613.248 766.336 614.169 767.384 614.769C768.648 615.498 770.692 615.498 771.956 614.769C773.221 614.041 773.221 612.852 771.956 612.124C770.909 611.51 769.312 611.421 768.086 611.83V611.83ZM554.912 511.929C555.614 511.213 555.448 510.293 554.401 509.692C553.136 508.964 551.093 508.964 549.828 509.692C548.564 510.421 548.564 511.609 549.828 512.337C550.876 512.938 552.472 513.04 553.699 512.631L652.73 569.835H713.966L802.549 621.006L803.762 620.303L714.668 568.838H653.433L554.912 511.929V511.929ZM817.378 591.318C816.676 592.034 816.842 592.954 817.889 593.554C819.154 594.283 821.198 594.283 822.462 593.554C823.727 592.826 823.727 591.637 822.462 590.909C821.415 590.308 819.818 590.206 818.592 590.615L766.374 560.454V548.415L812.793 575.228L814.006 574.525L764.65 546.013V560.863L817.366 591.318H817.378ZM897.608 560.914L824.187 518.51L822.973 519.213L896.394 561.617C895.692 562.333 895.858 563.253 896.905 563.854C898.17 564.582 900.213 564.582 901.478 563.854C902.743 563.125 902.743 561.937 901.478 561.208C900.431 560.595 898.834 560.505 897.608 560.914ZM665.976 442.597C664.712 443.326 664.712 444.514 665.976 445.242C667.024 445.843 668.62 445.945 669.846 445.536L768.367 502.446V537.821L857.461 589.286L858.675 588.583L770.092 537.412V502.037L671.06 444.834C671.762 444.118 671.596 443.198 670.549 442.597C669.284 441.869 667.241 441.869 665.976 442.597V442.597ZM842.785 568.685C842.082 569.4 842.248 570.32 843.296 570.921C844.56 571.649 846.604 571.649 847.868 570.921C849.133 570.193 849.133 569.004 847.868 568.276C846.821 567.675 845.224 567.573 843.998 567.982L784.372 533.54V511.698L888.066 571.598L889.28 570.895L782.648 509.296V533.948L842.772 568.685H842.785ZM898.438 548.479L844.624 517.398L843.41 518.101L897.225 549.182C896.522 549.898 896.688 550.818 897.735 551.419C899 552.147 901.044 552.147 902.308 551.419C903.573 550.69 903.573 549.502 902.308 548.773C901.261 548.173 899.664 548.07 898.438 548.479ZM878.013 577.4L879.227 576.698L795.357 528.249L794.144 528.951L878.013 577.4V577.4ZM966.456 337.162L967.669 337.865L999.628 319.398L998.415 318.695L966.456 337.162ZM778.228 211.688L728.872 240.2H754.572L807.288 209.745C808.527 210.154 810.11 210.052 811.158 209.452C812.422 208.723 812.422 207.535 811.158 206.806C809.893 206.078 807.85 206.078 806.585 206.806C805.538 207.419 805.371 208.327 806.074 209.043L753.857 239.203H733.023L779.442 212.391L778.228 211.688V211.688ZM859.173 474.087H822.603L716.188 412.615L714.975 413.318L821.887 475.084H863.311L735.68 401.356L734.467 402.059L859.16 474.087H859.173ZM795.357 278.642L879.227 230.193L878.013 229.491L794.144 277.94L795.357 278.642ZM768.367 304.445L669.846 361.355C668.607 360.946 667.024 361.048 665.976 361.649C664.712 362.377 664.712 363.566 665.976 364.294C667.241 365.022 669.284 365.022 670.549 364.294C671.596 363.681 671.762 362.773 671.06 362.057L770.092 304.854V269.479L858.675 218.308L857.461 217.605L768.367 269.07V304.445ZM652.717 237.056L553.686 294.26C552.447 293.851 550.863 293.953 549.815 294.554C548.551 295.282 548.551 296.471 549.815 297.199C551.08 297.927 553.124 297.927 554.388 297.199C555.436 296.586 555.602 295.678 554.899 294.962L653.42 238.053H714.655L803.749 186.588L802.536 185.885L713.953 237.056H652.717V237.056ZM738.209 163.316C739.474 162.587 739.474 161.399 738.209 160.67C736.945 159.942 734.901 159.942 733.636 160.67C732.589 161.271 732.423 162.191 733.126 162.907L679.311 193.988L680.525 194.691L734.339 163.61C735.578 164.019 737.162 163.916 738.209 163.316V163.316ZM668.901 187.099V212.915L561.58 274.911C560.341 274.502 558.757 274.604 557.709 275.205C556.445 275.933 556.445 277.122 557.709 277.85C558.974 278.579 561.018 278.579 562.282 277.85C563.33 277.249 563.496 276.329 562.793 275.614L670.613 213.324V187.508L737.979 148.593L736.766 147.89L668.888 187.099H668.901ZM784.372 273.352L843.998 238.909C845.237 239.318 846.821 239.216 847.868 238.615C849.133 237.887 849.133 236.698 847.868 235.97C846.604 235.242 844.56 235.242 843.296 235.97C842.248 236.571 842.082 237.491 842.785 238.207L782.66 272.943V297.595L889.292 235.996L888.079 235.293L784.385 295.193V273.352H784.372ZM682.441 206.499L755.862 164.083C757.101 164.491 758.685 164.389 759.732 163.789C760.997 163.06 760.997 161.872 759.732 161.143C758.468 160.415 756.424 160.415 755.16 161.143C754.112 161.744 753.946 162.664 754.649 163.38L681.227 205.796L682.441 206.499V206.499ZM707.962 229.784L768.086 195.048C769.325 195.457 770.909 195.355 771.956 194.755C773.221 194.026 773.221 192.838 771.956 192.109C770.692 191.381 768.648 191.381 767.384 192.109C766.336 192.71 766.17 193.63 766.873 194.346L707.247 228.788H669.438L773.132 168.888L771.918 168.185L665.286 229.784H707.962V229.784ZM699.327 223.152L783.197 174.703L781.984 174L698.114 222.449L699.327 223.152ZM814.032 232.34L812.818 231.638L766.4 258.45V246.411L818.617 216.25C819.856 216.659 821.44 216.557 822.488 215.957C823.752 215.228 823.752 214.04 822.488 213.311C821.223 212.583 819.179 212.583 817.915 213.311C816.868 213.912 816.701 214.832 817.404 215.548L764.688 246.002V260.853L814.045 232.34H814.032ZM786.16 386.046L829.756 360.856V391.017L870.311 414.443L938.636 374.978L849.005 323.206L736.676 388.09L971.31 523.622L972.523 522.919L739.103 388.09L849.005 324.612L936.196 374.978L870.298 413.037L831.455 390.595V358.441L783.708 386.02L997.214 509.347L1178.99 404.346L1177.78 403.644L997.214 507.941L786.148 386.02L786.16 386.046ZM870.375 403.439L917.802 376.039L888.973 359.386L841.546 386.787L870.375 403.439ZM843.972 386.787L888.96 360.792L915.363 376.039L870.375 402.033L843.972 386.787ZM848.022 335.743L840.805 339.91L852.531 346.683V374.454L877.439 360.064L864.819 352.766L863.605 353.469L875.012 360.064L854.255 372.051V346.274L843.244 339.91L848.034 337.149L881.628 356.549L882.842 355.846L848.034 335.743H848.022ZM842.989 351.591V377.598H844.713V351.182L833.013 344.421L760.09 386.544L970.582 508.133L971.795 507.43L762.517 386.544L833.013 345.827L842.989 351.591V351.591ZM996.473 497.858L1169.27 398.046L1144.08 383.49L971.284 483.301L996.473 497.858ZM973.711 483.301L1144.07 384.895L1166.83 398.046L996.473 496.452L973.711 483.301ZM891.132 251.638C892.396 250.91 892.396 249.721 891.132 248.993C889.867 248.264 887.823 248.264 886.559 248.993C885.511 249.593 885.345 250.514 886.048 251.229L822.973 287.665L824.187 288.368L887.261 251.932C888.5 252.341 890.084 252.239 891.132 251.638V251.638ZM844.624 289.48L913.255 249.836L912.042 249.133L843.41 288.777L844.624 289.48ZM811.158 294.502L703.338 356.792C702.099 356.383 700.515 356.485 699.468 357.086C698.203 357.815 698.203 359.003 699.468 359.732C700.732 360.46 702.776 360.46 704.041 359.732C705.088 359.118 705.254 358.211 704.552 357.495L811.873 295.499H856.567L924.444 256.29L923.231 255.587L855.864 294.502H811.171H811.158ZM1067.35 403.132L1101.34 383.502L1073.43 367.374L1039.44 387.004L1067.35 403.132ZM1041.87 387.004L1073.42 368.78L1098.9 383.502L1067.35 401.727L1041.87 387.004ZM1063.39 425.536L1140.12 381.215L1077.38 344.971L1000.65 389.292L1063.39 425.536ZM1003.09 389.292L1077.38 346.376L1137.68 381.215L1063.39 424.13L1003.09 389.292ZM1065.55 413.344L1119.02 382.454L1075.23 357.163L1021.76 388.052L1065.55 413.344ZM1024.2 388.052L1075.23 358.569L1116.58 382.454L1065.55 411.938L1024.2 388.052ZM498.262 538.498L497.049 539.201L603.463 600.673V621.798L478.77 549.77L477.557 550.473L605.188 624.201V600.264L498.262 538.498V538.498ZM260.091 447.134C259.043 447.735 258.877 448.655 259.58 449.37L152.258 511.366H107.564L39.6868 550.575L40.9002 551.278L108.267 512.363H152.961L260.78 450.073C262.019 450.482 263.603 450.38 264.651 449.779C265.915 449.051 265.915 447.862 264.651 447.134C263.386 446.405 261.342 446.405 260.078 447.134H260.091ZM-31.1797 454.789L-13.0543 465.256L-50.7867 487.059L-33.1085 497.27L15.2769 469.32L-8.11105 455.812V425.574H-9.83544V456.233L12.8372 469.333L-33.1212 495.877L-48.3598 487.071L-10.6274 465.269L-31.1925 453.383L-79.795 481.563L-78.5815 482.266L-31.2052 454.789H-31.1797ZM76.0525 571.573L179.746 511.673V533.514L120.12 567.956C118.881 567.547 117.298 567.649 116.25 568.25C114.986 568.978 114.986 570.167 116.25 570.895C117.515 571.624 119.558 571.624 120.823 570.895C121.87 570.282 122.036 569.375 121.334 568.659L181.458 533.923V509.27L74.8262 570.87L76.0397 571.573H76.0525ZM-78.4793 473.09L-77.2659 473.793L-19.0578 440.169V425.702L-89.7837 466.56L-88.5703 467.262L-20.7694 428.105V439.76L-78.4793 473.09V473.09ZM86.1051 577.388L169.975 528.939L168.761 528.236L84.8916 576.685L86.1051 577.388V577.388ZM72.9869 555.214C71.7223 555.943 71.7223 557.131 72.9869 557.86C74.2514 558.588 76.2952 558.588 77.5597 557.86C78.6071 557.259 78.7732 556.339 78.0706 555.623L141.145 519.188L139.932 518.485L76.8572 554.92C75.6182 554.512 74.0343 554.614 72.9869 555.214V555.214ZM-3.09112 470.342L-4.30458 469.64L-36.2635 488.107L-35.05 488.81L-3.09112 470.342V470.342ZM-1.08572 429.446V451.441L32.0994 470.611L-33.3511 508.414L-32.1377 509.117L34.5263 470.611L0.625926 451.019V431.836L66.1915 469.703L-6.73153 511.839L-5.51806 512.542L68.6184 469.716L-1.09848 429.446H-1.08572ZM-85.824 380.499L0.664245 330.529L156.192 420.373L157.406 419.67L0.664245 329.123L-88.2509 380.486L-21.0121 419.325L-104.281 467.429L-103.068 468.131L-18.5979 419.337L-85.8368 380.499H-85.824ZM104.754 492.081L78.9137 477.154L-4.27905 525.207L-3.06557 525.91L78.9009 478.56L100.59 491.084H74.4302L5.54365 530.881L6.75711 531.584L75.1456 492.081H104.754V492.081ZM-28.1652 462.956L-70.1 487.186L-68.8866 487.889L-26.9517 463.658L-28.1652 462.956V462.956ZM8.03444 445.779L48.411 469.103L-16.1455 506.395L-14.932 507.098L50.8379 469.103L9.24793 445.076L8.03444 445.779V445.779ZM369.341 524.76C370.58 525.169 372.164 525.066 373.211 524.466C374.476 523.737 374.476 522.549 373.211 521.82C371.947 521.092 369.903 521.092 368.638 521.82C367.591 522.421 367.425 523.341 368.128 524.057L302.128 562.179H243.115L350.002 500.439L348.789 499.736L238.964 563.176H302.843L369.341 524.76V524.76ZM157.546 600.111C158.594 599.51 158.76 598.59 158.057 597.874L210.275 567.713H231.108L184.69 594.526L185.903 595.229L235.259 566.716H209.559L156.844 597.171C155.605 596.762 154.021 596.864 152.973 597.465C151.709 598.194 151.709 599.382 152.973 600.111C154.238 600.839 156.282 600.839 157.546 600.111V600.111ZM52.0897 557.77L120.721 518.127L119.507 517.424L50.8762 557.067L52.0897 557.77V557.77ZM414.316 512.35C415.58 511.622 415.58 510.433 414.316 509.705C413.051 508.976 411.008 508.976 409.743 509.705C408.696 510.305 408.53 511.226 409.232 511.941L310.711 568.851H249.476L160.382 620.316L161.595 621.019L250.179 569.847H311.414L410.446 512.644C411.685 513.053 413.268 512.951 414.316 512.35V512.35ZM145.539 590.641C144.3 590.232 142.716 590.334 141.669 590.934C140.405 591.663 140.405 592.852 141.669 593.58C142.934 594.308 144.977 594.308 146.242 593.58C147.289 592.979 147.455 592.059 146.753 591.343L199.468 560.889V546.038L150.112 574.551L151.326 575.253L197.744 548.441V560.48L145.527 590.641H145.539ZM384.324 495.033C383.277 495.647 383.111 496.554 383.813 497.27L290.504 551.163C289.265 550.754 287.681 550.856 286.634 551.457C285.369 552.186 285.369 553.374 286.634 554.103C287.898 554.831 289.942 554.831 291.206 554.103C292.254 553.502 292.42 552.582 291.717 551.866L385.027 497.973C386.266 498.382 387.85 498.279 388.897 497.679C390.161 496.95 390.161 495.762 388.897 495.033C387.632 494.305 385.589 494.305 384.324 495.033ZM221.324 513.743C220.059 514.472 220.059 515.66 221.324 516.389C222.588 517.117 224.632 517.117 225.896 516.389C226.944 515.788 227.11 514.868 226.407 514.152L319.717 460.259C320.956 460.668 322.539 460.566 323.587 459.965C324.851 459.237 324.851 458.048 323.587 457.32C322.322 456.591 320.279 456.591 319.014 457.32C317.967 457.92 317.801 458.84 318.503 459.556L225.194 513.449C223.955 513.04 222.371 513.143 221.324 513.743V513.743ZM293.595 442.623C292.548 443.223 292.382 444.143 293.084 444.859L194.052 502.062V537.437L105.469 588.609L106.683 589.311L195.777 537.846V502.471L294.298 445.562C295.537 445.971 297.121 445.869 298.168 445.268C299.433 444.54 299.433 443.351 298.168 442.623C296.903 441.894 294.86 441.894 293.595 442.623ZM272.621 466.355C271.574 466.956 271.408 467.876 272.11 468.592L205.612 507.008V543.904L315.425 480.464L314.211 479.761L207.324 541.501V507.404L273.324 469.282C274.563 469.691 276.147 469.588 277.194 468.988C278.459 468.259 278.459 467.071 277.194 466.342C275.93 465.614 273.886 465.614 272.621 466.342V466.355ZM361.294 479.084L228.221 555.956C226.982 555.547 225.398 555.649 224.351 556.25C223.086 556.978 223.086 558.167 224.351 558.895C225.615 559.624 227.659 559.624 228.924 558.895C229.971 558.282 230.137 557.374 229.435 556.659L362.507 479.787L361.294 479.084ZM349.977 472.553L216.904 549.425C215.665 549.016 214.081 549.118 213.034 549.719C211.769 550.447 211.769 551.636 213.034 552.364C214.298 553.093 216.342 553.093 217.607 552.364C218.654 551.764 218.82 550.844 218.117 550.128L351.19 473.256L349.977 472.553ZM260.806 356.843L152.986 294.554H108.292L40.9258 255.638L39.7123 256.341L107.59 295.55H152.284L259.605 357.546C258.903 358.262 259.069 359.182 260.116 359.783C261.381 360.511 263.424 360.511 264.689 359.783C265.954 359.054 265.954 357.866 264.689 357.137C263.642 356.537 262.045 356.434 260.819 356.843H260.806ZM11.8409 272.393L10.6274 273.096L91.3805 319.743H145.092L292.203 404.717L130.148 498.331H86.1051L17.6528 537.872L18.8662 538.575L86.8204 499.327H130.863L294.63 404.73L145.808 318.759H92.0958L11.8409 272.393ZM316.229 631.843L248.275 671.091L249.489 671.794L317.941 632.252V606.807L479.996 513.194L627.107 598.168V629.198L707.86 675.845L709.073 675.142L628.818 628.789V597.759L479.996 511.788L316.229 606.386V631.83V631.843ZM295.205 593.976L402.526 531.98C403.765 532.389 405.349 532.287 406.396 531.686C407.661 530.958 407.661 529.769 406.396 529.041C405.132 528.313 403.088 528.313 401.824 529.041C400.776 529.642 400.61 530.562 401.313 531.277L293.48 593.567V619.383L226.114 658.298L227.327 659.001L295.205 619.792V593.976V593.976ZM431.93 667.717L500.255 628.252L459.687 604.826H407.469L451.065 579.65L662.131 701.571L481.567 805.869L482.781 806.571L664.558 701.571L451.052 578.244L403.305 605.823H458.959L497.802 628.265L431.918 666.324L344.727 615.958L454.629 552.479L688.048 687.308L689.262 686.606L454.629 551.074L342.3 615.958L431.93 667.73V667.717ZM476.369 527.801L333.703 610.207L334.917 610.91L477.582 528.504L476.369 527.801ZM557.709 529.041C556.445 529.769 556.445 530.958 557.709 531.686C558.757 532.3 560.353 532.389 561.58 531.98L668.901 593.976V619.792L736.779 659.001L737.992 658.298L670.626 619.383V593.567L562.793 531.277C563.496 530.562 563.33 529.642 562.282 529.041C561.018 528.313 558.974 528.313 557.709 529.041ZM747.955 652.547L749.169 651.844L680.538 612.2L679.324 612.903L747.955 652.547V652.547ZM62.6405 243.063C61.3759 243.791 61.3759 244.98 62.6405 245.708C63.6879 246.309 65.2845 246.411 66.5108 246.002L139.932 288.406L141.145 287.703L67.7242 245.299C68.4268 244.584 68.2607 243.664 67.2133 243.063C65.9487 242.334 63.905 242.334 62.6405 243.063V243.063ZM298.155 364.32C299.42 363.591 299.42 362.403 298.155 361.674C297.108 361.073 295.511 360.971 294.285 361.38L195.764 304.471V269.096L106.67 217.631L105.457 218.334L194.04 269.505V304.88L293.071 362.083C292.369 362.799 292.535 363.719 293.582 364.32C294.847 365.048 296.891 365.048 298.155 364.32ZM433.782 655.678L481.21 628.278L452.38 611.625L404.953 639.026L433.782 655.678ZM407.38 639.026L452.368 613.031L478.77 628.278L433.782 654.272L407.38 639.026V639.026ZM745.528 636.827L682.454 600.392L681.24 601.095L744.315 637.53C743.612 638.246 743.778 639.166 744.826 639.767C746.09 640.495 748.134 640.495 749.399 639.767C750.663 639.038 750.663 637.85 749.399 637.121C748.351 636.521 746.755 636.419 745.528 636.827ZM-102.187 394.135L-155.656 425.025L-111.869 450.316L-58.3997 419.427L-102.187 394.135ZM-60.8394 419.427L-111.869 448.91L-153.216 425.025L-102.187 395.541L-60.8394 419.427V419.427ZM452.738 725.942L418.748 745.573L446.658 761.701L480.648 742.071L452.738 725.942ZM478.221 742.071L446.671 760.295L421.188 745.573L452.738 727.348L478.221 742.071ZM-100.041 381.943L-176.77 426.264L-114.028 462.508L-37.2981 418.187L-100.041 381.943V381.943ZM-39.7378 418.187L-114.028 461.102L-174.33 426.264L-100.041 383.349L-39.7378 418.187ZM-34.9606 319.96L-188.011 408.372L-178.878 413.65L-25.8277 325.238L-34.9606 319.96V319.96ZM-28.2546 325.238L-178.878 412.245L-185.584 408.372L-34.9606 321.366L-28.2546 325.238V325.238ZM-33.1085 309.621L-205.906 409.433L-180.717 423.989L-7.93222 324.165L-33.1212 309.608L-33.1085 309.621ZM-10.3464 324.178L-180.704 422.584L-203.466 409.433L-33.1212 311.027L-10.3591 324.178H-10.3464ZM-103.988 404.359L-137.978 423.989L-110.068 440.118L-76.0779 420.488L-103.988 404.359ZM-78.5049 420.488L-110.055 438.712L-135.538 423.989L-103.988 405.765L-78.5049 420.488ZM364.002 615.383L398.809 635.486L400.023 634.783L366.429 615.383L371.219 612.609L382.229 618.974H426.859L406.103 630.961L394.696 624.367L393.483 625.07L406.103 632.367L431.011 617.977H382.945L371.219 611.204L363.989 615.383H364.002ZM390.711 613.466H436.439V612.469H391.413L381.437 606.705L451.933 565.988L661.212 686.874L662.425 686.171L451.933 564.582L379.01 606.705L390.711 613.466V613.466ZM619.456 686.58L446.658 786.392L471.847 800.948L644.645 701.136L619.456 686.58ZM642.218 701.136L471.86 799.542L449.098 786.392L619.456 687.986L642.218 701.136ZM456.698 703.552L379.968 747.873L442.711 784.117L519.44 739.796L456.698 703.552ZM517.001 739.796L442.711 782.711L382.408 747.873L456.698 704.958L517.001 739.796V739.796ZM454.539 715.744L401.07 746.633L444.857 771.925L498.326 741.036L454.539 715.744ZM495.886 741.036L444.857 770.519L403.51 746.633L454.539 717.15L495.886 741.036ZM617.604 696.919L464.553 785.331L473.686 790.609L626.736 702.197L617.604 696.919ZM624.31 702.197L473.686 789.203L466.98 785.331L617.604 698.325L624.31 702.197Z" fill="url(#paint0_radial_26_2634)"/>
<defs>
<radialGradient id="paint0_radial_26_2634" cx="0" cy="0" r="1" gradientUnits="userSpaceOnUse" gradientTransform="translate(481.682 403.759) scale(559.689 559.981)">
<stop offset="0.14" stop-color="white"/>
<stop offset="0.15" stop-color="#FBFBFB" stop-opacity="0.99"/>
<stop offset="0.35" stop-color="#A3A3A3" stop-opacity="0.64"/>
<stop offset="0.53" stop-color="#5D5D5D" stop-opacity="0.37"/>
<stop offset="0.68" stop-color="#2A2A2A" stop-opacity="0.17"/>
<stop offset="0.79" stop-color="#0B0B0B" stop-opacity="0.05"/>
<stop offset="0.86" stop-opacity="0"/>
</radialGradient>
</defs>
</svg>
