<svg width="168" height="168" viewBox="0 0 168 168" fill="none" xmlns="http://www.w3.org/2000/svg">
<path d="M70.0938 25.5938H75.6562V31.1562H70.0938V25.5938Z" fill="#151515"/>
<path d="M142.406 92.3438H147.969V97.9062H142.406V92.3438Z" fill="#151515"/>
<path d="M92.3438 136.844H97.9062V142.406H92.3438V136.844Z" fill="#151515"/>
<path d="M70.0938 145.188H75.6562V150.75H70.0938V145.188Z" fill="#151515"/>
<path d="M25.5938 81.2188H31.1562V86.7812H25.5938V81.2188Z" fill="#151515"/>
<path d="M92.3438 25.5938H97.9062V31.1562H92.3438V25.5938Z" fill="#151515"/>
<path d="M136.844 70.0938H142.406V75.6562H136.844V70.0938Z" fill="#151515"/>
<path d="M122.938 42.2812H128.5V47.8438H122.938V42.2812Z" fill="#151515"/>
<path d="M39.5 42.2812H45.0625V47.8438H39.5V42.2812Z" fill="#151515"/>
<path d="M122.938 120.156H128.5V125.719H122.938V120.156Z" fill="#151515"/>
<path d="M39.5 120.156H45.0625V125.719H39.5V120.156Z" fill="#151515"/>
<path d="M83.6717 81.2186C81.7266 81.2814 79.8649 82.0235 78.4099 83.3161C76.955 84.6086 75.9987 86.3699 75.7072 88.2941C75.4157 90.2183 75.8074 92.1838 76.8142 93.8493C77.821 95.5148 79.3794 96.775 81.2187 97.4111V103.469H86.7812V97.3916C88.6655 96.7317 90.2499 95.4164 91.2454 93.6857C92.2409 91.9551 92.5812 89.9242 92.2042 87.9636C91.8272 86.0029 90.7581 84.243 89.1919 83.0049C87.6256 81.7667 85.6664 81.1328 83.6717 81.2186ZM86.7812 89.4539C86.7957 89.819 86.7381 90.1834 86.6118 90.5262C86.4855 90.869 86.2928 91.1836 86.0449 91.452C85.7969 91.7203 85.4985 91.9372 85.1667 92.0902C84.8349 92.2432 84.4763 92.3293 84.1112 92.3436C83.7456 92.3579 83.3807 92.2999 83.0376 92.173C82.6944 92.046 82.3797 91.8526 82.1114 91.6038C81.7071 91.2306 81.4227 90.7458 81.2939 90.2109C81.1652 89.6759 81.1981 89.1148 81.3883 88.5985C81.5786 88.0823 81.9177 87.634 82.3628 87.3105C82.8078 86.987 83.3389 86.8028 83.8887 86.7811H83.9999C84.7187 86.7806 85.4097 87.0583 85.9282 87.556C86.4467 88.0538 86.7524 88.733 86.7812 89.4511V89.4539Z" fill="#151515"/>
<path d="M97.9062 73.3867V70.0938C97.9062 66.4056 96.4411 62.8685 93.8332 60.2605C91.2253 57.6526 87.6882 56.1875 84 56.1875C80.3118 56.1875 76.7747 57.6526 74.1668 60.2605C71.5589 62.8685 70.0938 66.4056 70.0938 70.0938V73.3867C68.4725 73.9599 67.068 75.02 66.0723 76.4219C65.0766 77.8239 64.5384 79.4992 64.5312 81.2188V103.469C64.5312 105.682 65.4103 107.804 66.9751 109.369C68.5398 110.933 70.6621 111.812 72.875 111.812H95.125C97.3379 111.812 99.4602 110.933 101.025 109.369C102.59 107.804 103.469 105.682 103.469 103.469V81.2188C103.462 79.4992 102.923 77.8239 101.928 76.4219C100.932 75.02 99.5275 73.9599 97.9062 73.3867ZM75.6562 70.0938C75.6562 67.8808 76.5353 65.7586 78.1001 64.1938C79.6648 62.6291 81.7871 61.75 84 61.75C86.2129 61.75 88.3352 62.6291 89.8999 64.1938C91.4647 65.7586 92.3438 67.8808 92.3438 70.0938V72.875H75.6562V70.0938ZM97.9062 103.469C97.9062 104.206 97.6132 104.914 97.0916 105.435C96.5701 105.957 95.8626 106.25 95.125 106.25H72.875C72.1374 106.25 71.4299 105.957 70.9084 105.435C70.3868 104.914 70.0938 104.206 70.0938 103.469V81.2188C70.0938 80.4811 70.3868 79.7737 70.9084 79.2521C71.4299 78.7305 72.1374 78.4375 72.875 78.4375H95.125C95.8626 78.4375 96.5701 78.7305 97.0916 79.2521C97.6132 79.7737 97.9062 80.4811 97.9062 81.2188V103.469Z" fill="#151515"/>
<path d="M159.094 109.031C157.855 109.036 156.633 109.321 155.52 109.866L149.123 103.469H122.938V97.9062H136.844V92.3438H122.938V86.7813H137.5L153.317 78.8714C154.703 80.1992 156.506 81.0072 158.419 81.1589C160.333 81.3105 162.24 80.7963 163.818 79.7034C165.396 78.6105 166.548 77.006 167.079 75.1614C167.61 73.3167 167.488 71.3453 166.732 69.5806C165.977 67.816 164.635 66.3665 162.933 65.4776C161.232 64.5886 159.276 64.3147 157.396 64.7022C155.516 65.0897 153.828 66.1149 152.616 67.6042C151.405 69.0935 150.746 70.9555 150.75 72.875C150.763 73.2134 150.797 73.5506 150.853 73.8846L136.187 81.2188H122.938V75.6563H131.281V70.0938H122.938V64.5313H135.214L144.392 55.3531C145.506 55.8979 146.729 56.1831 147.969 56.1875C149.619 56.1875 151.232 55.6982 152.604 54.7813C153.976 53.8645 155.046 52.5614 155.677 51.0368C156.309 49.5121 156.474 47.8345 156.152 46.216C155.83 44.5974 155.036 43.1107 153.869 41.9438C152.702 40.7769 151.215 39.9823 149.597 39.6603C147.978 39.3384 146.3 39.5036 144.776 40.1351C143.251 40.7667 141.948 41.8361 141.031 43.2082C140.114 44.5803 139.625 46.1935 139.625 47.8438C139.63 49.0828 139.915 50.3046 140.459 51.4177L132.911 58.9688H122.938C122.933 55.2819 121.467 51.7474 118.86 49.1404C116.253 46.5335 112.718 45.0669 109.031 45.0625V37.8702L124.926 21.9781C126.039 22.5225 127.261 22.8077 128.5 22.8125C130.15 22.8125 131.763 22.3232 133.136 21.4063C134.508 20.4895 135.577 19.1864 136.209 17.6618C136.84 16.1371 137.005 14.4595 136.683 12.841C136.361 11.2224 135.567 9.73573 134.4 8.56883C133.233 7.40194 131.746 6.60727 130.128 6.28533C128.509 5.96338 126.832 6.12862 125.307 6.76013C123.782 7.39165 122.479 8.46109 121.562 9.83321C120.646 11.2053 120.156 12.8185 120.156 14.4688C120.161 15.7078 120.446 16.9296 120.991 18.0427L103.469 35.5645V45.0625H97.9062V36.7188H92.3438V45.0625H86.7813V25.082C88.6369 24.4259 90.201 23.1349 91.1968 21.4372C92.1927 19.7395 92.5564 17.7444 92.2236 15.8045C91.8907 13.8646 90.8828 12.1048 89.378 10.8361C87.8731 9.5675 85.9683 8.87169 84 8.87169C82.0318 8.87169 80.1269 9.5675 78.622 10.8361C77.1172 12.1048 76.1093 13.8646 75.7764 15.8045C75.4436 17.7444 75.8073 19.7395 76.8032 21.4372C77.7991 23.1349 79.3631 24.4259 81.2188 25.082V45.0625H75.6563V36.7188H70.0938V45.0625H64.5313V24.4423L52.5719 12.4829C53.1166 11.369 53.4019 10.1462 53.4063 8.90625C53.4063 7.25602 52.9169 5.64284 52.0001 4.27071C51.0833 2.89859 49.7801 1.82915 48.2555 1.19763C46.7309 0.566115 45.0532 0.400881 43.4347 0.722827C41.8162 1.04477 40.3295 1.83944 39.1626 3.00633C37.9957 4.17323 37.201 5.65994 36.8791 7.27847C36.5571 8.897 36.7224 10.5746 37.3539 12.0993C37.9854 13.6239 39.0548 14.927 40.427 15.8438C41.7991 16.7607 43.4123 17.25 45.0625 17.25C46.3015 17.2452 47.5234 16.96 48.6364 16.4156L58.9688 26.7452V45.0625C55.2819 45.0669 51.7474 46.5335 49.1404 49.1404C46.5335 51.7474 45.0669 55.2819 45.0625 58.9688H35.0889L27.5406 51.4177C28.0849 50.3046 28.3702 49.0828 28.375 47.8438C28.375 46.1935 27.8856 44.5803 26.9688 43.2082C26.052 41.8361 24.7489 40.7667 23.2243 40.1351C21.6996 39.5036 20.022 39.3384 18.4035 39.6603C16.7849 39.9823 15.2982 40.7769 14.1313 41.9438C12.9644 43.1107 12.1698 44.5974 11.8478 46.216C11.5259 47.8345 11.6911 49.5121 12.3226 51.0368C12.9542 52.5614 14.0236 53.8645 15.3957 54.7813C16.7678 55.6982 18.381 56.1875 20.0313 56.1875C21.2703 56.1827 22.4921 55.8975 23.6052 55.3531L32.7833 64.5313H45.0625V70.0938H27.3682L12.8 82.2311C11.6061 81.5761 10.268 81.2282 8.90625 81.2188C7.25602 81.2188 5.64284 81.7081 4.27071 82.6249C2.89859 83.5417 1.82915 84.8449 1.19763 86.3695C0.566115 87.8941 0.400881 89.5718 0.722827 91.1903C1.04477 92.8088 1.83944 94.2955 3.00633 95.4624C4.17323 96.6293 5.65994 97.424 7.27847 97.7459C8.897 98.0679 10.5746 97.9026 12.0993 97.2711C13.6239 96.6396 14.927 95.5702 15.8438 94.198C16.7607 92.8259 17.25 91.2127 17.25 89.5625C17.2519 88.4463 17.0277 87.3412 16.5908 86.314L29.3818 75.6563H45.0625V81.2188H36.7188V86.7813H45.0625V92.3438H20.0313V97.9062H45.0625V103.469H29.6683L18.4598 120.279C18.0601 120.208 17.6557 120.167 17.25 120.156C15.3151 120.138 13.4331 120.788 11.9205 121.994C10.4079 123.201 9.35704 124.892 8.94461 126.783C8.53218 128.673 8.78335 130.648 9.65588 132.375C10.5284 134.102 11.9691 135.476 13.7356 136.266C15.5021 137.056 17.4867 137.213 19.3555 136.711C21.2244 136.21 22.8636 135.08 23.9973 133.512C25.1311 131.944 25.6903 130.033 25.5809 128.101C25.4715 126.169 24.7001 124.334 23.3966 122.904L32.6442 109.031H45.0625C45.0669 112.718 46.5335 116.253 49.1404 118.86C51.7474 121.467 55.2819 122.933 58.9688 122.938V141.255L48.6364 151.584C47.5234 151.04 46.3015 150.755 45.0625 150.75C43.4123 150.75 41.7991 151.239 40.427 152.156C39.0548 153.073 37.9854 154.376 37.3539 155.901C36.7224 157.425 36.5571 159.103 36.8791 160.722C37.201 162.34 37.9957 163.827 39.1626 164.994C40.3295 166.161 41.8162 166.955 43.4347 167.277C45.0532 167.599 46.7309 167.434 48.2555 166.802C49.7801 166.171 51.0833 165.101 52.0001 163.729C52.9169 162.357 53.4063 160.744 53.4063 159.094C53.4015 157.855 53.1162 156.633 52.5719 155.52L64.5313 143.56V122.938H70.0938V139.625H75.6563V122.938H81.2188V146.728L98.1121 157.297C97.6581 159.246 97.9088 161.292 98.8199 163.073C99.731 164.855 101.243 166.256 103.089 167.028C104.935 167.8 106.994 167.894 108.903 167.293C110.811 166.691 112.444 165.433 113.513 163.742C114.583 162.051 115.018 160.036 114.743 158.054C114.468 156.072 113.5 154.252 112.01 152.916C110.521 151.58 108.607 150.815 106.607 150.756C104.607 150.697 102.651 151.348 101.085 152.594L86.7813 143.647V122.938H92.3438V131.281H97.9062V122.938H103.469V145.188H123.449C124.105 147.043 125.396 148.607 127.094 149.603C128.792 150.599 130.787 150.963 132.727 150.63C134.667 150.297 136.426 149.289 137.695 147.784C138.964 146.279 139.66 144.375 139.66 142.406C139.66 140.438 138.964 138.533 137.695 137.028C136.426 135.523 134.667 134.516 132.727 134.183C130.787 133.85 128.792 134.214 127.094 135.209C125.396 136.205 124.105 137.769 123.449 139.625H109.031V122.938C112.718 122.933 116.253 121.467 118.86 118.86C121.467 116.253 122.933 112.718 122.938 109.031H146.817L151.584 113.801C151.04 114.914 150.755 116.136 150.75 117.375C150.75 119.025 151.239 120.638 152.156 122.011C153.073 123.383 154.376 124.452 155.901 125.084C157.425 125.715 159.103 125.88 160.722 125.558C162.34 125.236 163.827 124.442 164.994 123.275C166.161 122.108 166.955 120.621 167.277 119.003C167.599 117.384 167.434 115.707 166.802 114.182C166.171 112.657 165.101 111.354 163.729 110.437C162.357 109.521 160.744 109.031 159.094 109.031ZM159.094 70.0938C159.644 70.0938 160.182 70.2569 160.639 70.5625C161.096 70.8681 161.453 71.3025 161.663 71.8107C161.874 72.3189 161.929 72.8781 161.822 73.4176C161.714 73.9571 161.449 74.4527 161.06 74.8417C160.671 75.2306 160.176 75.4955 159.636 75.6028C159.097 75.7101 158.538 75.6551 158.029 75.4445C157.521 75.234 157.087 74.8776 156.781 74.4202C156.476 73.9628 156.312 73.4251 156.312 72.875C156.312 72.1374 156.606 71.4299 157.127 70.9084C157.649 70.3868 158.356 70.0938 159.094 70.0938ZM147.969 45.0625C148.519 45.0625 149.057 45.2256 149.514 45.5312C149.971 45.8368 150.328 46.2712 150.538 46.7794C150.749 47.2876 150.804 47.8468 150.697 48.3864C150.589 48.9259 150.324 49.4214 149.935 49.8104C149.546 50.1994 149.051 50.4642 148.511 50.5716C147.972 50.6789 147.413 50.6238 146.904 50.4133C146.396 50.2028 145.962 49.8463 145.656 49.3889C145.351 48.9316 145.188 48.3938 145.188 47.8438C145.188 47.1061 145.481 46.3987 146.002 45.8771C146.524 45.3555 147.231 45.0625 147.969 45.0625ZM128.5 11.6875C129.05 11.6875 129.588 11.8506 130.045 12.1562C130.503 12.4618 130.859 12.8962 131.07 13.4044C131.28 13.9126 131.335 14.4718 131.228 15.0113C131.12 15.5509 130.856 16.0464 130.467 16.4354C130.078 16.8244 129.582 17.0892 129.043 17.1966C128.503 17.3039 127.944 17.2488 127.436 17.0383C126.927 16.8278 126.493 16.4713 126.187 16.0139C125.882 15.5566 125.719 15.0188 125.719 14.4688C125.719 13.7311 126.012 13.0237 126.533 12.5021C127.055 11.9805 127.762 11.6875 128.5 11.6875ZM84 14.4688C84.5501 14.4688 85.0878 14.6319 85.5452 14.9375C86.0026 15.2431 86.359 15.6775 86.5695 16.1857C86.78 16.6939 86.8351 17.2531 86.7278 17.7926C86.6205 18.3321 86.3556 18.8277 85.9667 19.2166C85.5777 19.6056 85.0821 19.8705 84.5426 19.9778C84.0031 20.0851 83.4439 20.0301 82.9357 19.8195C82.4275 19.609 81.9931 19.2526 81.6875 18.7952C81.3819 18.3378 81.2188 17.8001 81.2188 17.25C81.2188 16.5124 81.5118 15.8049 82.0334 15.2834C82.5549 14.7618 83.2624 14.4688 84 14.4688ZM42.2813 8.90625C42.2813 8.35617 42.4444 7.81845 42.75 7.36107C43.0556 6.9037 43.49 6.54722 43.9982 6.33671C44.5064 6.12621 45.0656 6.07113 45.6051 6.17844C46.1446 6.28576 46.6402 6.55065 47.0291 6.93961C47.4181 7.32858 47.683 7.82415 47.7903 8.36366C47.8976 8.90317 47.8426 9.46239 47.632 9.97059C47.4215 10.4788 47.0651 10.9132 46.6077 11.2188C46.1503 11.5244 45.6126 11.6875 45.0625 11.6875C44.3249 11.6875 43.6174 11.3945 43.0959 10.8729C42.5743 10.3513 42.2813 9.64389 42.2813 8.90625ZM17.25 47.8438C17.25 47.2937 17.4131 46.7559 17.7187 46.2986C18.0243 45.8412 18.4587 45.4847 18.9669 45.2742C19.4751 45.0637 20.0343 45.0086 20.5738 45.1159C21.1134 45.2233 21.6089 45.4881 21.9979 45.8771C22.3869 46.2661 22.6517 46.7616 22.7591 47.3012C22.8664 47.8407 22.8113 48.3999 22.6008 48.9081C22.3903 49.4163 22.0338 49.8507 21.5764 50.1563C21.1191 50.4619 20.5813 50.625 20.0313 50.625C19.2936 50.625 18.5862 50.332 18.0646 49.8104C17.543 49.2888 17.25 48.5814 17.25 47.8438ZM8.90625 92.3438C8.35617 92.3438 7.81845 92.1806 7.36107 91.875C6.9037 91.5694 6.54722 91.135 6.33671 90.6268C6.12621 90.1186 6.07113 89.5594 6.17844 89.0199C6.28576 88.4804 6.55065 87.9848 6.93961 87.5959C7.32858 87.2069 7.82415 86.942 8.36366 86.8347C8.90317 86.7274 9.46239 86.7825 9.97059 86.993C10.4788 87.2035 10.9132 87.56 11.2188 88.0173C11.5244 88.4747 11.6875 89.0124 11.6875 89.5625C11.6875 90.3001 11.3945 91.0076 10.8729 91.5291C10.3513 92.0507 9.64389 92.3438 8.90625 92.3438ZM17.25 131.281C16.6999 131.281 16.1622 131.118 15.7048 130.813C15.2475 130.507 14.891 130.073 14.6805 129.564C14.47 129.056 14.4149 128.497 14.5222 127.957C14.6295 127.418 14.8944 126.922 15.2834 126.533C15.6723 126.144 16.1679 125.88 16.7074 125.772C17.2469 125.665 17.8061 125.72 18.3143 125.93C18.8225 126.141 19.2569 126.497 19.5625 126.955C19.8681 127.412 20.0313 127.95 20.0313 128.5C20.0313 129.238 19.7382 129.945 19.2166 130.467C18.6951 130.988 17.9876 131.281 17.25 131.281ZM45.0625 161.875C44.5124 161.875 43.9747 161.712 43.5173 161.406C43.0599 161.101 42.7035 160.666 42.493 160.158C42.2825 159.65 42.2274 159.091 42.3347 158.551C42.442 158.012 42.7069 157.516 43.0959 157.127C43.4848 156.738 43.9804 156.473 44.5199 156.366C45.0594 156.259 45.6186 156.314 46.1268 156.524C46.635 156.735 47.0694 157.091 47.375 157.549C47.6806 158.006 47.8438 158.544 47.8438 159.094C47.8438 159.831 47.5507 160.539 47.0291 161.06C46.5076 161.582 45.8001 161.875 45.0625 161.875ZM106.25 156.312C106.8 156.312 107.338 156.476 107.795 156.781C108.253 157.087 108.609 157.521 108.82 158.029C109.03 158.538 109.085 159.097 108.978 159.636C108.87 160.176 108.606 160.671 108.217 161.06C107.828 161.449 107.332 161.714 106.793 161.822C106.253 161.929 105.694 161.874 105.186 161.663C104.677 161.453 104.243 161.096 103.937 160.639C103.632 160.182 103.469 159.644 103.469 159.094C103.469 158.356 103.762 157.649 104.283 157.127C104.805 156.606 105.512 156.312 106.25 156.312ZM131.281 139.625C131.831 139.625 132.369 139.788 132.826 140.094C133.284 140.399 133.64 140.834 133.851 141.342C134.061 141.85 134.116 142.409 134.009 142.949C133.902 143.488 133.637 143.984 133.248 144.373C132.859 144.762 132.363 145.027 131.824 145.134C131.284 145.241 130.725 145.186 130.217 144.976C129.709 144.765 129.274 144.409 128.969 143.951C128.663 143.494 128.5 142.956 128.5 142.406C128.5 141.669 128.793 140.961 129.315 140.44C129.836 139.918 130.544 139.625 131.281 139.625ZM117.375 109.031C117.375 111.244 116.496 113.366 114.931 114.931C113.366 116.496 111.244 117.375 109.031 117.375H58.9688C56.7559 117.375 54.6336 116.496 53.0688 114.931C51.5041 113.366 50.625 111.244 50.625 109.031V58.9688C50.625 56.7559 51.5041 54.6336 53.0688 53.0688C54.6336 51.5041 56.7559 50.625 58.9688 50.625H109.031C111.244 50.625 113.366 51.5041 114.931 53.0688C116.496 54.6336 117.375 56.7559 117.375 58.9688V109.031ZM159.094 120.156C158.544 120.156 158.006 119.993 157.549 119.688C157.091 119.382 156.735 118.948 156.524 118.439C156.314 117.931 156.259 117.372 156.366 116.832C156.473 116.293 156.738 115.797 157.127 115.408C157.516 115.019 158.012 114.755 158.551 114.647C159.091 114.54 159.65 114.595 160.158 114.805C160.666 115.016 161.101 115.372 161.406 115.83C161.712 116.287 161.875 116.825 161.875 117.375C161.875 118.113 161.582 118.82 161.06 119.342C160.539 119.863 159.831 120.156 159.094 120.156Z" fill="#151515"/>
</svg>
