<svg  viewBox="0 0 23 23" fill="none" xmlns="http://www.w3.org/2000/svg">
<path d="M21.3883 3.37323L14.5289 19.1653C14.3042 19.6834 13.9456 20.1219 13.5048 20.4491C13.4508 20.4911 13.3925 20.5309 13.3363 20.5687C12.8157 20.9043 12.1935 21.0931 11.541 21.0931C10.1929 21.0931 8.98738 20.2855 8.50992 19.0604L5.8353 12.2279V20.1659C5.8353 20.9484 5.51123 21.6595 4.97977 22.1693C4.4591 22.6811 3.73536 22.9958 2.936 23C1.31999 23.0105 -0.00219727 21.6302 -0.00219727 20.061V5.64931C-0.00219727 4.36967 1.06722 3.33127 2.38508 3.33127H5.48531C6.45102 3.33127 7.31952 3.89348 7.68895 4.75566L10.5083 11.3007C10.8756 12.1587 12.1265 12.1629 12.4981 11.3049L13.3277 9.40223L16.7822 1.48313C17.2402 0.427952 18.3982 -0.172011 19.5541 0.0440596C21.1139 0.333553 22.004 1.94884 21.3883 3.37323Z" fill="url(#paint0_linear_1_24)"/>
<path style="mix-blend-mode:multiply" d="M21.3883 3.37323L14.5289 19.1653C14.3042 19.6834 13.9456 20.1219 13.5049 20.4491L12.7854 17.9884C11.9537 15.1501 12.1481 12.1188 13.332 9.40433L16.7822 1.48313C17.2403 0.427952 18.3983 -0.172011 19.5541 0.0440596C21.1139 0.333553 22.004 1.94884 21.3883 3.37323Z" fill="url(#paint1_linear_1_24)"/>
<path d="M17.1624 18.4374V20.1638C17.1624 21.7288 18.4694 22.9979 20.0811 22.9979C21.6928 22.9979 22.9999 21.7288 22.9999 20.1638V5.04516C22.9999 4.66546 22.4641 4.56057 22.3107 4.9088L17.8667 15.0788C17.4022 16.1403 17.1624 17.2836 17.1624 18.4374Z" fill="url(#paint2_linear_1_24)"/>
<defs>
<linearGradient id="paint0_linear_1_24" x1="19.971" y1="19.8659" x2="6.80567" y2="6.92362" gradientUnits="userSpaceOnUse">
<stop stop-color="#D0D0D1"/>
<stop offset="0.36" stop-color="#F0ECEC"/>
<stop offset="1" stop-color="white"/>
</linearGradient>
<linearGradient id="paint1_linear_1_24" x1="10.1627" y1="19.9016" x2="15.3187" y2="10.3724" gradientUnits="userSpaceOnUse">
<stop stop-color="#C3C3C4"/>
<stop offset="1" stop-color="white"/>
</linearGradient>
<linearGradient id="paint2_linear_1_24" x1="27.5173" y1="21.4414" x2="12.0153" y2="2.92188" gradientUnits="userSpaceOnUse">
<stop stop-color="#E0E0E0"/>
<stop offset="0.36" stop-color="#A4A4A4"/>
<stop offset="1" stop-color="#C2C2C2"/>
</linearGradient>
</defs>
</svg>
